<svg width="320" height="59" viewBox="0 0 320 59" fill="none" xmlns="http://www.w3.org/2000/svg">
<g clip-path="url(#clip0)">
<path fill-rule="evenodd" clip-rule="evenodd" d="M47.1551 7.15483C47.1063 7.20443 47.0663 7.35402 47.0663 7.48841C47.0663 7.702 46.9495 7.7332 46.1335 7.7332C45.2887 7.7332 45.1999 7.758 45.1999 7.99958C45.1999 8.25557 44.5583 8.36676 43.5951 8.27797C43.4751 8.26677 43.3815 8.37636 43.3687 8.54435C43.3407 8.91873 43.3447 8.91633 42.6943 8.96113C42.2639 8.99072 42.1335 9.05392 42.1335 9.23311C42.1335 9.4571 41.9359 9.52429 41.4319 9.4731C41.1799 9.4475 40.7999 9.75788 40.7999 9.98986C40.7999 10.0683 40.6351 10.1339 40.4335 10.1347C40.0039 10.1371 39.8119 10.2474 39.6975 10.5578C39.6407 10.7114 39.4311 10.7962 39.0407 10.825C38.6567 10.8522 38.4783 10.9234 38.5023 11.0386C38.5215 11.1338 38.3567 11.2746 38.1351 11.3522C37.8783 11.4418 37.7335 11.5834 37.7335 11.7458C37.7335 11.9105 37.6399 11.9993 37.4663 11.9993C37.2943 11.9993 37.1999 12.0881 37.1999 12.2505C37.1999 12.4833 36.9407 12.5945 36.1743 12.6905C36.0863 12.7017 36.0183 12.7457 36.0231 12.7881C36.0551 13.0849 35.9807 13.3361 35.8783 13.2737C35.7135 13.1713 35.3183 13.3337 35.4015 13.4689C35.4887 13.6096 35.0783 14.0224 34.9375 13.9352C34.8783 13.8984 34.7975 13.9928 34.7583 14.144C34.7191 14.2952 34.5623 14.4512 34.4111 14.4912C34.2599 14.5304 34.1663 14.6112 34.2023 14.6704C34.2943 14.8192 33.8735 15.2192 33.7223 15.1256C33.6551 15.084 33.5911 15.1288 33.5799 15.2248C33.5687 15.3207 33.5455 15.4591 33.5287 15.5327C33.5111 15.6055 33.4903 15.7935 33.4823 15.9503C33.4727 16.1183 33.3535 16.2647 33.1903 16.3071C33.0375 16.3471 32.8807 16.5039 32.8415 16.6559C32.7991 16.8159 32.6599 16.9326 32.5095 16.9326C32.3671 16.9326 32.2831 16.9846 32.3231 17.0486C32.3623 17.1126 32.2159 17.3518 31.9975 17.5806C31.7647 17.8246 31.5999 18.1406 31.5999 18.3438C31.5999 18.5781 31.5135 18.7133 31.3335 18.7605C31.1175 18.8165 31.0663 18.9421 31.0663 19.4141C31.0663 19.9493 31.0383 19.9989 30.7335 19.9989C30.4271 19.9989 30.3999 20.0477 30.3999 20.5988C30.3999 21.2204 30.3863 21.2324 29.6663 21.2324C29.2807 21.2324 29.2279 21.1964 29.1471 20.8748C29.0967 20.6724 28.9535 20.5348 28.7663 20.5084C28.5663 20.4796 28.4799 20.3876 28.5055 20.2325C28.5383 20.0381 28.4423 19.9989 27.9391 19.9989C27.3815 19.9989 27.3335 19.9725 27.3335 19.6653C27.3335 19.3613 27.2831 19.3325 26.7543 19.3325C26.2615 19.3325 26.1527 19.2813 26.0183 18.9869C25.8791 18.6813 25.7999 18.6485 25.3335 18.7021C25.0439 18.7357 24.8351 18.7165 24.8703 18.6597C25.0543 18.3622 24.7495 18.1926 23.9647 18.155C23.2999 18.1222 23.0647 18.0494 22.7927 17.7902L22.4519 17.4654L18.0591 17.4702C13.5935 17.4742 13.1999 17.5158 13.1999 17.9806C13.1999 18.0758 12.9295 18.1326 12.4775 18.1326C11.6479 18.1326 11.3335 18.223 11.3335 18.463C11.3335 18.5638 11.0703 18.6661 10.6735 18.7189C10.2247 18.7781 9.9367 18.9013 9.7735 19.1029C9.6207 19.2909 9.4207 19.3829 9.2247 19.3557C9.0279 19.3277 8.9255 19.3749 8.9407 19.4885C9.0007 19.9293 8.9191 19.9989 8.3423 19.9989C7.8311 19.9989 7.7463 20.0397 7.7095 20.2988C7.6815 20.4956 7.5751 20.5988 7.3999 20.5988C7.2247 20.5988 7.1183 20.702 7.0903 20.8988C7.0655 21.078 6.9551 21.1988 6.8175 21.1988C6.6903 21.1988 6.5055 21.274 6.4071 21.3652C6.2927 21.4716 6.2591 21.4764 6.3143 21.3772C6.3687 21.2804 6.3135 21.2388 6.1671 21.2668C6.0383 21.2916 5.9031 21.3172 5.8663 21.3236C5.8295 21.3308 5.8895 21.394 5.9999 21.4652C6.1455 21.5596 6.1519 21.5956 6.0255 21.5964C5.9295 21.598 5.8879 21.6588 5.9335 21.7324C5.9783 21.8052 5.9223 21.8732 5.8079 21.882C5.6935 21.8916 5.5247 21.9059 5.4335 21.9155C5.3415 21.9243 5.2663 22.0091 5.2663 22.1035C5.2663 22.3179 4.9223 22.5411 4.7535 22.4371C4.6815 22.3923 4.6559 22.5067 4.6943 22.7059C4.7495 22.9971 4.6967 23.0755 4.3655 23.1907C4.0871 23.2875 3.9935 23.3899 4.0503 23.5371C4.0943 23.6522 4.0799 23.7146 4.0183 23.6762C3.7287 23.4979 3.3855 24.0522 3.3431 24.765C3.3375 24.857 3.2135 24.9322 3.0663 24.9322C2.9055 24.9322 2.7999 25.021 2.7999 25.157C2.7999 25.2801 2.6815 25.5073 2.5367 25.6617C2.3919 25.8153 2.2535 26.0721 2.2295 26.2321C2.2047 26.3913 2.0535 26.6369 1.8927 26.7761C1.6919 26.9504 1.5999 27.1816 1.5999 27.5144C1.5999 27.9816 1.5143 28.064 1.0863 28.0056C0.987096 27.992 0.937496 28.0304 0.975096 28.092C1.0127 28.1528 0.983096 28.5016 0.909496 28.8671C0.835896 29.2327 0.771096 29.6039 0.765496 29.6927C0.759896 29.7807 0.675896 29.8839 0.579096 29.9207C0.379896 29.9975 0.395896 29.7167 0.599896 29.5671C0.676696 29.5103 0.643096 29.4679 0.519096 29.4671C0.339896 29.4655 0.309496 29.6263 0.329496 30.4782C0.346296 31.171 0.298296 31.5478 0.176696 31.6686C-0.166504 32.0117 -0.0713039 37.5482 0.279896 37.6402C0.579896 37.7186 0.511096 37.9978 0.191896 37.9978C-0.0465039 37.9978 -0.0681039 38.6145 0.166296 38.7097C0.299896 38.7633 0.299896 38.7785 0.166296 38.7873C-0.120104 38.8049 -0.0169039 39.1977 0.274296 39.1977C0.425496 39.1977 0.511896 39.1377 0.466296 39.0641C0.421496 38.9913 0.515096 38.9313 0.675096 38.9313C0.918296 38.9313 0.939096 38.9633 0.799896 39.1313C0.685496 39.2689 0.679896 39.3313 0.783896 39.3313C0.865496 39.3313 0.933496 39.3945 0.933496 39.4721C0.933496 39.5497 0.876696 39.5785 0.807096 39.5353C0.736696 39.4921 0.705496 39.5857 0.735896 39.7457C0.813496 40.1481 0.933496 40.2337 0.933496 39.8865V39.5977H9.8663H18.7999V39.1185C18.7999 38.7617 18.8639 38.6225 19.0511 38.5738C19.2351 38.5258 19.3239 38.3402 19.3847 37.8818C19.4383 37.4778 19.5623 37.1874 19.7343 37.0642C19.9231 36.9274 20.0007 36.7171 20.0023 36.3355C20.0039 35.7355 20.0911 35.5515 20.4335 35.4259C20.6167 35.3579 20.6663 35.1828 20.6663 34.6052C20.6663 33.9692 20.7111 33.842 20.9999 33.6524C21.2799 33.4685 21.3335 33.3301 21.3335 32.7829C21.3335 32.3269 21.4071 32.0573 21.5799 31.8854C21.7151 31.7494 21.8607 31.3806 21.9031 31.0646C21.9455 30.7486 22.0951 30.335 22.2351 30.1447C22.3751 29.9543 22.5247 29.5383 22.5671 29.2215C22.6095 28.9039 22.7415 28.5368 22.8607 28.4048C22.9799 28.2736 23.1247 27.8656 23.1831 27.4984C23.2407 27.1312 23.4183 26.6657 23.5775 26.4633C23.7367 26.2609 23.8663 25.9321 23.8663 25.7321C23.8663 25.5313 23.9863 25.2154 24.1335 25.029C24.2799 24.8426 24.3999 24.6082 24.3999 24.509C24.3999 24.4098 24.5111 24.1186 24.6471 23.8634C24.7831 23.6074 24.9719 23.1587 25.0663 22.8651C25.1615 22.5723 25.3503 22.1891 25.4863 22.0139C25.6223 21.8396 25.7335 21.6108 25.7335 21.506C25.7335 20.8508 27.0951 19.8493 27.2383 20.3988C27.2919 20.6036 27.4207 20.6652 27.7911 20.6652C28.1823 20.6652 28.2967 20.7284 28.3999 20.9988C28.4887 21.2332 28.6271 21.3324 28.8631 21.3324C29.1111 21.3324 29.1999 21.4028 29.1999 21.5988C29.1999 21.8044 29.2887 21.8652 29.5855 21.8652C30.1479 21.8652 30.3695 22.8355 29.9375 23.4067C29.8295 23.5491 29.7399 23.7434 29.7375 23.8386C29.7319 24.0626 28.9759 26.0585 28.6671 26.6649C28.5359 26.9216 28.3847 27.3416 28.3303 27.5984C28.2759 27.8552 28.1191 28.2744 27.9823 28.5296C27.8455 28.7855 27.7335 29.1463 27.7335 29.3319C27.7335 29.5175 27.6223 29.8783 27.4863 30.1335C27.3503 30.3894 27.1951 30.8382 27.1415 31.1318C27.0879 31.4246 26.9631 31.8446 26.8631 32.0645C26.7639 32.2845 26.6159 32.7349 26.5351 33.0645C26.4535 33.3949 26.3047 33.8444 26.2039 34.0644C26.1031 34.2844 25.8015 35.1508 25.5343 35.9891C25.2671 36.8267 24.9703 37.6666 24.8751 37.8554C24.7799 38.0434 24.6623 38.417 24.6143 38.6841C24.5655 38.9521 24.4375 39.2441 24.3295 39.3337C24.2215 39.4233 24.1335 39.6161 24.1335 39.7609C24.1335 39.9065 23.9863 40.304 23.8055 40.6448C23.6255 40.9856 23.4471 41.4184 23.4095 41.6064C23.3719 41.7944 23.2191 42.0887 23.0703 42.2599C22.9215 42.4311 22.7999 42.6343 22.7999 42.7111C22.7999 43.0487 21.3247 44.9534 20.2463 46.0085C19.6479 46.5933 19.3207 46.8541 18.5495 47.3604C18.3575 47.4868 18.1095 47.6532 17.9999 47.73C16.8071 48.5644 15.8759 48.9587 13.4039 49.6723C11.9751 50.0851 7.4151 49.8283 7.0639 49.3155C6.9263 49.1139 6.2367 48.9307 5.6175 48.9307C5.2703 48.9307 4.9119 48.8555 4.8199 48.7635C4.7287 48.6723 4.5151 48.5947 4.3463 48.5915C3.8863 48.5828 3.8823 49.2955 4.3423 49.4115C4.5375 49.4603 4.6663 49.5891 4.6663 49.7355C4.6663 49.8859 4.7807 49.9947 4.9663 50.0211C5.1575 50.0483 5.2599 50.1491 5.2479 50.2978C5.2367 50.4426 5.3511 50.5634 5.5479 50.6122C5.7431 50.6618 5.8663 50.7898 5.8663 50.945C5.8663 51.1546 5.9671 51.197 6.4663 51.197C7.0175 51.197 7.0663 51.2242 7.0663 51.5306C7.0663 51.797 7.1335 51.8634 7.3999 51.8634C7.6447 51.8634 7.7335 51.9345 7.7335 52.1305C7.7335 52.2769 7.7935 52.4041 7.8663 52.4137C7.9399 52.4225 8.0599 52.4449 8.1335 52.4633C8.2063 52.4817 8.4167 52.5041 8.5999 52.5137C8.8391 52.5257 8.9335 52.6057 8.9335 52.7969C8.9335 53.0225 9.0223 53.0633 9.5119 53.0633C9.9999 53.0633 10.1143 53.1161 10.2423 53.3969C10.3615 53.6584 10.4927 53.7304 10.8543 53.7304C11.2255 53.7304 11.3255 53.788 11.3727 54.0304L11.4303 54.3304L11.4487 54.0216C11.4631 53.7664 11.5303 53.72 11.8335 53.7544C12.0967 53.7848 12.1887 53.8624 12.1607 54.0304C12.1263 54.236 12.2463 54.2632 13.1863 54.2632C14.2407 54.2632 14.6303 54.42 14.2503 54.6912C14.1079 54.792 14.1191 54.8048 14.2999 54.7472C14.4279 54.7056 14.5335 54.7296 14.5335 54.8008C14.5335 54.8768 15.1423 54.9304 15.9999 54.9304C17.1991 54.9304 17.4663 54.9656 17.4663 55.1256C17.4663 55.6143 17.5383 55.6151 40.5079 55.5671C64.1159 55.5167 63.3447 55.5303 63.4959 55.1632C63.5735 54.9728 63.7743 54.9272 64.5959 54.9136C65.9663 54.8904 65.9279 54.9008 65.9759 54.5632C66.0119 54.3088 66.0999 54.2632 66.5551 54.2632C66.9791 54.2632 67.1063 54.208 67.1615 53.9968C67.2263 53.7496 67.5127 53.668 68.2319 53.6944C68.3223 53.6976 68.3639 53.6464 68.3239 53.5817C68.2839 53.5169 68.3207 53.4633 68.4063 53.4633C68.4919 53.4633 68.5271 53.3737 68.4847 53.2633C68.4295 53.1193 68.4999 53.0633 68.7375 53.0633C68.9775 53.0633 69.0663 52.9913 69.0663 52.7969C69.0663 52.6081 69.1551 52.5305 69.3703 52.5305C69.7535 52.5305 70.2663 52.1777 70.2663 51.9146C70.2663 51.805 70.3183 51.7466 70.3823 51.7858C70.5287 51.877 70.9647 51.4058 70.8447 51.2858C70.7959 51.237 70.8519 51.197 70.9703 51.197C71.2455 51.197 71.5999 50.693 71.5999 50.301C71.5999 50.0859 71.6783 49.9971 71.8663 49.9971C72.0647 49.9971 72.1335 49.9083 72.1335 49.6499C72.1335 49.4099 72.1903 49.3235 72.3167 49.3723C72.4207 49.4123 72.5711 49.3083 72.6663 49.1307C72.7583 48.9595 72.9327 48.7931 73.0543 48.7619C73.2039 48.7227 73.2871 48.5364 73.3111 48.1876C73.3463 47.6604 73.5367 47.4188 73.8335 47.5276C73.9511 47.5708 73.9999 47.4124 73.9999 46.9892C73.9999 46.5389 74.0583 46.3677 74.2335 46.3029C74.5623 46.1813 74.6623 45.9949 74.6647 45.4973C74.6655 45.2166 74.7319 45.0638 74.8527 45.0638C75.0759 45.0638 75.1999 44.7774 75.1999 44.2622C75.1999 43.9702 75.2687 43.8726 75.4999 43.8398C75.8271 43.7934 75.8255 43.7974 75.8503 42.7311C75.8647 42.0943 75.9015 41.9975 76.1303 41.9975C76.3751 41.9975 76.5903 41.5928 76.5255 41.256C76.4271 40.7448 76.5567 40.2337 76.7999 40.1697C77.0455 40.1057 77.0663 39.9881 77.0663 38.7017C77.0663 37.3754 77.0831 37.2898 77.3943 37.045L77.7215 36.7875L77.7303 31.6774C77.7391 26.3217 77.7247 26.1321 77.3191 26.1321C77.0967 26.1321 77.0663 26.0265 77.0663 25.2529C77.0663 24.4858 77.0327 24.365 76.7999 24.3042C76.5823 24.2466 76.5327 24.121 76.5311 23.6162C76.5287 22.7427 76.4119 22.3987 76.1175 22.3987C75.9367 22.3987 75.8663 22.3027 75.8663 22.0563C75.8663 21.6092 75.6407 21.1988 75.3951 21.1988C75.2551 21.1988 75.1999 21.0436 75.1999 20.6532C75.1999 20.2197 75.1455 20.0933 74.9335 20.0373C74.6911 19.9741 74.6087 19.8373 74.6503 19.5677C74.6583 19.5141 74.5183 19.4333 74.3391 19.3885C74.0695 19.3205 74.0071 19.2133 73.9735 18.7525C73.9399 18.295 73.8815 18.1918 73.6335 18.1566C73.4159 18.1254 73.3335 18.0246 73.3335 17.7894C73.3335 17.5542 73.2599 17.4654 73.0663 17.4654C72.8887 17.4654 72.7999 17.3766 72.7999 17.199C72.7999 17.0038 72.7111 16.9326 72.4663 16.9326C72.1655 16.9326 72.1335 16.8799 72.1335 16.3863C72.1335 15.9607 72.0767 15.8263 71.8775 15.7743C71.7375 15.7375 71.5863 15.5631 71.5423 15.3863C71.4927 15.1904 71.3647 15.0656 71.2119 15.0656C71.0567 15.0656 70.9303 14.94 70.8783 14.7328C70.8247 14.5176 70.7015 14.3992 70.5303 14.3992C70.3783 14.3992 70.2663 14.3096 70.2663 14.1864C70.2663 14.0696 70.1503 13.944 70.0071 13.9064C69.8647 13.8688 69.7295 13.7096 69.7071 13.5521C69.6815 13.3729 69.5543 13.2497 69.3663 13.2233C69.1807 13.1969 69.0663 13.0881 69.0663 12.9377C69.0663 12.6825 68.7295 12.4785 68.5215 12.6065C68.4543 12.6481 68.3999 12.5649 68.3999 12.4217C68.3999 12.1265 68.1551 11.9993 67.5887 11.9993C67.2831 11.9993 67.1999 11.9393 67.1999 11.7202C67.1999 11.5578 67.0935 11.413 66.9455 11.3746C66.8055 11.3378 66.6615 11.1938 66.6247 11.0538C66.5735 10.857 66.4375 10.7994 66.0215 10.7994C65.5671 10.7994 65.4783 10.7538 65.4423 10.4994C65.4151 10.3066 65.2927 10.1843 65.0999 10.1571C64.9103 10.1299 64.7999 10.0219 64.7999 9.86267C64.7999 9.67628 64.6711 9.58989 64.2999 9.52829C63.5855 9.4099 63.4399 9.3507 63.5239 9.21471C63.6191 9.06032 63.2863 8.93313 62.7887 8.93313C62.5751 8.93313 62.3999 8.87713 62.3999 8.80914C62.3999 8.48036 61.9495 8.26597 61.2567 8.26597C60.6223 8.26597 60.5335 8.23317 60.5335 7.99958C60.5335 7.7516 60.4447 7.7332 59.2663 7.7332C58.0047 7.7332 57.9999 7.7316 57.9999 7.39962V7.06604H52.6223C49.6647 7.06604 47.2047 7.10604 47.1551 7.15483Z" fill="#15B8F8"/>
<path fill-rule="evenodd" clip-rule="evenodd" d="M26.6663 21.3627C26.6663 21.5075 26.5527 21.6531 26.4119 21.6899C26.1607 21.7555 26.0055 22.0947 26.0015 22.5827C26.0007 22.7211 25.8895 22.9315 25.7543 23.0498C25.6199 23.1682 25.4719 23.4986 25.4263 23.7842C25.3807 24.0698 25.2215 24.4338 25.0719 24.593C24.9207 24.7537 24.7999 25.0633 24.7999 25.2889C24.7999 25.5129 24.6823 25.8457 24.5383 26.0289C24.3943 26.2121 24.2191 26.6144 24.1503 26.9232C24.0807 27.2312 23.9335 27.5848 23.8239 27.708C23.7135 27.8312 23.5815 28.2175 23.5295 28.5663C23.4783 28.9159 23.3231 29.3455 23.1847 29.5207C23.0463 29.6966 22.9335 30.023 22.9335 30.2462C22.9335 30.6782 22.6887 31.3318 22.5271 31.3318C22.4735 31.3318 22.3879 31.6165 22.3359 31.9645C22.2839 32.3133 22.1287 32.8453 21.9919 33.1484C21.8543 33.4508 21.7007 33.9604 21.6503 34.2812C21.6007 34.602 21.4487 35.0075 21.3135 35.1827C21.1775 35.3571 21.0663 35.6283 21.0663 35.7843C21.0663 35.9411 20.9479 36.2907 20.8023 36.5618C20.6567 36.833 20.4983 37.3122 20.4495 37.6266C20.4015 37.941 20.2503 38.3569 20.1143 38.5513C19.9783 38.7465 19.8663 39.0041 19.8663 39.1241C19.8663 39.2449 19.7167 39.6249 19.5335 39.9696C19.3503 40.3136 19.1999 40.688 19.1999 40.8C19.1999 40.9128 19.1095 41.1336 18.9991 41.2912C18.8887 41.4487 18.5815 41.9871 18.3167 42.4879C17.6647 43.7174 16.1071 45.5973 15.7399 45.5973C15.6631 45.5973 15.5999 45.6557 15.5999 45.7277C15.5999 45.9189 14.7887 46.6236 13.9775 47.1364C13.5863 47.3836 13.1903 47.6516 13.0967 47.7324C13.0039 47.8132 12.7335 47.946 12.4967 48.0267C12.2599 48.1067 11.9231 48.2835 11.7487 48.4187C11.5319 48.5859 11.2063 48.6635 10.7263 48.6635C9.81025 48.6635 9.59985 48.7547 9.59985 49.1531V49.4803L11.0335 49.4275C11.8215 49.3979 12.7063 49.2987 12.9999 49.2067C13.2935 49.1147 13.8447 48.9971 14.2263 48.9451C14.6071 48.8939 15.0271 48.7555 15.1591 48.6387C15.2919 48.5219 15.6015 48.3843 15.8479 48.3315C16.0935 48.2795 16.5071 48.0923 16.7663 47.9164C17.0255 47.7412 17.3127 47.5972 17.4039 47.5972C17.4959 47.5972 17.6063 47.506 17.6487 47.3948C17.6919 47.2844 17.8783 47.1356 18.0631 47.0652C18.2487 46.9948 18.3999 46.8828 18.3999 46.8164C18.3999 46.7508 18.5927 46.6164 18.8279 46.5188C19.0639 46.4212 19.5103 46.0837 19.8207 45.7693C20.1303 45.4549 20.4479 45.1973 20.5255 45.1973C20.6031 45.1973 20.6663 45.1093 20.6663 45.0021C20.6663 44.8941 20.8375 44.6094 21.0463 44.3686C21.5751 43.7582 22.3935 42.5695 22.6231 42.0767C22.7295 41.8503 22.9015 41.5143 23.0063 41.3312C23.1103 41.148 23.1967 40.8736 23.1983 40.7224C23.1991 40.5712 23.3183 40.3208 23.4639 40.1648C23.6087 40.0088 23.7679 39.6233 23.8167 39.3065C23.8663 38.9897 24.0175 38.5881 24.1535 38.4129C24.2887 38.2385 24.3999 37.901 24.3999 37.6642C24.3999 37.4274 24.5167 37.0858 24.6591 36.9042C24.8015 36.7234 24.9599 36.2595 25.0111 35.8739C25.0623 35.4883 25.2071 35.0739 25.3335 34.9523C25.4663 34.8235 25.5975 34.4244 25.6455 33.998C25.6935 33.5708 25.8151 33.2012 25.9351 33.1132C26.0527 33.0277 26.1783 32.6581 26.2255 32.2589C26.2711 31.8725 26.4095 31.4549 26.5335 31.331C26.6631 31.2022 26.7975 30.7742 26.8503 30.3246C26.9007 29.8942 27.0391 29.4359 27.1567 29.3055C27.2751 29.1743 27.4015 28.7623 27.4375 28.3895C27.4823 27.9216 27.5799 27.6632 27.7511 27.556C27.9071 27.4584 27.9999 27.2464 27.9999 26.9864C27.9999 26.4312 28.2407 25.7705 28.4759 25.6801C28.5967 25.6337 28.6663 25.4137 28.6663 25.0769C28.6663 24.7025 28.7431 24.4938 28.9271 24.365C29.1207 24.229 29.2103 23.9554 29.2783 23.2906L29.3703 22.3995L28.9583 22.3171C28.7319 22.2715 28.4447 22.1219 28.3191 21.9835C28.1943 21.8451 28.0143 21.7323 27.9199 21.7323C27.8255 21.7323 27.6703 21.6211 27.5743 21.4859C27.3119 21.1164 26.6663 21.0284 26.6663 21.3627Z" fill="#14659E"/>
<path fill-rule="evenodd" clip-rule="evenodd" d="M161.241 4.92052C161.205 5.06051 161.061 5.20531 160.921 5.2413C160.51 5.3493 160.522 50.6634 160.933 50.6634C161.111 50.6634 161.2 50.7522 161.2 50.9306C161.2 51.1897 161.289 51.1969 164.6 51.1969H168V38.3313C168 25.5537 168.001 25.4649 168.266 25.4649C168.462 25.4649 168.533 25.3761 168.533 25.1321V24.7985H171.257C173.865 24.7985 173.985 24.7873 174.066 24.5321C174.146 24.2802 174.269 24.265 176.26 24.265C178.257 24.265 178.373 24.2794 178.438 24.5321C178.501 24.7737 178.621 24.7985 179.711 24.7985C180.857 24.7985 180.917 24.8129 180.957 25.0985C180.993 25.3481 181.095 25.4057 181.566 25.4393C182.067 25.4761 182.133 25.5185 182.133 25.8065C182.133 26.0433 182.206 26.1321 182.4 26.1321C182.559 26.1321 182.673 26.2256 182.682 26.3648C182.69 26.4936 182.711 26.6584 182.729 26.732C182.745 26.8048 182.769 26.9704 182.78 27.0984C182.792 27.236 182.909 27.332 183.066 27.332C183.331 27.332 183.333 27.4264 183.35 38.4641C183.369 51.3729 183.325 49.9194 183.7 49.973C183.959 50.0098 184 50.0954 184 50.6066V51.1969H187.333H190.666V37.7314C190.666 24.4594 190.663 24.265 190.406 24.265C190.177 24.265 190.141 24.1562 190.106 23.365C190.07 22.5475 190.039 22.4611 189.766 22.4227C189.512 22.3867 189.466 22.2987 189.466 21.8435C189.466 21.4243 189.41 21.2923 189.207 21.2395C189.065 21.2019 188.929 21.0428 188.907 20.8852C188.879 20.6852 188.776 20.602 188.566 20.6092C188.338 20.6172 188.266 20.546 188.266 20.3092C188.266 20.0308 188.205 19.9988 187.676 19.9988C187.165 19.9988 187.079 19.958 187.042 19.6988C187.015 19.5084 186.893 19.3837 186.706 19.3573C186.545 19.3341 186.376 19.1989 186.33 19.0573C186.278 18.8925 186.119 18.7933 185.891 18.7837C185.694 18.7749 185.473 18.7541 185.4 18.7373C185.326 18.7205 184.989 18.6973 184.649 18.6861C184.153 18.6693 184.017 18.6133 183.961 18.3989C183.882 18.0965 171.6 17.9645 171.6 18.2653C171.6 18.3389 171.525 18.3837 171.433 18.3653C171.341 18.3469 171.281 18.4069 171.3 18.4989C171.333 18.6637 171.105 18.6837 169.2 18.6837C168.833 18.6837 168.413 18.6797 168.266 18.6741C168.003 18.6653 168 18.5741 168 11.6657V4.66614H164.654C161.474 4.66614 161.305 4.67894 161.241 4.92052ZM257.266 8.53311C257.221 8.6059 257.233 8.6667 257.292 8.6683C257.351 8.6691 257.309 8.72829 257.2 8.79949C257.089 8.87069 255.969 8.92988 254.707 8.93068C252.525 8.93308 252.405 8.94668 252.217 9.21466C252.081 9.41065 251.863 9.50265 251.509 9.51625C251.095 9.53225 250.992 9.58984 250.958 9.82583C250.933 10.0066 250.806 10.1322 250.625 10.1578C250.441 10.1842 250.317 10.3098 250.29 10.4994C250.263 10.6922 250.156 10.7994 249.99 10.7994C249.825 10.7994 249.733 10.8914 249.733 11.057C249.733 11.2225 249.626 11.3297 249.433 11.3569C249.241 11.3841 249.118 11.5065 249.09 11.6993C249.061 11.9073 248.957 11.9993 248.753 11.9993C248.545 11.9993 248.45 12.0849 248.435 12.2873C248.412 12.5889 248.154 12.828 247.973 12.7161C247.914 12.6801 247.866 12.9016 247.866 13.2096C247.866 13.6344 247.787 13.8424 247.533 14.0776C247.265 14.3264 247.2 14.5135 247.2 15.0447C247.2 15.5895 247.16 15.6999 246.966 15.6839C246.78 15.6695 246.725 15.7911 246.693 16.2926C246.663 16.7598 246.59 16.9382 246.409 16.9958C246.153 17.0774 246 17.583 246 18.3493C246 18.7573 245.951 18.8157 245.633 18.7909C245.476 18.7789 245.361 19.3301 245.346 20.1644C245.336 20.7764 245.28 20.9636 245.066 21.0964C244.842 21.2363 244.8 21.4075 244.8 22.1643C244.8 23.0362 244.789 23.065 244.466 23.065C244.143 23.065 244.133 23.0922 244.133 23.9986C244.133 24.8433 244.108 24.9321 243.866 24.9321C243.638 24.9321 243.597 25.0281 243.577 25.5985C243.565 25.9649 243.55 26.3704 243.545 26.4984C243.538 26.6264 243.413 26.764 243.266 26.804C243.029 26.868 242.996 27.0072 242.961 28.0375C242.925 29.1527 242.91 29.1983 242.613 29.1983C242.381 29.1983 242.302 29.2735 242.301 29.4982C242.29 30.9622 242.27 31.0646 242 31.0646C241.761 31.0646 241.733 31.1533 241.733 31.9101C241.733 32.6829 241.705 32.7685 241.399 32.9076C241.215 32.9908 241.073 33.106 241.081 33.162C241.209 33.95 241.039 35.3315 240.815 35.3315C240.557 35.3315 240.296 36.1219 240.464 36.3938C240.616 36.6402 240.377 37.1978 240.119 37.1978C239.898 37.1978 239.866 37.3026 239.866 38.0433C239.866 38.8009 239.834 38.9033 239.553 39.0305C239.278 39.1561 239.237 39.2737 239.215 40.0128C239.189 40.8816 239.151 40.9976 238.889 40.9976C238.785 40.9976 238.721 41.3839 238.695 42.1559C238.659 43.235 238.637 43.3166 238.361 43.3558C238.097 43.3926 238.062 43.4862 238.026 44.2446C237.993 44.9541 237.944 45.1037 237.726 45.1605C237.584 45.1981 237.457 45.3261 237.444 45.4461C237.395 45.9117 237.37 46.2108 237.352 46.5548C237.34 46.7836 237.238 46.9428 237.069 46.9964C236.924 47.0428 236.811 47.1212 236.818 47.1716C236.968 48.2235 236.773 49.4635 236.459 49.4635C235.973 49.4635 236.012 50.5706 236.5 50.6394C236.693 50.6666 236.8 50.7738 236.8 50.9394C236.8 51.1857 236.921 51.1969 239.533 51.1969C242.151 51.1969 242.266 51.1857 242.266 50.9378C242.266 50.729 242.375 50.6714 242.833 50.6378C243.34 50.601 243.405 50.5586 243.442 50.2306C243.465 50.025 243.566 49.8634 243.671 49.8634C243.949 49.8634 244.133 49.4211 244.133 48.7483C244.133 48.2283 244.173 48.1435 244.433 48.1067C244.703 48.0683 244.737 47.9795 244.773 47.2164C244.807 46.5068 244.856 46.358 245.073 46.3004C245.306 46.2396 245.333 46.1109 245.333 45.0485C245.333 43.8742 245.336 43.8638 245.666 43.8638C245.99 43.8638 246 43.8366 246 42.9398C246 42.0831 246.021 42.0127 246.3 41.9735C246.57 41.9351 246.604 41.8463 246.64 41.0832C246.673 40.3744 246.722 40.2248 246.94 40.168C247.163 40.1096 247.2 39.9808 247.2 39.2577C247.2 38.4865 247.225 38.4129 247.5 38.3737C247.748 38.3385 247.807 38.2353 247.84 37.7802L247.881 37.229L248.672 37.1714C249.248 37.1298 249.547 37.0354 249.773 36.8226L250.084 36.5314H256.96C263.534 36.5314 263.838 36.5418 263.9 36.7778C263.971 37.0498 264.569 37.1938 265.633 37.1962L266.266 37.1978V37.7978C266.266 38.3489 266.293 38.3977 266.6 38.3977C266.931 38.3977 266.933 38.4065 266.933 39.5976C266.933 40.6992 266.954 40.7976 267.193 40.7976C267.423 40.7976 267.459 40.9072 267.493 41.6975C267.529 42.5151 267.561 42.6015 267.833 42.6399C268.107 42.6791 268.294 43.9974 268.145 44.8421C268.134 44.9037 268.247 44.9853 268.396 45.0245C268.555 45.0661 268.672 45.2125 268.679 45.3797C268.693 45.7253 268.765 46.6924 268.785 46.8308C268.793 46.8852 268.92 46.9308 269.066 46.9308C269.308 46.9308 269.333 47.0196 269.333 47.8635C269.333 48.7707 269.343 48.7971 269.666 48.7971C269.973 48.7971 270 48.8459 270 49.3971C270 49.9082 270.039 49.997 270.266 49.997C270.462 49.997 270.533 50.0858 270.533 50.3306C270.533 50.597 270.6 50.6634 270.866 50.6634C271.111 50.6634 271.2 50.7346 271.2 50.9306C271.2 51.1897 271.289 51.1969 274.533 51.1969H277.866V49.997C277.866 48.8859 277.847 48.7971 277.6 48.7971C277.357 48.7971 277.333 48.7083 277.333 47.8084C277.333 46.646 277.26 46.3972 276.919 46.3972C276.695 46.3972 276.666 46.2908 276.666 45.4637C276.666 44.6197 276.641 44.5309 276.4 44.5309C276.166 44.5309 276.133 44.4422 276.133 43.8142C276.133 42.7671 275.999 42.2391 275.713 42.1639C275.503 42.1095 275.466 41.9623 275.466 41.1823C275.466 40.292 275.457 40.264 275.133 40.264C274.809 40.264 274.8 40.2376 274.8 39.3313C274.8 38.5753 274.749 38.3473 274.533 38.1313C274.318 37.9161 274.266 37.6866 274.266 36.945C274.266 36.0379 274.089 35.7107 273.721 35.9387C273.653 35.9811 273.6 35.6035 273.6 35.0723C273.6 34.2204 273.575 34.1316 273.333 34.1316C273.09 34.1316 273.065 34.0396 273.057 33.098C273.048 32.0805 272.948 31.5685 272.761 31.5885C272.709 31.5933 272.609 31.5981 272.539 31.5981C272.469 31.5981 272.394 31.1933 272.373 30.6982C272.346 30.0998 272.277 29.7926 272.166 29.7814C272.075 29.7726 271.94 29.7574 271.866 29.7486C271.789 29.7382 271.733 29.2319 271.733 28.5319C271.733 27.4208 271.713 27.332 271.466 27.332C271.233 27.332 271.2 27.2432 271.2 26.6096C271.2 25.7153 271.109 25.4649 270.785 25.4649C270.557 25.4649 270.533 25.3537 270.533 24.265C270.533 23.1634 270.512 23.065 270.273 23.065C270.044 23.065 270.007 22.9562 269.973 22.1651C269.937 21.3475 269.905 21.2611 269.633 21.2227C269.357 21.1835 269.333 21.1108 269.331 20.2892C269.329 19.1445 269.233 18.7989 268.917 18.7989C268.697 18.7989 268.666 18.6917 268.666 17.9197C268.666 17.1526 268.633 17.0318 268.4 16.971C268.176 16.9126 268.133 16.7894 268.133 16.1942C268.133 15.3159 268.041 15.0655 267.719 15.0655C267.509 15.0655 267.466 14.9655 267.466 14.4656C267.466 13.96 267.425 13.8656 267.207 13.8656C266.993 13.8656 266.941 13.7568 266.907 13.2328C266.882 12.848 266.801 12.5929 266.7 12.5825C266.608 12.5737 266.477 12.5585 266.408 12.5497C266.338 12.5401 266.263 12.2777 266.241 11.9657C266.207 11.4945 266.149 11.3921 265.9 11.3569C265.707 11.3297 265.6 11.2225 265.6 11.057C265.6 10.8882 265.508 10.7994 265.333 10.7994C265.137 10.7994 265.066 10.7106 265.066 10.4658C265.066 10.2018 264.999 10.133 264.742 10.133C264.509 10.133 264.406 10.0498 264.376 9.83703C264.342 9.60104 264.238 9.53625 263.866 9.51785C263.217 9.48585 263.238 9.49545 263.161 9.19947C263.095 8.94508 262.979 8.93308 260.628 8.93308C258.277 8.93308 258.161 8.92028 258.094 8.6659C258.02 8.38191 257.42 8.28512 257.266 8.53311ZM285.309 9.23146C285.285 9.39705 285.192 9.54025 285.1 9.54984C285.008 9.55864 284.873 9.57384 284.8 9.58264C284.712 9.59384 284.666 16.6326 284.666 30.3982V51.1969H288.066C291.377 51.1969 291.466 51.1897 291.466 50.9306C291.466 50.7522 291.555 50.6634 291.733 50.6634C291.997 50.6634 292 50.5746 292 42.9974V35.3315H297.866C303.645 35.3315 303.733 35.3355 303.733 35.5979C303.733 35.7931 303.822 35.8643 304.066 35.8643C304.333 35.8643 304.4 35.9315 304.4 36.1978C304.4 36.4426 304.471 36.5314 304.666 36.5314C304.893 36.5314 304.933 36.6202 304.933 37.1314C304.933 37.6826 304.961 37.7314 305.266 37.7314C305.589 37.7314 305.6 37.7618 305.6 38.6105C305.6 39.3769 305.634 39.4984 305.866 39.5592C306.013 39.5976 306.141 39.7416 306.15 39.88C306.159 40.0176 306.174 40.2656 306.183 40.4312C306.194 40.6344 306.297 40.7448 306.5 40.7736C306.778 40.8128 306.8 40.8832 306.8 41.7399C306.8 42.6367 306.809 42.6639 307.133 42.6639C307.455 42.6639 307.466 42.6943 307.466 43.543C307.466 44.3102 307.501 44.431 307.733 44.4917C307.949 44.5485 308 44.6741 308 45.1461C308 45.6805 308.029 45.7309 308.333 45.7309C308.657 45.7309 308.666 45.7573 308.666 46.6636C308.666 47.5084 308.692 47.5972 308.933 47.5972C309.105 47.5972 309.205 47.6916 309.217 47.8635C309.225 48.0107 309.241 48.2651 309.25 48.4307C309.261 48.6315 309.363 48.7443 309.559 48.7723C309.799 48.8059 309.859 48.9139 309.893 49.3723C309.926 49.8346 309.985 49.9378 310.233 49.973C310.45 50.0034 310.533 50.105 310.533 50.3394C310.533 50.6346 310.587 50.6634 311.133 50.6634C311.646 50.6634 311.733 50.7026 311.733 50.933C311.733 51.1961 311.801 51.2009 314.766 51.1657L317.8 51.1306L317.839 50.233C317.881 49.2955 317.726 48.7971 317.395 48.7971C317.253 48.7971 317.2 48.6355 317.2 48.1971C317.2 47.686 317.161 47.5972 316.933 47.5972C316.699 47.5972 316.666 47.5084 316.666 46.8748C316.666 45.9805 316.576 45.7309 316.253 45.7309C316.042 45.7309 316 45.6301 316 45.1309C316 44.5797 315.973 44.5309 315.666 44.5309C315.345 44.5309 315.333 44.5005 315.333 43.6518C315.333 42.891 315.298 42.7631 315.073 42.7047C314.855 42.6479 314.805 42.4991 314.773 41.8167C314.739 41.1152 314.69 40.9784 314.433 40.8656C314.197 40.7624 314.133 40.6256 314.133 40.22C314.133 39.8184 314.075 39.6904 313.866 39.636C313.642 39.5776 313.6 39.4545 313.6 38.8601C313.6 37.9849 313.508 37.7314 313.192 37.7314C312.983 37.7314 312.94 37.605 312.906 36.8978C312.87 36.149 312.836 36.0603 312.566 36.0219C312.289 35.9827 312.266 35.9123 312.266 35.0555C312.266 34.2204 312.241 34.1316 312 34.1316C311.769 34.1316 311.733 34.0428 311.733 33.4804C311.733 32.9412 311.779 32.8172 312 32.7597C312.212 32.7037 312.266 32.5773 312.266 32.1437C312.266 31.6509 312.298 31.5981 312.6 31.5981C312.905 31.5981 312.933 31.5485 312.933 31.0078C312.933 30.4966 312.973 30.411 313.233 30.3742C313.426 30.347 313.549 30.2246 313.576 30.0318C313.603 29.839 313.71 29.7318 313.876 29.7318C314.092 29.7318 314.133 29.6358 314.133 29.1319C314.133 28.5807 314.161 28.5319 314.466 28.5319C314.771 28.5319 314.8 28.4815 314.8 27.9471C314.8 27.4752 314.851 27.3496 315.066 27.2928C315.298 27.2328 315.333 27.1112 315.333 26.376C315.333 25.6249 315.367 25.5137 315.633 25.3969L315.933 25.2649V20.1988V15.1327L315.633 15.0895C315.373 15.0527 315.333 14.9679 315.333 14.4568C315.333 13.96 315.292 13.8656 315.073 13.8656C314.859 13.8656 314.808 13.7568 314.773 13.2328C314.749 12.848 314.668 12.5929 314.566 12.5825C314.475 12.5737 314.34 12.5585 314.266 12.5497C314.193 12.5401 314.133 12.4129 314.133 12.2657C314.133 12.0913 314.045 11.9993 313.876 11.9993C313.71 11.9993 313.603 11.8921 313.576 11.6993C313.549 11.5065 313.426 11.3841 313.233 11.3569C313.041 11.3297 312.933 11.2225 312.933 11.057C312.933 10.873 312.841 10.7994 312.609 10.7994C312.374 10.7994 312.273 10.7162 312.242 10.4994C312.207 10.2498 312.105 10.1922 311.633 10.1586C311.187 10.1258 311.066 10.065 311.066 9.87303C311.066 9.54025 310.812 9.46585 309.665 9.46585C308.805 9.46585 308.674 9.43385 308.601 9.20267C308.518 8.94188 308.357 8.93868 296.934 8.93388L285.352 8.92988L285.309 9.23146ZM257.733 15.3263C257.733 15.5551 257.842 15.5919 258.633 15.6263C259.431 15.6615 259.533 15.6959 259.533 15.9327C259.533 16.1071 259.637 16.2134 259.833 16.2414C260.032 16.2694 260.133 16.3758 260.133 16.5542C260.133 16.7118 260.244 16.8526 260.4 16.8934C260.546 16.9318 260.673 17.0318 260.68 17.1142C260.687 17.1974 260.705 17.3854 260.721 17.5326C260.737 17.679 260.761 17.9941 260.775 18.2325C260.794 18.5653 260.861 18.6653 261.061 18.6653C261.289 18.6653 261.325 18.7749 261.361 19.5652C261.396 20.3836 261.427 20.4692 261.7 20.5084C261.978 20.5476 262 20.618 262 21.4747C262 22.3099 262.025 22.3987 262.266 22.3987C262.501 22.3987 262.535 22.4923 262.548 23.165C262.578 24.7233 262.58 24.7289 262.9 24.7745C263.176 24.8137 263.2 24.8865 263.2 25.6889C263.2 26.4592 263.238 26.5904 263.533 26.8224C263.836 27.06 263.866 27.176 263.866 28.0871C263.866 28.9775 263.897 29.0975 264.133 29.1599C264.349 29.2159 264.4 29.3415 264.4 29.8134V30.3982H257.381H250.364L250.049 30.0582C249.663 29.6422 249.649 29.3863 250 29.1983C250.236 29.0719 250.266 28.9191 250.266 27.8599C250.266 26.6744 250.269 26.6648 250.6 26.6648C250.924 26.6648 250.933 26.6384 250.933 25.7321C250.933 24.8873 250.958 24.7985 251.2 24.7985C251.439 24.7985 251.466 24.7097 251.466 23.929C251.466 23.1234 251.491 23.049 251.8 22.9322C252.119 22.8106 252.133 22.7579 252.133 21.6779C252.133 20.6108 252.149 20.5484 252.433 20.5084C252.705 20.4692 252.737 20.3836 252.773 19.5652C252.807 18.7749 252.844 18.6653 253.073 18.6653C253.293 18.6653 253.333 18.5717 253.333 18.0653C253.333 17.5142 253.361 17.4654 253.666 17.4654C253.973 17.4654 254 17.4166 254 16.8654C254 16.3542 254.039 16.2654 254.266 16.2654C254.462 16.2654 254.533 16.1766 254.533 15.9327C254.533 15.6071 254.556 15.5991 255.522 15.5991C256.628 15.5991 256.933 15.5239 256.933 15.2519C256.933 15.1343 257.08 15.0655 257.333 15.0655C257.641 15.0655 257.733 15.1255 257.733 15.3263ZM304.666 15.3327C304.882 15.5479 305.111 15.5991 305.857 15.5991C306.714 15.5991 306.785 15.6207 306.824 15.8991C306.851 16.0919 306.973 16.2142 307.166 16.2414C307.384 16.2726 307.466 16.3734 307.466 16.6086C307.466 16.8438 307.54 16.9326 307.733 16.9326C307.961 16.9326 308 17.0214 308 17.539C308 18.0141 308.072 18.2117 308.333 18.4541L308.666 18.7629V21.5139V24.265H308.333C308.028 24.265 308 24.3146 308 24.8561C308 25.3297 307.947 25.4641 307.733 25.5321C307.521 25.5993 307.466 25.7337 307.466 26.1904C307.466 26.7008 307.433 26.7616 307.166 26.748C306.906 26.7336 306.857 26.812 306.8 27.332L306.733 27.9319L306.133 27.9983C305.803 28.0351 305.548 28.1103 305.566 28.1647C305.585 28.2199 305.6 28.3247 305.6 28.3983C305.6 28.4855 303.245 28.5319 298.8 28.5319H292V21.7987V15.0655H298.2C304.222 15.0655 304.408 15.0735 304.666 15.3327ZM104.515 17.5246C104.469 17.5734 104.259 17.627 104.049 17.6454C103.781 17.6678 103.672 17.7462 103.685 17.9045C103.701 18.1109 103.492 18.1325 101.444 18.1325C100.201 18.1325 99.2134 18.1797 99.2502 18.2389C99.4046 18.4893 99.0734 18.6533 98.3302 18.6949C97.663 18.7317 97.5118 18.7861 97.4046 19.0293C97.3078 19.2461 97.139 19.3301 96.7374 19.3597C96.2958 19.3917 96.1918 19.4525 96.1574 19.6988C96.1206 19.958 96.035 19.9988 95.5238 19.9988C95.0222 19.9988 94.9334 20.0388 94.9334 20.2652C94.9334 20.4612 94.8446 20.5324 94.5998 20.5324C94.3334 20.5324 94.2662 20.5988 94.2662 20.8652C94.2662 21.11 94.195 21.1987 93.9998 21.1987C93.8222 21.1987 93.7334 21.2875 93.7334 21.4651C93.7334 21.6123 93.6734 21.7395 93.5998 21.7491C93.5262 21.7579 93.3918 21.7731 93.2998 21.7819C93.2078 21.7915 93.1142 21.9299 93.0918 22.0907C93.0654 22.2723 92.9398 22.3979 92.7582 22.4235C92.5734 22.4499 92.451 22.5755 92.4238 22.7651C92.3854 23.0362 92.2542 23.1266 91.9662 23.081C91.9118 23.0722 91.8734 23.1106 91.8822 23.165C91.9862 23.8258 91.847 24.265 91.5334 24.265C91.2262 24.265 91.1998 24.313 91.1998 24.8769C91.1998 25.3369 91.1302 25.5449 90.9206 25.7145C90.7094 25.8857 90.6374 26.1081 90.6206 26.6312C90.603 27.2112 90.5574 27.328 90.3334 27.36C90.0838 27.396 90.0638 27.5144 90.0294 29.2015C89.9942 30.9198 89.979 31.011 89.6966 31.135C89.3998 31.2645 89.3998 31.2669 89.3782 35.3091L89.3574 39.3537L89.6782 39.6328C89.9854 39.9 89.9998 39.9856 89.9998 41.5455C89.9998 43.0622 90.019 43.1854 90.2662 43.2638C90.4134 43.311 90.5414 43.4198 90.551 43.5062C90.5686 43.6598 90.5894 43.939 90.6414 44.6973C90.6598 44.9629 90.7382 45.0637 90.9262 45.0637C91.1406 45.0637 91.1918 45.1725 91.2262 45.6973C91.2606 46.238 91.3102 46.3364 91.5662 46.3732C91.8262 46.41 91.8662 46.4956 91.8662 47.0068C91.8662 47.5084 91.9062 47.5972 92.1334 47.5972C92.311 47.5972 92.3998 47.686 92.3998 47.8635C92.3998 48.0595 92.4886 48.1307 92.7334 48.1307C92.9998 48.1307 93.0662 48.1971 93.0662 48.4635C93.0662 48.7307 93.1334 48.7971 93.3998 48.7971C93.6662 48.7971 93.7334 48.8635 93.7334 49.1307C93.7334 49.3971 93.7998 49.4635 94.0662 49.4635C94.2622 49.4635 94.3998 49.5402 94.3998 49.6498C94.3998 49.865 94.6838 49.997 95.147 49.997C95.3718 49.997 95.5126 50.1002 95.5998 50.3306C95.7158 50.6346 95.7958 50.6634 96.5302 50.6634C97.2446 50.6634 97.3334 50.693 97.3334 50.9306C97.3334 51.1777 97.4222 51.1969 98.5902 51.1969C99.7926 51.1969 99.8494 51.2097 99.8902 51.4969L99.9334 51.7969L106.3 51.8313L112.666 51.8665V51.5313C112.666 51.1977 112.669 51.1969 113.933 51.1969C115.111 51.1969 115.2 51.1785 115.2 50.9306C115.2 50.7034 115.289 50.6634 115.8 50.6634C116.351 50.6634 116.4 50.6362 116.4 50.3306C116.4 50.0634 116.466 49.997 116.733 49.997C116.971 49.997 117.066 49.925 117.066 49.7458C117.066 49.6066 117.185 49.4635 117.333 49.4251C117.497 49.3819 117.6 49.2435 117.6 49.0635C117.6 48.8899 117.701 48.7459 117.852 48.7059C118.118 48.6363 118.266 48.1627 118.266 47.3804C118.266 47.0196 118.319 46.9308 118.533 46.9308C118.772 46.9308 118.8 46.842 118.8 46.0733C118.8 45.3325 118.763 45.2037 118.533 45.1309C118.386 45.0837 118.266 44.9301 118.266 44.7885C118.266 44.5485 118.16 44.5309 116.725 44.5309C115.877 44.5309 115.213 44.5781 115.25 44.6373C115.471 44.9949 115.024 45.0605 111.959 45.1205C108.721 45.1845 108.533 45.2077 108.533 45.5389C108.533 45.8765 105.768 45.8101 105.398 45.4629C105.119 45.2005 104.136 45.0981 101.633 45.0701C101.157 45.0653 101.066 45.0213 101.066 44.7973C101.066 44.5709 100.977 44.5309 100.481 44.5309C99.9678 44.5309 99.8854 44.4893 99.8118 44.1974C99.7382 43.9038 99.6566 43.8638 99.1302 43.8638H98.5334V43.2638C98.5334 42.9342 98.4878 42.6711 98.4334 42.6799C98.1158 42.7303 97.9998 42.6215 97.9998 42.2751C97.9998 41.7127 97.8726 41.4639 97.5854 41.4639C97.3542 41.4639 97.3326 41.3487 97.331 40.0976C97.3294 38.7289 97.2254 38.2841 96.9478 38.4553C96.8518 38.5145 96.7998 38.4041 96.7998 38.1393C96.7998 37.8201 96.8582 37.7314 97.0662 37.7314C97.2438 37.7314 97.3334 37.6426 97.3334 37.465C97.3334 37.2018 97.4438 37.1986 108.366 37.165L119.4 37.1314L119.442 36.8314C119.469 36.645 119.577 36.5314 119.728 36.5314C120.107 36.5314 120.133 36.3074 120.133 33.0708C120.133 29.6486 120.085 29.1983 119.717 29.1983C119.485 29.1983 119.466 29.0711 119.466 27.4816C119.466 25.7641 119.338 25.2817 118.945 25.5249C118.862 25.5761 118.797 25.2401 118.773 24.6361C118.739 23.8098 118.7 23.6706 118.507 23.7026C118.325 23.733 118.273 23.6154 118.241 23.1026C118.205 22.5579 118.156 22.4595 117.9 22.4227C117.641 22.3859 117.6 22.3003 117.6 21.7891C117.6 21.2987 117.557 21.1987 117.348 21.1987C117.19 21.1987 117.064 21.074 117.012 20.866C116.966 20.6836 116.885 20.5404 116.831 20.5484C116.537 20.594 116.4 20.5036 116.4 20.2652C116.4 20.0388 116.311 19.9988 115.809 19.9988C115.298 19.9988 115.213 19.958 115.176 19.6988C115.141 19.4493 115.037 19.3917 114.566 19.3581C114.193 19.3309 114 19.2541 114 19.1325C114 18.8685 113.746 18.7469 113.134 18.7181C112.841 18.7045 112.501 18.6869 112.382 18.6789C112.262 18.6717 112.133 18.5453 112.094 18.3989C112.029 18.1469 111.913 18.1325 109.933 18.1325C107.953 18.1325 107.83 18.1173 107.609 17.8445C107.376 17.5558 104.747 17.2838 104.515 17.5246ZM142.462 17.5926C142.313 17.6534 142.11 17.799 142.012 17.9173C141.859 18.1013 141.464 18.1325 139.25 18.1325C136.755 18.1325 136.666 18.1413 136.666 18.3989C136.666 18.6325 136.573 18.6677 135.9 18.6813C135.478 18.6893 135.073 18.7101 135 18.7277C134.926 18.7445 134.732 18.7677 134.566 18.7789C134.365 18.7925 134.266 18.8845 134.266 19.0581C134.266 19.2733 134.157 19.3245 133.633 19.3581C133.072 19.3941 133.001 19.4325 133.016 19.6988C133.029 19.9524 132.964 19.9988 132.593 19.9988C132.061 19.9988 131.71 20.1204 131.805 20.2724C131.889 20.41 131.402 20.69 131.284 20.5716C131.237 20.5252 131.2 20.6476 131.2 20.8436C131.2 21.1339 131.139 21.1987 130.866 21.1987C130.623 21.1987 130.533 21.2699 130.533 21.4627C130.533 21.6347 130.414 21.7571 130.193 21.8123C130.007 21.8587 129.885 21.9283 129.922 21.9659C130.035 22.0779 129.729 22.5459 129.597 22.4635C129.476 22.3891 129.377 22.6827 129.304 23.3322C129.283 23.5154 129.192 23.673 129.1 23.6818C129.008 23.6914 128.873 23.7058 128.8 23.7154C128.726 23.7242 128.666 23.9682 128.666 24.2562C128.666 24.6585 128.606 24.7993 128.407 24.8633C128.134 24.9497 127.929 25.3753 128.058 25.5849C128.181 25.7841 128.001 26.1001 127.724 26.1728C127.502 26.2304 127.466 26.3624 127.466 27.1192C127.466 27.8927 127.436 27.9983 127.214 27.9983C126.869 27.9983 126.846 28.1071 126.812 29.9246C126.782 31.5277 126.741 31.7933 126.538 31.6677C126.309 31.5261 126.266 32.1173 126.266 35.4755C126.266 38.8425 126.273 38.9313 126.533 38.9313C126.783 38.9313 126.801 39.0241 126.811 40.4312C126.828 42.6199 126.854 42.8111 127.17 43.067C127.394 43.2486 127.461 43.471 127.493 44.1414C127.527 44.8549 127.575 44.9973 127.8 45.0581C127.946 45.0981 128.072 45.2357 128.077 45.3637C128.114 46.1389 128.152 46.2516 128.4 46.3308C128.546 46.3772 128.666 46.5308 128.666 46.6732C128.666 46.8588 128.759 46.9308 129 46.9308C129.306 46.9308 129.333 46.9796 129.333 47.5308C129.333 48.0731 129.364 48.1307 129.649 48.1307C129.893 48.1307 129.961 48.1995 129.949 48.4307C129.937 48.6459 130.017 48.7427 130.233 48.7731C130.419 48.7995 130.533 48.9083 130.533 49.0587C130.533 49.3371 130.786 49.4635 131.344 49.4635C131.645 49.4635 131.733 49.5242 131.733 49.7306C131.733 49.9226 131.822 49.997 132.052 49.997C132.281 49.997 132.394 50.0914 132.454 50.3306C132.533 50.6426 132.592 50.6634 133.402 50.6634C134.177 50.6634 134.266 50.6914 134.266 50.9306C134.266 51.1769 134.355 51.1969 135.452 51.1969C136.607 51.1969 136.64 51.2057 136.721 51.5313L136.805 51.8665L142.836 51.8313L148.866 51.7969L148.909 51.4969C148.949 51.2113 149.009 51.1969 150.155 51.1969C151.246 51.1969 151.365 51.1721 151.428 50.9306C151.466 50.7826 151.609 50.6634 151.749 50.6634C151.928 50.6634 152 50.5682 152 50.3306C152 50.0634 152.066 49.997 152.333 49.997C152.577 49.997 152.666 49.9258 152.666 49.7306C152.666 49.5522 152.755 49.4635 152.933 49.4635C153.165 49.4635 153.2 49.3747 153.2 48.7971C153.2 48.1747 153.222 48.1307 153.533 48.1307C153.838 48.1307 153.866 48.0803 153.866 47.546C153.866 47.074 153.917 46.9484 154.133 46.8916C154.51 46.7932 154.516 45.9189 154.141 45.7997C153.948 45.7381 153.871 45.5733 153.841 45.1573L153.8 44.5973L152.633 44.5589C151.535 44.5229 151.466 44.5365 151.466 44.7925C151.466 45.0221 151.38 45.0645 150.9 45.0685C149.968 45.0757 144.614 45.2037 144.415 45.2237C144.313 45.2333 144.199 45.3597 144.161 45.5029C144.095 45.7573 144.088 45.7573 143.879 45.4805C143.677 45.2133 143.521 45.1925 141.265 45.1349C139.946 45.1013 138.796 45.0717 138.709 45.0685C138.622 45.0661 138.513 44.9437 138.466 44.7973C138.393 44.5669 138.265 44.5309 137.524 44.5309C136.698 44.5309 136.666 44.5181 136.666 44.1974C136.666 43.931 136.6 43.8638 136.333 43.8638C136.089 43.8638 136 43.7926 136 43.5974C136 43.423 135.911 43.331 135.742 43.331C135.577 43.331 135.469 43.2238 135.442 43.031C135.415 42.8382 135.293 42.7159 135.1 42.6879C134.841 42.6511 134.8 42.5663 134.8 42.0551C134.8 41.5527 134.76 41.4639 134.533 41.4639C134.289 41.4639 134.266 41.3751 134.266 40.4072C134.266 39.3785 134.102 38.9313 133.724 38.9313C133.65 38.9313 133.6 37.4322 133.6 35.2643C133.6 31.7557 133.611 31.5981 133.853 31.5981C134.194 31.5981 134.266 31.3493 134.266 30.175C134.266 29.2855 134.297 29.1655 134.533 29.1039C134.744 29.0487 134.8 28.9215 134.8 28.4983C134.8 28.0975 134.884 27.8839 135.133 27.6536C135.321 27.48 135.466 27.196 135.466 27.0048C135.466 26.7536 135.537 26.6648 135.733 26.6648C135.908 26.6648 136 26.576 136 26.408C136 26.2424 136.107 26.1353 136.3 26.1081C136.493 26.0801 136.615 25.9577 136.642 25.7649C136.679 25.5057 136.765 25.4649 137.276 25.4649C137.817 25.4649 137.866 25.4369 137.866 25.1321C137.866 24.8009 137.876 24.7985 139.057 24.7985C140.131 24.7985 140.257 24.7721 140.333 24.5321C140.416 24.273 140.535 24.265 144.666 24.265C148.798 24.265 148.917 24.273 149 24.5321C149.081 24.7857 149.201 24.7985 151.476 24.7985H153.866V24.1986C153.866 23.6946 153.908 23.5986 154.124 23.5986C154.266 23.5986 154.418 23.4834 154.463 23.3434C154.552 23.0634 154.425 22.4011 154.286 22.4187C153.921 22.4667 153.866 22.3523 153.866 21.5323C153.866 21.0556 153.806 20.6564 153.733 20.6452C153.66 20.6348 153.525 20.6196 153.433 20.6124C153.337 20.6044 153.238 20.3428 153.2 19.9988C153.162 19.6572 153.061 19.3917 152.966 19.3821C152.875 19.3733 152.74 19.3581 152.666 19.3493C152.593 19.3397 152.533 19.2125 152.533 19.0653C152.533 18.8741 152.439 18.7941 152.2 18.7821C152.017 18.7733 151.806 18.7509 151.733 18.7325C151.66 18.7141 151.42 18.6917 151.2 18.6821C150.894 18.6693 150.8 18.6029 150.8 18.3989C150.8 18.1405 150.711 18.1325 148.015 18.1325C145.419 18.1325 145.226 18.1157 145.166 17.8861C145.065 17.5006 143.191 17.2966 142.462 17.5926ZM214.618 17.563C214.384 17.5974 214.21 17.719 214.169 17.8757C214.106 18.1157 213.96 18.1325 211.851 18.1325C209.726 18.1325 209.584 18.1485 209.313 18.4181C209.105 18.6269 208.842 18.7117 208.347 18.7293C207.357 18.7661 207.333 18.7741 207.333 19.0653C207.333 19.2925 207.245 19.3325 206.733 19.3325C206.182 19.3325 206.133 19.3597 206.133 19.6652C206.133 19.9772 206.089 19.9988 205.451 19.9988C204.844 19.9988 204.776 20.0268 204.836 20.2548C204.885 20.442 204.817 20.5324 204.585 20.5908C204.383 20.6412 204.266 20.7676 204.266 20.9348C204.266 21.1539 204.176 21.1987 203.729 21.1987C203.162 21.1987 203.081 21.2827 203.012 21.9467C202.983 22.2219 202.89 22.3443 202.685 22.3747C202.486 22.4043 202.4 22.5123 202.4 22.7323C202.4 22.957 202.314 23.0586 202.1 23.089C201.85 23.125 201.793 23.2274 201.759 23.6986C201.725 24.157 201.668 24.265 201.459 24.265C201.243 24.265 201.2 24.3594 201.2 24.8337C201.2 25.2953 201.144 25.4265 200.9 25.5337C200.642 25.6465 200.594 25.7825 200.56 26.4984C200.525 27.2224 200.486 27.332 200.26 27.332C199.955 27.332 199.979 27.236 199.924 28.6615C199.889 29.5638 199.832 29.827 199.641 29.967C199.24 30.2598 199.197 40.7976 199.596 40.7976C199.841 40.7976 199.869 40.8872 199.885 41.7639C199.896 42.2959 199.916 42.851 199.929 42.9974C199.943 43.1438 199.965 43.399 199.977 43.5638C199.993 43.7678 200.085 43.8638 200.266 43.8638C200.493 43.8638 200.536 43.9582 200.549 44.4973C200.573 45.4909 200.582 45.5229 200.9 45.6621C201.169 45.7805 201.303 46.2748 201.216 46.8308C201.207 46.8852 201.316 46.9308 201.457 46.9308C201.623 46.9308 201.73 47.038 201.757 47.2308C201.785 47.4236 201.907 47.546 202.1 47.5732C202.293 47.6004 202.4 47.7076 202.4 47.8731C202.4 48.0603 202.493 48.1307 202.741 48.1307C202.929 48.1307 203.049 48.1851 203.007 48.2515C202.879 48.4595 203.083 48.7971 203.338 48.7971C203.489 48.7971 203.597 48.9115 203.624 49.0971C203.651 49.2899 203.773 49.4123 203.966 49.4395C204.159 49.4667 204.266 49.5738 204.266 49.7394C204.266 49.9554 204.362 49.997 204.866 49.997C205.417 49.997 205.466 50.0242 205.466 50.3306C205.466 50.6362 205.515 50.6634 206.066 50.6634C206.577 50.6634 206.666 50.7034 206.666 50.9306C206.666 51.1713 206.755 51.1969 207.6 51.1969C208.506 51.1969 208.533 51.2065 208.533 51.5305V51.8633H210.4C212.158 51.8633 212.284 51.8809 212.566 52.1633C213.121 52.7193 218.266 52.6801 218.266 52.1209C218.266 51.8793 218.378 51.8633 220.133 51.8633H222V51.5305C222 51.2009 222.013 51.1969 223.145 51.1969C224.169 51.1969 224.299 51.1689 224.36 50.937C224.413 50.7346 224.565 50.6682 225.047 50.637C225.573 50.6034 225.673 50.5522 225.709 50.297C225.739 50.085 225.841 49.997 226.06 49.997C226.257 49.997 226.394 49.9002 226.438 49.7306C226.485 49.553 226.621 49.4635 226.843 49.4635C227.353 49.4635 227.6 49.3283 227.6 49.0499C227.6 48.8859 227.693 48.7971 227.866 48.7971C228.062 48.7971 228.133 48.7083 228.133 48.4635C228.133 48.1971 228.2 48.1307 228.466 48.1307C228.773 48.1307 228.8 48.0819 228.8 47.5308C228.8 46.9796 228.827 46.9308 229.133 46.9308C229.439 46.9308 229.466 46.882 229.466 46.3308C229.466 45.8197 229.506 45.7309 229.733 45.7309C229.96 45.7309 230 45.6421 230 45.1397C230 44.6285 230.041 44.5437 230.3 44.5069C230.573 44.4678 230.604 44.3822 230.639 43.5638C230.674 42.7735 230.71 42.6639 230.939 42.6639C231.18 42.6639 231.2 42.5655 231.2 41.3975C231.2 40.244 231.222 40.1312 231.453 40.1312C231.855 40.1312 231.866 39.9752 231.866 34.454V29.1983H231.533H231.2V27.6648C231.2 26.2328 231.183 26.1321 230.939 26.1321C230.71 26.1321 230.674 26.0225 230.639 25.2321C230.604 24.4138 230.573 24.3282 230.3 24.289C230.041 24.2522 230 24.1674 230 23.6562C230 23.1538 229.96 23.065 229.733 23.065C229.546 23.065 229.466 22.9754 229.465 22.7651C229.461 22.2011 229.307 21.8651 229.051 21.8651C228.872 21.8651 228.8 21.7699 228.8 21.5323C228.8 21.2651 228.733 21.1987 228.466 21.1987C228.2 21.1987 228.133 21.1324 228.133 20.8652C228.133 20.682 228.088 20.5396 228.033 20.5476C227.758 20.5916 227.61 20.5076 227.533 20.2652C227.468 20.0596 227.331 19.9988 226.933 19.9988C226.501 19.9988 226.412 19.9508 226.376 19.6988C226.339 19.4429 226.241 19.3933 225.7 19.3581C225.175 19.3245 225.066 19.2733 225.066 19.0581C225.066 18.9157 225.021 18.7965 224.966 18.7933C223.845 18.7317 223.234 18.6029 223.028 18.3853C222.812 18.1565 222.575 18.1325 220.537 18.1325C218.455 18.1325 218.278 18.1133 218.205 17.8829C218.089 17.5166 216.109 17.3398 214.618 17.563ZM107.866 23.9322C107.866 24.2554 107.894 24.265 108.785 24.265C109.59 24.265 109.71 24.2978 109.772 24.5321C109.827 24.7441 109.953 24.7985 110.387 24.7985C110.881 24.7985 110.933 24.8305 110.933 25.1321C110.933 25.3761 111.005 25.4649 111.2 25.4649C111.405 25.4649 111.466 25.5537 111.466 25.8545C111.466 26.4168 111.593 26.6648 111.881 26.6648C112.107 26.6648 112.133 26.7744 112.133 27.732C112.133 28.3935 112.187 28.7983 112.274 28.7983C112.352 28.7983 112.378 28.8583 112.333 28.9319C112.288 29.0047 112.345 29.0647 112.458 29.0647C112.629 29.0647 112.666 29.2479 112.666 30.0646C112.666 30.9758 112.643 31.0646 112.4 31.0646C112.222 31.0646 112.133 31.1533 112.133 31.3317C112.133 31.5949 112.045 31.5981 104.733 31.5981H97.3334V29.7318V27.8647H97.6662C97.9726 27.8647 97.9998 27.8159 97.9998 27.2648C97.9998 26.7536 98.039 26.6648 98.2662 26.6648C98.4622 26.6648 98.5334 26.576 98.5334 26.332C98.5334 26.0825 98.6038 25.9985 98.8126 25.9985C98.979 25.9985 99.1198 25.8913 99.1614 25.7321C99.1998 25.5849 99.343 25.4649 99.4798 25.4649C99.6334 25.4649 99.7598 25.3385 99.8118 25.1321C99.8638 24.9233 99.9894 24.7985 100.148 24.7985C100.311 24.7985 100.4 24.7049 100.4 24.5321C100.4 24.285 100.489 24.265 101.597 24.265C102.763 24.265 102.797 24.2562 102.878 23.9322L102.962 23.5986H105.414H107.866V23.9322ZM220.228 24.5321C220.284 24.7473 220.409 24.7985 220.882 24.7985C221.417 24.7985 221.466 24.8273 221.466 25.1321C221.466 25.3977 221.533 25.4649 221.796 25.4649C222.031 25.4649 222.103 25.5209 222.049 25.6617C222.001 25.7881 222.098 25.9161 222.32 26.0169C222.51 26.1033 222.666 26.2848 222.666 26.42C222.666 26.5752 222.763 26.6648 222.93 26.6648C223.101 26.6648 223.225 26.7832 223.278 26.9984C223.33 27.2032 223.457 27.332 223.608 27.332C223.819 27.332 223.86 27.46 223.893 28.2319C223.929 29.0495 223.961 29.1359 224.233 29.1743L224.533 29.2167V34.4883C224.533 38.9993 224.505 39.7488 224.343 39.6864C224.149 39.612 223.841 39.876 223.877 40.0832C223.997 40.7528 223.841 42.0991 223.646 42.0823C223.397 42.0615 223.158 42.7199 223.277 43.0974C223.334 43.2782 223.274 43.331 223.009 43.331C222.755 43.331 222.666 43.3998 222.666 43.5974C222.666 43.7742 222.577 43.8638 222.402 43.8638C222.232 43.8638 222.109 43.9822 222.054 44.1974C221.991 44.451 221.878 44.5349 221.585 44.5477C220.92 44.5757 220.866 44.5981 220.885 44.8341C220.903 45.0613 220.819 45.0893 220.1 45.0965C219.898 45.0981 219.58 45.2421 219.393 45.4149L219.053 45.7309H215.326C211.689 45.7309 211.6 45.7245 211.6 45.4637C211.6 45.3173 211.525 45.1869 211.433 45.1741C211.115 45.1309 210.731 45.1013 210.233 45.0829C209.829 45.0677 209.733 45.0133 209.733 44.7973C209.733 44.6229 209.645 44.5309 209.476 44.5309C209.31 44.5309 209.203 44.4238 209.176 44.231C209.149 44.0382 209.026 43.9158 208.833 43.8878C208.641 43.8606 208.533 43.7534 208.533 43.5878C208.533 43.4038 208.441 43.331 208.207 43.331C207.913 43.331 207.877 43.2694 207.841 42.6975C207.811 42.2415 207.744 42.0639 207.6 42.0639C207.449 42.0639 207.383 41.8495 207.333 41.1975C207.273 40.424 207.234 40.3264 206.966 40.288L206.666 40.2456V35.3219C206.666 30.5798 206.676 30.3982 206.919 30.3982C207.242 30.3982 207.333 30.1478 207.333 29.2543C207.333 28.6207 207.366 28.5319 207.6 28.5319C207.826 28.5319 207.866 28.4431 207.866 27.9407C207.866 27.4296 207.907 27.3448 208.166 27.308C208.354 27.2808 208.481 27.1576 208.507 26.9784C208.529 26.8208 208.663 26.6624 208.804 26.6256C208.982 26.5792 209.085 26.3936 209.146 26.0121C209.233 25.4681 209.237 25.4649 209.817 25.4649C210.349 25.4649 210.4 25.4369 210.4 25.1321C210.4 24.8105 210.432 24.7985 211.257 24.7985C211.998 24.7985 212.127 24.7617 212.2 24.5321C212.282 24.273 212.401 24.265 216.221 24.265C220.046 24.265 220.16 24.273 220.228 24.5321Z" fill="#04347C"/>
<path fill-rule="evenodd" clip-rule="evenodd" d="M26.2279 20.7243C25.9559 21.0499 25.7335 21.4019 25.7335 21.5059C25.7335 21.6107 25.6223 21.8395 25.4863 22.0139C25.3503 22.1891 25.1615 22.5722 25.0663 22.865C24.9719 23.1586 24.7831 23.6074 24.6471 23.8634C24.5111 24.1185 24.3999 24.4097 24.3999 24.5089C24.3999 24.6081 24.2799 24.8425 24.1335 25.0289C23.9863 25.2153 23.8663 25.5313 23.8663 25.732C23.8663 25.932 23.7367 26.2608 23.5775 26.4632C23.4183 26.6656 23.2407 27.1312 23.1831 27.4983C23.1247 27.8655 22.9799 28.2735 22.8607 28.4047C22.7415 28.5367 22.6095 28.9039 22.5671 29.2214C22.5247 29.5382 22.3751 29.9542 22.2351 30.1446C22.0951 30.335 21.9455 30.7485 21.9031 31.0645C21.8607 31.3805 21.7151 31.7493 21.5799 31.8853C21.4071 32.0573 21.3335 32.3269 21.3335 32.7828C21.3335 33.33 21.2799 33.4684 20.9999 33.6524C20.7111 33.842 20.6663 33.9692 20.6663 34.6051C20.6663 35.1827 20.6167 35.3579 20.4335 35.4259C20.0911 35.5515 20.0039 35.7354 20.0023 36.3354C20.0007 36.717 19.9231 36.9274 19.7343 37.0642C19.5623 37.1874 19.4383 37.4777 19.3847 37.8817C19.3239 38.3401 19.2351 38.5257 19.0511 38.5737C18.8639 38.6225 18.7999 38.7617 18.7999 39.1184V39.5976H9.86631H0.933514V39.8864C0.933514 40.2336 0.813514 40.148 0.735914 39.7456C0.705514 39.5856 0.736714 39.492 0.807114 39.5352C0.876714 39.5784 0.933514 39.5496 0.933514 39.472C0.933514 39.3944 0.865514 39.3312 0.783914 39.3312C0.679914 39.3312 0.685514 39.2688 0.799914 39.1312C0.939114 38.9633 0.918314 38.9313 0.675114 38.9313C0.515114 38.9313 0.421514 38.9913 0.466314 39.064C0.511914 39.1376 0.425514 39.1976 0.274314 39.1976C-0.0424862 39.1976 -0.160086 41.2551 0.151114 41.3591C0.234314 41.3863 0.327114 41.7367 0.358314 42.1367C0.398314 42.6582 0.488714 42.9214 0.677514 43.0678C0.849514 43.2006 0.951914 43.4566 0.971114 43.8014C0.992714 44.2061 1.07031 44.3613 1.29991 44.4621C1.53511 44.5653 1.59991 44.7029 1.59991 45.0989C1.59991 45.5149 1.65831 45.6261 1.93431 45.7308C2.11831 45.8012 2.26071 45.9044 2.25191 45.9612C2.20151 46.2692 2.29431 46.546 2.51911 46.7588C2.65751 46.89 2.79351 47.1172 2.81991 47.2636C2.84791 47.4131 2.99351 47.5483 3.15271 47.5707C3.40231 47.6067 3.67991 48.1899 3.62071 48.5547C3.61271 48.6043 3.84071 48.6235 4.12791 48.5979C4.46711 48.5667 4.70551 48.6163 4.80791 48.7403C4.90471 48.8571 5.21431 48.9307 5.60791 48.9307C6.23511 48.9307 6.92551 49.113 7.06391 49.3154C7.42071 49.8354 11.9727 50.085 13.4375 49.6634C15.8415 48.9731 16.8119 48.5611 17.9999 47.7299C18.1095 47.6531 18.3575 47.4867 18.5495 47.3603C19.3207 46.854 19.6479 46.5932 20.2463 46.0084C21.3247 44.9533 22.7999 43.0486 22.7999 42.711C22.7999 42.6342 22.9215 42.431 23.0703 42.2599C23.2191 42.0887 23.3719 41.7943 23.4095 41.6063C23.4471 41.4183 23.6255 40.9855 23.8055 40.6448C23.9863 40.304 24.1335 39.9064 24.1335 39.7608C24.1335 39.616 24.2215 39.4232 24.3295 39.3336C24.4375 39.244 24.5655 38.9521 24.6143 38.6841C24.6623 38.4169 24.7799 38.0433 24.8751 37.8553C24.9703 37.6665 25.2671 36.8266 25.5343 35.989C25.8015 35.1507 26.1031 34.2843 26.2039 34.0643C26.3047 33.8444 26.4535 33.3948 26.5351 33.0644C26.6159 32.7348 26.7639 32.2845 26.8631 32.0645C26.9631 31.8445 27.0879 31.4245 27.1415 31.1317C27.1951 30.8381 27.3503 30.3894 27.4863 30.1334C27.6223 29.8782 27.7335 29.5174 27.7335 29.3318C27.7335 29.1462 27.8455 28.7855 27.9823 28.5295C28.1191 28.2743 28.2759 27.8551 28.3303 27.5983C28.3847 27.3416 28.5359 26.9216 28.6671 26.6648C28.9759 26.0584 29.7319 24.0625 29.7375 23.8386C29.7399 23.7434 29.8295 23.549 29.9375 23.4066C30.3695 22.8354 30.1479 21.8651 29.5855 21.8651C29.2887 21.8651 29.1999 21.8043 29.1999 21.5987C29.1999 21.4027 29.1111 21.3323 28.8631 21.3323C28.6271 21.3323 28.4887 21.2331 28.3999 20.9987C28.2967 20.7283 28.1823 20.6652 27.7911 20.6652C27.4207 20.6652 27.2919 20.6036 27.2383 20.3988C27.1263 19.97 26.7599 20.0884 26.2279 20.7243ZM27.2679 20.9323C27.3671 20.9323 27.5487 21.0331 27.6711 21.1563C27.9247 21.4099 28.4983 21.7483 29.2335 22.0803C29.7399 22.3083 29.9655 23.0394 29.5999 23.265C29.5263 23.3106 29.4663 23.4794 29.4655 23.6402C29.4647 23.8002 29.3167 24.2321 29.1359 24.5985C28.9559 24.9649 28.8063 25.3553 28.8039 25.4649C28.8007 25.5753 28.6863 25.8504 28.5479 26.076C28.4103 26.3024 28.2543 26.692 28.2023 26.9432C28.1503 27.1936 28.0223 27.5319 27.9191 27.6943C27.8159 27.8575 27.6487 28.3375 27.5463 28.7615C27.4439 29.1846 27.2647 29.755 27.1471 30.027C27.0295 30.2998 26.9335 30.647 26.9335 30.7989C26.9335 30.9509 26.8135 31.3109 26.6663 31.5981C26.5199 31.8853 26.3983 32.2581 26.3959 32.426C26.3935 32.594 26.2439 33.0316 26.0639 33.398C25.8831 33.7644 25.7351 34.2019 25.7343 34.3699C25.7335 34.5379 25.6215 34.8979 25.4847 35.1699C25.3479 35.4419 25.1935 35.9042 25.1415 36.1978C25.0895 36.4914 24.9719 36.8514 24.8799 36.9978C24.7879 37.1442 24.6335 37.5553 24.5359 37.9105C24.4383 38.2657 24.2471 38.7737 24.1127 39.0384C23.9775 39.304 23.8663 39.5944 23.8663 39.6856C23.8663 39.776 23.7167 40.132 23.5335 40.4768C23.3503 40.8215 23.1999 41.2111 23.1999 41.3431C23.1999 41.4743 23.1471 41.6143 23.0823 41.6543C23.0175 41.6943 22.8343 41.9831 22.6759 42.2959C21.8551 43.9134 20.0559 46.082 19.1391 46.5588C18.9895 46.6372 18.7767 46.7836 18.6663 46.8852C18.2071 47.3092 16.5655 48.3091 16.1335 48.4291C15.8767 48.5003 15.5831 48.6267 15.4799 48.7099C15.3055 48.8531 14.1735 49.1746 12.7999 49.473C11.2007 49.8194 8.73591 49.6178 8.87671 49.1514C9.01511 48.6907 9.11591 48.6435 10.2879 48.4827C10.9071 48.3979 11.5455 48.2275 11.7295 48.0971C11.9111 47.9691 12.1535 47.8635 12.2695 47.8635C12.3855 47.8635 12.8511 47.5939 13.3047 47.2636C13.7583 46.934 14.1863 46.6636 14.2567 46.6636C14.4767 46.6636 17.0087 44.0981 17.4823 43.395C18.3351 42.1303 19.9927 38.4809 20.3287 37.1282C20.4199 36.7594 20.5935 36.2674 20.7143 36.0346C20.8343 35.8018 20.9335 35.5451 20.9335 35.4635C20.9335 35.3827 21.0551 35.0499 21.2031 34.7235C21.3519 34.3971 21.5303 33.8308 21.5999 33.4652C21.6695 33.0988 21.8111 32.6644 21.9143 32.4988C22.0183 32.3333 22.1447 31.9581 22.1951 31.6645C22.2455 31.3717 22.3631 31.0117 22.4559 30.8645C22.5495 30.7181 22.7039 30.2678 22.7991 29.8646C22.8943 29.4614 23.0215 29.099 23.0815 29.0598C23.1415 29.0206 23.2831 28.6271 23.3967 28.1863C23.5095 27.7447 23.7215 27.1496 23.8679 26.8632C24.0135 26.5768 24.1335 26.2664 24.1335 26.1736C24.1335 26.0808 24.2527 25.808 24.3991 25.5681C24.5455 25.3281 24.6655 25.0049 24.6663 24.8497C24.6663 24.6945 24.7791 24.4249 24.9159 24.2497C25.0527 24.0753 25.2087 23.7322 25.2623 23.4874C25.4735 22.521 26.5791 20.7363 26.8927 20.8571C26.9999 20.8979 27.1695 20.9323 27.2679 20.9323ZM0.581514 29.3982C0.623914 29.5078 0.610314 29.5982 0.551114 29.5982C0.492714 29.5982 0.444714 29.6822 0.444714 29.7854C0.444714 29.8886 0.511114 29.947 0.593514 29.9158C0.788714 29.8406 0.839914 29.1982 0.651114 29.1982C0.570314 29.1982 0.539114 29.2878 0.581514 29.3982ZM0.166314 31.1533C-0.0312861 31.2325 -0.0592862 31.7317 0.133514 31.7317C0.206314 31.7317 0.271114 31.6861 0.276714 31.6317C0.282314 31.5765 0.307114 31.4261 0.331914 31.2981C0.355914 31.1701 0.366314 31.0693 0.355114 31.0749C0.343114 31.0813 0.258314 31.1157 0.166314 31.1533ZM-8.61574e-05 37.7977C-8.61574e-05 37.9353 0.0871138 38.0001 0.233514 37.9721C0.514314 37.9185 0.496714 37.6817 0.207114 37.6209C0.0863138 37.5961 -8.61574e-05 37.6697 -8.61574e-05 37.7977ZM11.4919 53.9616C11.5463 54.2471 11.9951 54.3535 12.1415 54.1159C12.2959 53.8672 12.1679 53.7304 11.7823 53.7304C11.5359 53.7304 11.4591 53.7912 11.4919 53.9616ZM13.3735 54.4543C13.5503 54.5879 13.5679 54.6519 13.4407 54.6943C13.3455 54.7263 13.5303 54.7943 13.8511 54.8455C14.5351 54.9551 14.6063 54.9159 14.4063 54.5415C14.2903 54.3255 14.1311 54.2647 13.6951 54.2679C13.1911 54.2711 13.1583 54.2903 13.3735 54.4543ZM57.0999 55.5591C57.3015 55.5895 57.6319 55.5895 57.8335 55.5591C58.0351 55.5287 57.8695 55.5031 57.4663 55.5031C57.0631 55.5031 56.8983 55.5287 57.0999 55.5591ZM59.0999 55.5607C59.3751 55.5895 59.8247 55.5895 60.0999 55.5607C60.3751 55.5319 60.1503 55.5079 59.5999 55.5079C59.0503 55.5079 58.8247 55.5319 59.0999 55.5607Z" fill="#0C84C4"/>
<path fill-rule="evenodd" clip-rule="evenodd" d="M26.4135 21.1796C25.9607 21.8147 25.3679 23.0043 25.2623 23.4874C25.2087 23.7322 25.0527 24.0754 24.9159 24.2498C24.7791 24.425 24.6663 24.6946 24.6663 24.8498C24.6655 25.005 24.5455 25.3281 24.3991 25.5681C24.2527 25.8081 24.1335 26.0809 24.1335 26.1737C24.1335 26.2665 24.0135 26.5769 23.8679 26.8632C23.7215 27.1496 23.5095 27.7448 23.3967 28.1864C23.2831 28.6271 23.1415 29.0207 23.0815 29.0599C23.0215 29.0991 22.8943 29.4615 22.7991 29.8647C22.7039 30.2678 22.5495 30.7182 22.4559 30.8646C22.3631 31.0118 22.2455 31.3718 22.1951 31.6646C22.1447 31.9581 22.0183 32.3333 21.9143 32.4989C21.8111 32.6645 21.6695 33.0989 21.5999 33.4652C21.5303 33.8308 21.3519 34.3972 21.2031 34.7236C21.0551 35.05 20.9335 35.3827 20.9335 35.4635C20.9335 35.5451 20.8343 35.8019 20.7143 36.0347C20.5935 36.2675 20.4199 36.7594 20.3287 37.1282C19.9927 38.4809 18.3351 42.1303 17.4823 43.395C17.0087 44.0982 14.4767 46.6637 14.2567 46.6637C14.1863 46.6637 13.7583 46.934 13.3047 47.2636C12.8511 47.594 12.3855 47.8636 12.2695 47.8636C12.1535 47.8636 11.9111 47.9692 11.7295 48.0972C11.5455 48.2276 10.9071 48.3979 10.2879 48.4827C9.11593 48.6435 9.01513 48.6907 8.87673 49.1515C8.67513 49.8203 11.8863 49.8155 14.0663 49.1435L14.7335 48.9379L14.1335 48.9859C13.8031 49.0123 13.2935 49.1107 12.9999 49.2043C12.7063 49.2979 11.8215 49.3979 11.0335 49.4275L9.59993 49.4803V49.1531C9.59993 48.7547 9.81033 48.6635 10.7263 48.6635C11.2063 48.6635 11.5319 48.5859 11.7487 48.4187C11.9231 48.2836 12.2599 48.1068 12.4967 48.0268C12.7335 47.946 13.0039 47.8132 13.0967 47.7324C13.1903 47.6516 13.5863 47.3836 13.9775 47.1364C14.7887 46.6237 15.5999 45.9189 15.5999 45.7277C15.5999 45.6557 15.6631 45.5973 15.7399 45.5973C16.1071 45.5973 17.6647 43.7174 18.3167 42.4879C18.5815 41.9871 18.8887 41.4488 18.9991 41.2912C19.1095 41.1336 19.1999 40.9128 19.1999 40.8C19.1999 40.688 19.3503 40.3136 19.5335 39.9697C19.7167 39.6249 19.8663 39.2449 19.8663 39.1241C19.8663 39.0041 19.9783 38.7465 20.1143 38.5513C20.2503 38.357 20.4015 37.941 20.4495 37.6266C20.4983 37.3122 20.6567 36.833 20.8023 36.5619C20.9479 36.2907 21.0663 35.9411 21.0663 35.7843C21.0663 35.6283 21.1775 35.3571 21.3135 35.1827C21.4487 35.0076 21.6007 34.602 21.6503 34.2812C21.7007 33.9604 21.8543 33.4508 21.9919 33.1485C22.1287 32.8453 22.2839 32.3133 22.3359 31.9645C22.3879 31.6166 22.4735 31.3318 22.5271 31.3318C22.6887 31.3318 22.9335 30.6782 22.9335 30.2462C22.9335 30.0231 23.0463 29.6967 23.1847 29.5207C23.3231 29.3455 23.4783 28.9159 23.5295 28.5663C23.5815 28.2176 23.7135 27.8312 23.8239 27.708C23.9335 27.5848 24.0807 27.2312 24.1503 26.9232C24.2191 26.6145 24.3943 26.2121 24.5383 26.0289C24.6823 25.8457 24.7999 25.5129 24.7999 25.2889C24.7999 25.0633 24.9207 24.7538 25.0719 24.593C25.2215 24.4338 25.3807 24.0698 25.4263 23.7842C25.4719 23.4986 25.6199 23.1683 25.7543 23.0499C25.8895 22.9315 26.0007 22.7211 26.0015 22.5827C26.0055 22.0947 26.1607 21.7555 26.4119 21.69C26.5527 21.6532 26.6663 21.5076 26.6663 21.3628C26.6663 21.0284 27.3119 21.1164 27.5743 21.486C27.6703 21.6212 27.8255 21.7323 27.9199 21.7323C28.0143 21.7323 28.1943 21.8451 28.3191 21.9835C28.4447 22.1219 28.7319 22.2715 28.9583 22.3171L29.3703 22.3995L29.2783 23.2907C29.2103 23.9554 29.1207 24.229 28.9271 24.365C28.7431 24.4938 28.6663 24.7026 28.6663 25.0769C28.6663 25.4137 28.5967 25.6337 28.4759 25.6801C28.2407 25.7705 27.9999 26.4313 27.9999 26.9864C27.9999 27.2464 27.9071 27.4584 27.7511 27.556C27.5799 27.6632 27.4823 27.9216 27.4375 28.3895C27.4015 28.7623 27.2751 29.1743 27.1567 29.3055C27.0391 29.4359 26.9007 29.8943 26.8503 30.3246C26.7975 30.7742 26.6631 31.2022 26.5335 31.331C26.4095 31.455 26.2711 31.8725 26.2255 32.2589C26.1783 32.6581 26.0527 33.0277 25.9351 33.1133C25.8151 33.2013 25.6935 33.5708 25.6455 33.998C25.5975 34.4244 25.4663 34.8236 25.3335 34.9524C25.2071 35.0739 25.0623 35.4883 25.0111 35.8739C24.9599 36.2595 24.8015 36.7234 24.6591 36.9042C24.5167 37.0858 24.3999 37.4274 24.3999 37.6642C24.3999 37.901 24.2887 38.2386 24.1535 38.4129C24.0175 38.5881 23.8663 38.9897 23.8167 39.3065C23.7679 39.6233 23.6087 40.0089 23.4639 40.1648C23.3183 40.3208 23.1991 40.5712 23.1983 40.7224C23.1967 40.8736 23.1103 41.148 23.0063 41.3312C22.9015 41.5144 22.7295 41.8503 22.6231 42.0767C22.3935 42.5695 21.5751 43.7582 21.0463 44.3686C20.8375 44.6094 20.6663 44.8942 20.6663 45.0022C20.6663 45.1093 20.6031 45.1973 20.5255 45.1973C20.4479 45.1973 20.1303 45.4549 19.8207 45.7693C19.5103 46.0837 19.0639 46.4213 18.8279 46.5189C18.5927 46.6165 18.3999 46.7508 18.3999 46.8164C18.3999 46.8828 18.2487 46.9948 18.0631 47.0652C17.8783 47.1356 17.6919 47.2844 17.6487 47.3948C17.6063 47.506 17.4959 47.5972 17.4039 47.5972C17.3127 47.5972 17.0255 47.7412 16.7663 47.9164C16.5071 48.0924 16.0935 48.2804 15.8479 48.334C15.2647 48.4611 14.6231 48.9307 15.0319 48.9307C15.1799 48.9307 15.3719 48.8443 15.4591 48.7387C15.5471 48.6339 15.8095 48.5075 16.0423 48.4579C16.4335 48.3748 18.2031 47.3148 18.6663 46.886C18.7767 46.7844 18.9895 46.6373 19.1391 46.5589C20.0559 46.0821 21.8551 43.9134 22.6759 42.2959C22.8343 41.9831 23.0175 41.6943 23.0823 41.6544C23.1471 41.6144 23.1999 41.4744 23.1999 41.3432C23.1999 41.2112 23.3503 40.8216 23.5335 40.4768C23.7167 40.132 23.8663 39.7761 23.8663 39.6857C23.8663 39.5945 23.9775 39.3041 24.1127 39.0385C24.2471 38.7737 24.4383 38.2658 24.5359 37.9106C24.6335 37.5554 24.7879 37.1442 24.8799 36.9978C24.9719 36.8514 25.0895 36.4915 25.1415 36.1979C25.1935 35.9043 25.3479 35.4419 25.4847 35.1699C25.6215 34.898 25.7335 34.538 25.7343 34.37C25.7351 34.202 25.8831 33.7644 26.0639 33.398C26.2439 33.0317 26.3935 32.5941 26.3959 32.4261C26.3983 32.2581 26.5199 31.8853 26.6663 31.5982C26.8135 31.311 26.9335 30.951 26.9335 30.799C26.9335 30.647 27.0295 30.2998 27.1471 30.027C27.2647 29.7551 27.4439 29.1847 27.5463 28.7615C27.6487 28.3376 27.8159 27.8576 27.9191 27.6944C28.0223 27.532 28.1503 27.1936 28.2023 26.9432C28.2543 26.692 28.4103 26.3025 28.5479 26.0761C28.6863 25.8505 28.8007 25.5753 28.8039 25.4649C28.8063 25.3553 28.9559 24.965 29.1359 24.5986C29.3167 24.2322 29.4647 23.8002 29.4655 23.6402C29.4663 23.4794 29.5263 23.3107 29.5999 23.2651C29.9655 23.0395 29.7399 22.3083 29.2335 22.0803C28.4983 21.7483 27.9247 21.41 27.6711 21.1564C27.5487 21.0332 27.3671 20.9324 27.2679 20.9324C27.1695 20.9324 26.9999 20.898 26.8927 20.8572C26.7719 20.8108 26.5879 20.9348 26.4135 21.1796ZM111.366 45.1557C111.495 45.1893 111.705 45.1893 111.834 45.1557C111.962 45.1221 111.857 45.0949 111.6 45.0949C111.343 45.0949 111.238 45.1221 111.366 45.1557Z" fill="#0C74B8"/>
</g>
<defs>
<clipPath id="clip0">
<rect width="320" height="58.96" fill="white"/>
</clipPath>
</defs>
</svg>
