<svg id="svg" version="1.1" xmlns="http://www.w3.org/2000/svg" xmlns:xlink="http://www.w3.org/1999/xlink" width="400" height="135.41247484909456" viewBox="0, 0, 400,135.41247484909456"><g id="svgg"><path id="path0" d="M53.292 27.947 C 52.490 27.983,51.833 28.074,51.833 28.148 C 51.833 28.222,51.102 28.330,50.208 28.388 C 47.785 28.545,43.833 29.030,43.833 29.171 C 43.833 29.239,43.402 29.346,42.875 29.407 C 41.429 29.577,39.094 30.021,39.000 30.144 C 38.954 30.203,38.054 30.428,37.000 30.643 C 35.946 30.857,35.008 31.094,34.917 31.169 C 34.825 31.243,34.120 31.461,33.350 31.653 C 32.580 31.844,31.867 32.069,31.766 32.152 C 31.666 32.235,31.171 32.412,30.667 32.546 C 30.162 32.679,29.356 32.963,28.875 33.176 L 28.000 33.562 28.000 46.281 C 28.000 53.277,28.064 59.000,28.141 59.000 C 28.219 59.000,28.329 59.806,28.386 60.792 C 28.496 62.685,28.899 65.357,29.159 65.917 C 29.244 66.100,29.433 66.802,29.580 67.477 C 29.726 68.152,29.982 68.977,30.148 69.311 C 30.314 69.644,30.553 70.273,30.678 70.708 C 30.804 71.144,30.959 71.500,31.023 71.500 C 31.087 71.500,31.302 71.988,31.500 72.583 C 31.698 73.179,31.911 73.667,31.972 73.668 C 32.033 73.669,32.266 74.082,32.490 74.585 C 32.714 75.088,32.945 75.500,33.003 75.500 C 33.062 75.500,33.285 75.875,33.500 76.333 C 33.715 76.792,33.944 77.167,34.009 77.167 C 34.075 77.167,34.245 77.410,34.388 77.708 C 34.531 78.006,34.764 78.400,34.906 78.583 C 35.048 78.767,35.465 79.302,35.832 79.774 C 36.200 80.245,36.500 80.705,36.500 80.796 C 36.500 80.887,36.688 81.085,36.917 81.235 C 37.146 81.385,37.333 81.596,37.333 81.703 C 37.333 81.924,37.388 81.982,40.870 85.463 C 44.072 88.663,44.599 89.167,44.747 89.167 C 44.813 89.167,45.080 89.373,45.341 89.625 C 45.961 90.223,46.296 90.499,47.002 90.998 C 47.322 91.223,47.770 91.578,47.998 91.787 C 48.227 91.996,48.505 92.167,48.617 92.167 C 48.730 92.167,48.902 92.317,49.000 92.500 C 49.098 92.683,49.270 92.833,49.383 92.833 C 49.495 92.833,49.776 93.002,50.008 93.208 C 50.619 93.753,51.462 94.333,51.642 94.333 C 51.728 94.333,51.841 94.446,51.894 94.583 C 51.946 94.721,52.086 94.833,52.203 94.834 C 52.321 94.834,52.616 95.002,52.860 95.209 C 53.248 95.536,53.829 95.926,55.083 96.699 C 55.267 96.812,55.727 97.112,56.107 97.366 C 56.486 97.620,56.992 97.902,57.232 97.993 C 57.471 98.084,57.667 98.222,57.667 98.301 C 57.667 98.379,58.042 98.619,58.500 98.833 C 58.958 99.048,59.333 99.273,59.333 99.333 C 59.333 99.394,59.708 99.619,60.167 99.833 L 61.000 100.224 61.833 99.833 C 62.292 99.619,62.667 99.399,62.667 99.346 C 62.667 99.293,63.023 99.063,63.458 98.835 C 63.894 98.607,64.395 98.288,64.573 98.127 C 64.751 97.965,64.995 97.833,65.115 97.833 C 65.235 97.833,65.468 97.702,65.632 97.542 C 65.797 97.381,66.265 97.066,66.674 96.842 C 67.082 96.617,67.492 96.372,67.583 96.297 C 67.675 96.222,68.241 95.843,68.840 95.455 C 69.440 95.067,70.111 94.581,70.330 94.375 C 70.550 94.169,70.814 94.000,70.917 94.000 C 71.020 94.000,71.249 93.867,71.427 93.704 C 71.605 93.541,72.012 93.224,72.333 93.000 C 72.654 92.776,73.103 92.422,73.332 92.213 C 73.560 92.004,73.838 91.833,73.951 91.833 C 74.063 91.833,74.235 91.683,74.333 91.500 C 74.431 91.317,74.616 91.167,74.744 91.167 C 74.871 91.167,75.123 90.979,75.304 90.750 C 75.484 90.521,75.682 90.333,75.743 90.333 C 75.892 90.333,77.432 89.034,77.964 88.458 C 78.198 88.206,78.449 88.000,78.524 88.000 C 78.667 88.000,82.632 84.062,83.322 83.236 C 83.544 82.969,84.088 82.332,84.530 81.820 C 84.972 81.309,85.333 80.821,85.333 80.735 C 85.333 80.650,85.483 80.487,85.667 80.372 C 85.850 80.258,86.000 80.079,86.000 79.974 C 86.000 79.870,86.158 79.627,86.350 79.434 C 86.543 79.241,87.029 78.558,87.431 77.917 C 87.832 77.275,88.236 76.661,88.328 76.551 C 88.420 76.442,88.665 75.992,88.872 75.551 C 89.080 75.111,89.370 74.617,89.516 74.454 C 89.663 74.291,89.885 73.841,90.009 73.454 C 90.134 73.067,90.296 72.708,90.370 72.656 C 90.443 72.604,90.660 72.116,90.851 71.572 C 91.042 71.028,91.250 70.546,91.312 70.500 C 91.537 70.334,92.640 66.720,92.850 65.458 C 92.968 64.748,93.115 64.167,93.177 64.167 C 93.849 64.167,94.088 33.486,93.417 33.358 C 93.233 33.323,93.045 33.234,92.998 33.160 C 92.951 33.086,92.314 32.852,91.581 32.641 C 90.849 32.429,90.212 32.204,90.165 32.141 C 90.118 32.077,89.405 31.860,88.581 31.658 C 87.757 31.456,87.046 31.238,87.000 31.173 C 86.954 31.109,86.035 30.876,84.958 30.657 C 83.881 30.438,83.000 30.211,83.000 30.151 C 83.000 30.092,81.894 29.868,80.542 29.654 C 79.190 29.440,78.046 29.218,78.000 29.161 C 77.901 29.038,73.871 28.543,71.750 28.394 C 70.925 28.336,70.150 28.209,70.028 28.112 C 69.806 27.936,56.436 27.804,53.292 27.947 M67.417 30.500 C 68.883 30.591,70.608 30.739,71.250 30.829 C 71.892 30.920,73.392 31.115,74.583 31.263 C 79.010 31.812,83.768 32.883,88.458 34.384 L 91.165 35.250 91.165 47.500 C 91.164 60.561,91.121 61.456,90.337 64.833 C 88.250 73.818,82.266 82.093,72.456 89.565 L 71.828 90.043 71.084 89.759 C 70.098 89.382,69.185 88.319,68.667 86.941 C 68.437 86.333,68.205 85.835,68.149 85.834 C 67.739 85.830,67.590 90.034,67.930 92.006 L 68.032 92.595 66.391 93.656 C 64.619 94.802,64.286 95.013,62.230 96.291 L 60.876 97.133 59.612 96.358 C 46.912 88.571,42.370 84.289,41.990 79.750 C 41.914 78.833,41.695 77.033,41.503 75.750 C 40.689 70.286,40.833 69.418,43.025 66.561 C 45.197 63.729,45.467 62.515,44.947 57.918 C 44.657 55.353,44.783 54.618,45.531 54.532 C 46.092 54.467,46.429 54.940,46.779 56.283 C 47.669 59.699,48.800 60.550,53.165 61.090 C 59.473 61.870,59.982 62.027,60.654 63.399 C 62.050 66.251,62.389 68.230,61.750 69.801 C 61.290 70.934,61.167 73.119,61.520 73.893 C 62.086 75.137,68.127 73.846,69.695 72.145 C 70.824 70.921,71.021 70.937,71.611 72.306 C 72.104 73.449,72.617 73.819,73.880 73.945 L 74.750 74.032 75.703 72.770 C 78.008 69.718,78.098 67.331,76.032 64.031 C 74.436 61.481,74.399 61.247,75.496 60.583 C 77.409 59.426,77.691 57.608,76.041 57.075 C 75.215 56.808,75.099 56.626,75.323 55.949 C 75.866 54.304,74.306 53.164,72.660 54.003 C 71.879 54.402,71.896 54.307,72.416 55.331 C 72.914 56.314,73.611 57.000,74.113 57.000 C 75.003 57.000,74.801 57.468,73.816 57.689 C 72.520 57.980,72.306 57.780,70.884 54.942 C 70.381 53.938,70.334 53.738,70.493 53.282 C 71.479 50.453,75.877 50.844,76.272 53.796 C 76.424 54.933,76.505 55.167,76.745 55.167 C 76.991 55.167,77.331 54.222,77.332 53.533 C 77.334 53.000,76.909 52.229,76.074 51.249 L 75.363 50.416 76.036 49.028 C 77.212 46.602,76.735 43.307,75.094 42.520 C 73.780 41.890,68.814 43.863,69.322 44.812 C 69.655 45.434,69.149 45.550,68.134 45.085 C 65.638 43.942,59.173 43.188,53.072 43.329 C 52.974 43.331,52.239 42.560,51.439 41.615 C 49.685 39.542,49.255 39.249,48.068 39.314 C 47.598 39.340,45.889 40.848,45.167 41.873 L 44.583 42.701 44.588 45.225 C 44.591 47.166,44.661 47.977,44.891 48.732 C 45.293 50.054,44.978 50.527,44.194 49.777 L 43.718 49.320 43.126 49.975 C 42.234 50.962,39.826 54.686,38.781 56.692 C 37.182 59.765,36.914 61.213,37.435 63.987 C 37.909 66.514,37.736 67.869,36.623 70.341 C 36.105 71.492,35.630 72.751,35.568 73.140 C 35.412 74.116,35.206 73.967,34.321 72.238 C 32.772 69.212,31.567 65.429,31.060 62.000 C 30.755 59.939,30.509 35.808,30.789 35.393 C 31.315 34.611,42.341 31.871,47.455 31.252 C 48.626 31.110,50.146 30.915,50.833 30.819 C 54.043 30.367,62.624 30.203,67.417 30.500 M48.500 41.371 C 48.690 41.575,49.210 42.419,49.656 43.246 C 50.102 44.073,50.812 45.309,51.234 45.992 C 52.211 47.576,52.203 47.682,51.042 48.478 C 50.515 48.839,49.787 49.442,49.425 49.817 C 47.836 51.463,46.217 49.292,45.893 45.085 C 45.704 42.628,47.408 40.200,48.500 41.371 M75.495 44.583 C 76.334 46.275,74.952 50.311,73.923 49.173 C 73.760 48.994,73.223 48.568,72.728 48.228 C 71.692 47.514,71.686 47.376,72.639 46.167 C 74.380 43.960,75.012 43.610,75.495 44.583 M62.887 51.349 C 64.598 52.481,65.842 54.605,68.064 60.185 C 69.126 62.852,69.365 63.902,68.992 64.275 C 68.870 64.397,69.059 64.410,69.617 64.318 C 71.907 63.941,75.517 64.242,75.835 64.837 C 76.407 65.905,75.939 66.631,74.439 67.000 L 73.422 67.250 72.791 68.417 C 71.596 70.628,70.459 70.913,70.931 68.883 C 71.291 67.336,71.040 67.101,68.713 66.800 C 67.089 66.591,66.712 66.214,66.916 65.006 C 67.034 64.306,66.743 63.320,65.416 59.917 C 64.227 56.868,63.871 56.429,62.931 56.857 C 62.218 57.182,62.018 56.809,62.560 56.164 C 64.169 54.252,60.759 52.291,58.707 53.948 C 57.461 54.954,57.634 55.806,59.264 56.699 C 60.420 57.333,60.343 57.587,59.000 57.570 C 57.912 57.556,56.500 57.041,56.500 56.659 C 56.500 56.552,56.111 56.531,55.434 56.600 C 53.778 56.770,53.636 56.190,54.788 53.965 C 55.461 52.666,55.955 52.241,58.167 51.058 C 59.063 50.579,61.997 50.759,62.887 51.349 M67.417 75.002 C 60.920 75.991,61.335 78.281,67.985 78.139 C 70.574 78.084,70.622 78.076,71.427 77.578 C 74.472 75.694,72.249 74.266,67.417 75.002 " stroke="none" fill="#e9f0f7" fill-rule="evenodd"></path><path id="path1" d="M54.750 30.674 C 48.682 31.018,42.020 32.089,36.627 33.590 C 34.623 34.147,31.522 35.143,31.122 35.357 C 30.818 35.520,30.810 35.923,30.879 48.221 L 30.950 60.917 31.471 63.406 C 32.187 66.819,32.852 68.801,34.372 72.042 C 35.180 73.766,35.166 73.760,35.554 72.539 C 35.721 72.014,36.152 70.963,36.512 70.206 C 37.576 67.965,37.723 66.683,37.233 63.917 C 36.569 60.162,38.032 56.523,42.750 50.198 C 43.505 49.186,43.723 49.102,44.240 49.619 C 44.906 50.285,45.006 49.936,44.656 48.167 C 43.910 44.391,44.273 42.382,46.016 40.639 C 48.336 38.319,49.424 38.598,52.153 42.213 L 52.844 43.128 56.714 43.210 C 61.858 43.319,65.250 43.822,68.048 44.891 L 69.180 45.323 69.071 44.742 L 68.962 44.161 70.689 43.348 C 73.715 41.924,74.711 41.810,75.603 42.783 C 77.028 44.339,77.243 46.996,76.121 49.182 L 75.516 50.362 76.407 51.413 C 77.369 52.547,77.590 53.144,77.419 54.155 C 77.163 55.668,76.324 55.720,76.160 54.233 C 75.888 51.758,73.273 50.578,71.435 52.101 C 70.316 53.029,70.333 53.719,71.526 55.914 C 72.333 57.399,72.700 57.662,73.792 57.543 C 74.528 57.462,74.786 57.167,74.120 57.167 C 72.889 57.167,71.461 54.521,72.375 53.933 C 74.035 52.863,75.983 54.079,75.522 55.897 C 75.342 56.607,75.456 56.825,76.010 56.831 C 77.463 56.845,78.253 60.686,77.473 63.947 C 77.117 65.434,77.114 65.510,77.387 66.637 C 77.960 69.014,77.687 70.311,76.174 72.393 C 74.963 74.060,74.708 74.243,73.795 74.097 C 72.408 73.875,72.022 73.594,71.490 72.422 C 70.898 71.116,70.685 71.076,69.929 72.125 C 69.039 73.362,68.646 73.518,64.098 74.433 C 60.373 75.182,57.512 72.694,57.238 68.468 C 57.077 65.978,56.566 65.813,56.264 68.153 C 55.965 70.471,55.841 70.508,52.279 69.333 C 48.470 68.077,48.363 67.984,46.948 64.750 C 46.747 64.291,46.467 65.112,46.318 66.600 C 46.097 68.797,45.716 69.743,44.232 71.780 C 42.360 74.349,42.282 74.579,42.200 77.750 C 42.081 82.390,42.773 83.721,47.290 87.544 C 50.788 90.504,60.003 96.833,60.815 96.833 C 60.938 96.833,61.000 96.284,61.000 95.197 C 61.000 91.520,61.502 90.497,65.084 86.860 C 68.025 83.874,68.123 83.836,68.441 85.557 C 68.823 87.625,69.785 89.096,71.080 89.591 L 71.811 89.870 72.840 89.060 C 73.405 88.615,74.070 88.100,74.317 87.917 C 74.776 87.575,74.917 87.451,77.655 84.972 C 84.123 79.115,88.651 71.793,90.264 64.583 C 91.079 60.935,91.181 58.858,91.131 46.833 L 91.083 35.417 89.250 34.790 C 79.681 31.521,66.850 29.990,54.750 30.674 M183.833 35.000 C 183.833 35.092,183.654 35.167,183.434 35.167 C 182.767 35.167,180.874 35.820,180.773 36.085 C 180.720 36.221,180.569 36.333,180.436 36.333 C 180.125 36.333,179.335 37.352,178.820 38.417 C 178.316 39.457,178.262 42.223,178.727 43.083 C 178.876 43.358,178.998 43.683,178.999 43.805 C 179.001 44.329,181.023 46.013,182.043 46.342 C 182.432 46.467,182.792 46.629,182.843 46.702 C 182.895 46.774,183.581 46.975,184.368 47.147 C 185.784 47.456,188.000 48.368,188.000 48.641 C 188.000 48.719,188.157 48.963,188.349 49.183 C 189.043 49.978,188.412 51.558,187.220 52.011 C 186.666 52.222,184.677 52.207,183.389 51.983 L 182.333 51.799 182.333 50.483 L 182.333 49.167 180.329 49.167 L 178.325 49.167 178.371 52.042 L 178.417 54.917 179.583 55.155 C 180.225 55.286,180.790 55.451,180.839 55.523 C 181.157 55.988,188.490 56.000,188.824 55.536 C 188.875 55.465,189.352 55.273,189.885 55.109 C 190.417 54.945,190.896 54.697,190.949 54.559 C 191.002 54.421,191.225 54.240,191.444 54.156 C 191.663 54.073,191.891 53.873,191.952 53.711 C 192.012 53.549,192.187 53.326,192.340 53.215 C 192.494 53.105,192.718 52.655,192.839 52.215 C 192.960 51.776,193.135 51.365,193.229 51.303 C 193.467 51.145,193.467 47.781,193.230 47.484 C 193.127 47.355,192.955 46.977,192.848 46.642 C 192.412 45.289,190.188 43.765,187.885 43.242 C 187.261 43.101,186.514 42.876,186.225 42.742 C 185.936 42.609,185.583 42.500,185.441 42.500 C 184.965 42.500,184.255 42.095,183.708 41.513 C 182.894 40.644,182.974 39.964,184.027 38.828 C 184.506 38.311,186.032 38.099,187.399 38.358 L 188.583 38.583 188.632 39.875 L 188.681 41.167 190.674 41.167 L 192.667 41.167 192.667 38.508 L 192.667 35.849 192.042 35.669 C 191.698 35.570,190.835 35.401,190.125 35.294 C 189.415 35.187,188.833 35.039,188.833 34.966 C 188.833 34.893,187.708 34.833,186.333 34.833 C 184.778 34.833,183.833 34.896,183.833 35.000 M104.500 36.816 L 104.500 38.500 105.500 38.500 L 106.500 38.500 106.500 45.333 L 106.500 52.167 105.500 52.167 L 104.500 52.167 104.500 53.917 L 104.500 55.667 108.833 55.667 L 113.167 55.667 113.167 53.917 L 113.167 52.167 112.167 52.167 L 111.167 52.167 111.167 50.109 L 111.167 48.051 113.708 47.937 C 115.106 47.874,116.275 47.750,116.306 47.661 C 116.336 47.573,116.507 47.500,116.685 47.500 C 117.223 47.500,118.893 46.851,119.043 46.584 C 119.120 46.446,119.276 46.333,119.390 46.333 C 119.709 46.333,120.756 44.991,121.015 44.249 C 121.143 43.883,121.314 43.536,121.395 43.477 C 121.591 43.336,121.584 39.825,121.388 39.689 C 121.303 39.631,121.142 39.270,121.030 38.887 C 120.764 37.976,119.811 36.851,118.943 36.424 C 118.562 36.237,118.203 36.019,118.146 35.941 C 117.797 35.463,115.959 35.292,110.292 35.213 L 104.500 35.132 104.500 36.816 M196.667 38.750 L 196.667 40.333 195.667 40.333 L 194.667 40.333 194.667 41.917 L 194.667 43.500 195.667 43.500 L 196.667 43.500 196.667 48.187 L 196.667 52.873 197.244 53.824 C 197.630 54.459,198.031 54.881,198.453 55.096 C 198.799 55.272,199.129 55.479,199.184 55.554 C 199.534 56.030,204.344 55.975,204.931 55.488 C 205.103 55.345,205.167 54.874,205.167 53.732 L 205.167 52.171 203.944 52.274 C 201.263 52.501,201.167 52.325,201.167 47.225 L 201.167 43.500 203.167 43.500 L 205.167 43.500 205.167 41.917 L 205.167 40.333 203.167 40.333 L 201.167 40.333 201.167 38.750 L 201.167 37.167 198.917 37.167 L 196.667 37.167 196.667 38.750 M223.667 38.750 L 223.667 40.333 222.667 40.333 L 221.667 40.333 221.667 41.917 L 221.667 43.500 222.667 43.500 L 223.667 43.500 223.667 48.172 C 223.667 53.242,223.704 53.490,224.601 54.435 C 225.807 55.705,227.491 56.131,230.136 55.836 C 232.130 55.614,232.167 55.575,232.167 53.681 L 232.167 52.171 230.944 52.274 C 229.435 52.402,228.546 52.156,228.399 51.570 C 228.343 51.348,228.230 51.167,228.149 51.167 C 228.066 51.167,228.000 49.467,228.000 47.333 L 228.000 43.500 229.917 43.500 L 231.833 43.500 231.833 41.917 L 231.833 40.333 229.917 40.333 L 228.000 40.333 228.000 38.750 L 228.000 37.167 225.833 37.167 L 223.667 37.167 223.667 38.750 M114.618 38.653 C 116.382 39.159,117.306 41.191,116.483 42.752 C 115.755 44.134,114.951 44.498,112.625 44.499 L 111.167 44.500 111.167 41.500 L 111.167 38.500 112.626 38.500 C 113.429 38.500,114.325 38.569,114.618 38.653 M126.764 40.321 C 126.130 40.497,125.545 40.760,125.464 40.904 C 125.383 41.048,125.217 41.167,125.094 41.167 C 124.719 41.167,122.881 43.267,122.662 43.946 C 122.549 44.297,122.388 44.670,122.305 44.775 C 121.788 45.429,121.781 50.629,122.297 50.988 C 122.372 51.040,122.573 51.458,122.743 51.917 C 123.026 52.678,123.210 52.944,124.021 53.767 C 124.777 54.534,125.613 55.049,126.415 55.241 C 126.689 55.306,126.955 55.427,127.005 55.509 C 127.307 55.997,133.983 56.016,134.327 55.529 C 134.376 55.459,134.717 55.330,135.083 55.243 L 135.750 55.083 135.797 53.292 C 135.845 51.499,135.735 51.175,135.242 51.654 C 134.695 52.184,130.744 52.512,129.436 52.136 C 128.195 51.778,127.036 50.625,126.745 49.458 L 126.631 49.000 131.902 49.000 L 137.174 49.000 137.062 47.625 C 137.001 46.869,136.886 46.225,136.808 46.194 C 136.730 46.164,136.667 45.971,136.667 45.766 C 136.667 45.200,136.169 43.645,135.902 43.379 C 135.773 43.249,135.667 43.050,135.667 42.937 C 135.667 42.630,134.306 41.231,133.875 41.096 C 133.669 41.031,133.500 40.915,133.500 40.838 C 133.500 40.138,128.737 39.773,126.764 40.321 M146.475 40.325 C 145.957 40.509,145.282 40.905,144.975 41.205 L 144.417 41.750 144.365 41.042 L 144.314 40.333 141.324 40.333 L 138.333 40.333 138.333 41.917 L 138.333 43.500 139.333 43.500 L 140.333 43.500 140.333 47.833 L 140.333 52.167 139.500 52.167 L 138.667 52.167 138.667 53.917 L 138.667 55.667 142.500 55.667 L 146.333 55.667 146.333 53.917 L 146.333 52.167 145.583 52.167 L 144.833 52.167 144.833 49.018 C 144.833 45.119,145.228 44.000,146.602 44.000 C 146.729 44.000,146.833 43.925,146.833 43.833 C 146.833 43.742,147.171 43.667,147.583 43.667 C 147.996 43.667,148.333 43.742,148.333 43.833 C 148.333 43.925,148.467 44.000,148.630 44.000 C 149.863 44.000,150.331 45.432,150.332 49.208 L 150.333 52.167 149.583 52.167 L 148.833 52.167 148.833 53.917 L 148.833 55.667 152.750 55.667 L 156.667 55.667 156.667 53.917 L 156.667 52.167 155.761 52.167 L 154.855 52.167 154.802 48.125 C 154.739 43.214,154.505 42.496,152.436 40.865 C 151.363 40.018,148.156 39.728,146.475 40.325 M165.968 40.338 C 165.447 40.517,164.817 40.852,164.569 41.082 C 163.980 41.628,163.865 41.610,163.802 40.958 L 163.750 40.417 160.792 40.371 L 157.833 40.326 157.833 41.913 L 157.833 43.500 158.833 43.500 L 159.833 43.500 159.833 47.833 L 159.833 52.167 159.101 52.167 C 158.218 52.167,158.167 52.263,158.167 53.917 C 158.167 55.821,157.819 55.667,162.101 55.667 L 165.833 55.667 165.833 53.917 L 165.833 52.167 165.083 52.167 L 164.333 52.167 164.333 49.061 C 164.333 45.063,164.703 44.000,166.093 44.000 C 166.225 44.000,166.333 43.925,166.333 43.833 C 166.333 43.742,166.624 43.667,166.979 43.667 C 168.185 43.667,169.667 44.811,169.667 45.742 C 169.667 45.884,169.742 46.000,169.833 46.000 C 169.938 46.000,170.000 47.139,170.000 49.083 L 170.000 52.167 169.167 52.167 L 168.333 52.167 168.333 53.917 L 168.333 55.667 172.167 55.667 L 176.000 55.667 176.000 53.917 L 176.000 52.167 175.167 52.167 L 174.333 52.167 174.333 48.805 C 174.333 45.550,174.124 43.333,173.816 43.333 C 173.734 43.333,173.667 43.220,173.667 43.081 C 173.667 40.923,169.049 39.277,165.968 40.338 M210.750 40.096 C 209.324 40.429,208.237 40.737,208.167 40.828 C 208.121 40.887,207.840 41.034,207.542 41.155 L 207.000 41.374 207.000 43.437 L 207.000 45.500 208.750 45.500 L 210.500 45.500 210.500 44.500 C 210.500 43.950,210.556 43.499,210.625 43.499 C 210.694 43.498,211.209 43.423,211.769 43.332 C 213.665 43.024,215.306 43.659,215.327 44.708 C 215.331 44.869,215.408 45.000,215.500 45.000 C 215.592 45.000,215.667 45.289,215.667 45.642 L 215.667 46.284 213.296 46.378 C 211.820 46.436,210.903 46.540,210.866 46.652 C 210.833 46.752,210.622 46.833,210.399 46.833 C 208.994 46.833,206.717 48.412,206.379 49.620 C 206.165 50.386,206.241 52.873,206.493 53.333 C 206.943 54.156,207.711 54.978,208.226 55.186 C 208.514 55.302,208.795 55.464,208.851 55.545 C 209.217 56.079,213.551 55.973,214.107 55.417 C 214.245 55.279,214.447 55.167,214.557 55.167 C 214.667 55.167,215.037 54.936,215.379 54.655 L 216.000 54.142 216.003 54.696 C 216.007 55.672,216.031 55.680,218.846 55.629 L 221.417 55.583 221.417 53.917 L 221.417 52.250 220.638 52.200 L 219.859 52.149 219.804 47.985 C 219.768 45.184,219.690 43.782,219.566 43.702 C 219.465 43.637,219.287 43.293,219.172 42.939 C 218.944 42.241,217.821 41.000,217.417 41.000 C 217.279 41.000,217.167 40.932,217.167 40.849 C 217.167 40.335,212.216 39.754,210.750 40.096 M238.250 40.104 C 237.284 40.348,236.333 40.710,236.333 40.835 C 236.333 40.914,236.172 41.029,235.976 41.091 C 235.516 41.237,234.167 42.477,234.167 42.753 C 234.167 42.869,234.059 43.006,233.928 43.056 C 233.797 43.106,233.555 43.583,233.391 44.115 C 233.227 44.648,233.015 45.137,232.921 45.202 C 232.686 45.365,232.690 50.638,232.925 50.798 C 233.022 50.863,233.232 51.268,233.393 51.698 C 233.941 53.158,235.351 54.567,236.803 55.103 C 237.232 55.261,237.671 55.457,237.778 55.537 C 238.394 56.003,244.841 55.993,245.159 55.526 C 245.209 55.452,245.606 55.294,246.042 55.174 L 246.833 54.957 246.833 53.306 C 246.833 51.526,246.667 51.211,245.963 51.651 C 244.280 52.702,239.891 52.477,238.663 51.276 C 237.796 50.429,237.653 50.211,237.550 49.578 L 237.456 49.000 242.670 49.000 L 247.883 49.000 247.775 47.476 C 247.716 46.637,247.604 45.868,247.528 45.767 C 247.451 45.666,247.255 45.077,247.092 44.458 C 246.930 43.840,246.735 43.333,246.659 43.333 C 246.584 43.333,246.473 43.178,246.413 42.988 C 246.271 42.540,244.999 41.167,244.727 41.167 C 244.611 41.167,244.455 41.057,244.380 40.923 C 244.030 40.297,239.751 39.726,238.250 40.104 M47.068 41.778 C 45.768 43.198,45.745 46.510,47.017 49.045 C 47.881 50.767,48.151 50.811,49.622 49.473 C 50.242 48.908,50.994 48.301,51.292 48.123 C 51.955 47.728,51.968 47.436,51.364 46.487 C 50.550 45.207,49.722 43.782,49.242 42.833 C 48.329 41.028,47.932 40.835,47.068 41.778 M130.884 43.414 C 131.210 43.550,131.524 43.812,131.582 43.996 C 131.641 44.181,131.791 44.434,131.916 44.558 C 132.040 44.683,132.194 45.059,132.257 45.393 L 132.370 46.000 129.519 46.000 C 127.348 46.000,126.667 45.950,126.668 45.792 C 126.670 45.288,127.028 44.358,127.253 44.272 C 127.389 44.220,127.500 44.072,127.500 43.943 C 127.500 43.279,129.728 42.931,130.884 43.414 M241.563 43.419 C 241.895 43.558,242.167 43.731,242.167 43.804 C 242.167 43.877,242.325 44.107,242.517 44.314 C 242.710 44.521,242.908 44.985,242.956 45.345 L 243.044 46.000 240.177 46.000 C 237.390 46.000,237.313 45.991,237.405 45.667 C 237.457 45.483,237.548 45.165,237.606 44.958 C 237.664 44.752,237.761 44.546,237.822 44.500 C 237.883 44.454,238.099 44.178,238.303 43.886 C 238.507 43.594,238.841 43.323,239.045 43.284 C 239.883 43.122,240.995 43.182,241.563 43.419 M73.811 45.008 C 73.070 45.796,72.000 47.265,72.000 47.493 C 72.000 47.549,72.238 47.735,72.529 47.907 C 72.820 48.079,73.345 48.479,73.696 48.796 C 74.479 49.504,74.631 49.416,75.236 47.906 C 75.734 46.661,75.785 45.593,75.386 44.756 C 75.011 43.969,74.746 44.011,73.811 45.008 M215.667 49.500 C 215.667 49.683,215.592 49.833,215.500 49.833 C 215.408 49.833,215.333 49.956,215.333 50.107 C 215.333 50.968,214.149 52.333,213.403 52.333 C 213.273 52.333,213.167 52.408,213.167 52.500 C 213.167 52.592,212.904 52.667,212.583 52.667 C 212.262 52.667,212.000 52.592,212.000 52.500 C 212.000 52.408,211.875 52.333,211.721 52.333 C 211.376 52.333,210.833 51.859,210.833 51.558 C 210.833 51.434,210.758 51.333,210.667 51.333 C 210.297 51.333,210.535 50.599,211.080 50.053 C 211.911 49.222,215.667 48.769,215.667 49.500 M57.535 51.600 C 56.133 52.321,55.381 53.070,54.673 54.449 C 53.841 56.068,53.963 56.414,55.370 56.428 C 56.163 56.436,56.578 56.519,56.793 56.713 C 57.303 57.175,58.281 57.500,59.161 57.500 C 60.131 57.500,60.252 57.276,59.430 57.004 C 58.680 56.757,57.468 55.454,57.610 55.048 C 57.780 54.567,58.535 53.828,59.212 53.480 C 61.373 52.368,63.829 54.130,62.836 56.078 C 62.416 56.903,62.455 56.927,63.308 56.374 C 67.375 53.737,62.008 49.299,57.535 51.600 M194.917 64.486 C 193.470 65.188,192.915 66.081,192.654 68.125 L 192.456 69.667 191.645 69.667 L 190.833 69.667 190.833 70.667 L 190.833 71.667 191.667 71.667 L 192.500 71.667 192.500 76.583 L 192.500 81.500 193.750 81.500 L 195.000 81.500 195.000 76.583 L 195.000 71.667 196.333 71.667 L 197.667 71.667 197.667 70.667 L 197.667 69.667 196.333 69.667 L 195.000 69.667 195.000 68.764 C 195.000 68.267,195.056 67.836,195.125 67.806 C 195.194 67.775,195.378 67.473,195.535 67.134 C 195.859 66.433,196.460 66.229,197.773 66.377 C 198.605 66.471,198.590 66.487,198.734 65.282 C 198.896 63.924,196.922 63.512,194.917 64.486 M70.333 64.321 C 67.707 64.701,66.455 66.354,68.625 66.576 C 70.894 66.808,71.618 67.494,71.079 68.904 C 70.333 70.858,71.772 70.271,72.740 68.225 C 73.187 67.281,73.474 67.079,75.000 66.635 C 76.130 66.306,76.238 65.032,75.173 64.605 C 74.378 64.287,71.667 64.128,70.333 64.321 M367.500 72.917 L 367.500 81.500 368.750 81.500 L 370.000 81.500 370.000 72.917 L 370.000 64.333 368.750 64.333 L 367.500 64.333 367.500 72.917 M231.000 64.939 C 230.679 64.978,230.267 65.077,230.083 65.159 C 229.900 65.241,229.306 65.440,228.763 65.603 C 228.220 65.765,227.659 66.033,227.517 66.199 C 227.375 66.364,227.189 66.500,227.103 66.500 C 226.868 66.500,225.334 68.053,225.334 68.292 C 225.333 68.406,225.271 68.500,225.194 68.500 C 225.117 68.500,224.799 69.044,224.488 69.708 L 223.922 70.917 223.919 73.500 C 223.917 75.586,223.971 76.196,224.198 76.667 C 224.353 76.987,224.593 77.531,224.731 77.875 C 224.870 78.219,225.062 78.500,225.158 78.500 C 225.255 78.500,225.333 78.599,225.333 78.720 C 225.333 78.953,226.907 80.500,227.144 80.500 C 227.220 80.500,227.451 80.647,227.658 80.826 C 228.602 81.644,233.365 81.942,235.555 81.319 L 236.360 81.090 236.248 80.337 C 236.187 79.922,236.069 79.558,235.985 79.528 C 235.902 79.497,235.833 79.366,235.833 79.236 C 235.833 78.942,235.777 78.944,234.750 79.261 C 233.198 79.742,229.000 79.423,229.000 78.825 C 229.000 78.753,228.756 78.543,228.458 78.358 C 228.160 78.173,227.767 77.736,227.585 77.386 C 227.402 77.036,227.193 76.706,227.119 76.652 C 226.222 75.999,226.391 70.806,227.342 69.785 C 227.521 69.594,227.667 69.344,227.667 69.230 C 227.667 69.116,227.910 68.852,228.208 68.642 C 228.506 68.433,228.825 68.172,228.917 68.062 C 229.111 67.828,230.529 67.333,231.006 67.333 C 231.186 67.333,231.333 67.258,231.333 67.167 C 231.333 66.956,233.239 66.947,233.627 67.156 C 233.918 67.312,235.327 67.667,235.657 67.667 C 235.754 67.667,235.833 67.523,235.833 67.347 C 235.833 67.172,235.917 67.000,236.020 66.966 C 236.593 66.775,236.257 65.588,235.583 65.426 C 235.217 65.337,234.878 65.211,234.832 65.145 C 234.727 64.998,231.801 64.840,231.000 64.939 M105.167 73.417 L 105.167 81.500 106.417 81.500 L 107.667 81.500 107.667 73.417 L 107.667 65.333 106.417 65.333 L 105.167 65.333 105.167 73.417 M141.667 65.455 C 141.171 65.643,140.949 67.064,141.323 67.655 C 141.542 68.002,143.322 68.097,143.740 67.784 C 144.197 67.441,144.204 65.895,143.750 65.563 C 143.441 65.336,142.153 65.270,141.667 65.455 M324.405 65.680 C 323.521 66.656,324.212 68.000,325.597 68.000 C 326.724 68.000,327.000 67.738,327.000 66.667 C 327.000 65.352,325.290 64.702,324.405 65.680 M134.750 66.725 L 133.917 66.918 133.868 68.292 L 133.820 69.667 133.077 69.667 L 132.333 69.667 132.333 70.667 L 132.333 71.667 133.083 71.667 L 133.833 71.667 133.833 75.083 C 133.833 76.962,133.898 78.500,133.977 78.500 C 134.056 78.500,134.163 78.860,134.215 79.299 C 134.409 80.936,135.008 81.486,136.752 81.626 C 139.154 81.818,139.538 81.567,139.226 80.005 C 139.121 79.478,139.107 79.471,138.394 79.578 C 136.661 79.838,136.505 79.464,136.502 75.042 L 136.500 71.667 137.917 71.667 L 139.333 71.667 139.333 70.667 L 139.333 69.667 137.917 69.667 L 136.500 69.667 136.500 68.083 L 136.500 66.500 136.042 66.516 C 135.790 66.525,135.208 66.619,134.750 66.725 M148.125 66.704 L 147.333 66.869 147.333 68.268 L 147.333 69.667 146.417 69.667 L 145.500 69.667 145.500 70.667 L 145.500 71.667 146.417 71.667 L 147.333 71.667 147.333 75.500 C 147.333 77.944,147.394 79.333,147.500 79.333 C 147.592 79.333,147.667 79.493,147.667 79.689 C 147.667 80.879,148.875 81.668,150.692 81.664 C 152.629 81.661,152.667 81.638,152.667 80.459 L 152.667 79.456 151.965 79.550 C 149.986 79.816,149.833 79.491,149.833 75.005 L 149.833 71.667 151.333 71.667 L 152.833 71.667 152.833 70.667 L 152.833 69.667 151.333 69.667 L 149.833 69.667 149.833 68.083 L 149.833 66.500 149.375 66.520 C 149.123 66.531,148.560 66.614,148.125 66.704 M169.042 66.710 L 168.333 66.881 168.333 68.274 L 168.333 69.667 167.417 69.667 L 166.500 69.667 166.500 70.667 L 166.500 71.667 167.406 71.667 L 168.313 71.667 168.365 75.879 C 168.421 80.478,168.435 80.539,169.531 81.307 C 169.931 81.587,172.004 81.766,172.903 81.597 L 173.500 81.485 173.500 80.497 L 173.500 79.509 172.485 79.546 C 170.754 79.610,170.669 79.402,170.667 75.125 L 170.667 71.667 172.167 71.667 L 173.667 71.667 173.667 70.667 L 173.667 69.667 172.167 69.667 L 170.667 69.667 170.667 68.083 L 170.667 66.500 170.208 66.520 C 169.956 66.531,169.431 66.617,169.042 66.710 M298.625 66.704 L 297.833 66.869 297.833 68.268 L 297.833 69.667 296.917 69.667 L 296.000 69.667 296.000 70.667 L 296.000 71.667 296.917 71.667 L 297.833 71.667 297.833 75.500 C 297.833 77.944,297.894 79.333,298.000 79.333 C 298.092 79.333,298.167 79.493,298.167 79.689 C 298.167 80.879,299.375 81.668,301.192 81.664 C 303.129 81.661,303.167 81.638,303.167 80.459 L 303.167 79.456 302.465 79.550 C 300.486 79.816,300.333 79.491,300.333 75.005 L 300.333 71.667 301.833 71.667 L 303.333 71.667 303.333 70.667 L 303.333 69.667 301.833 69.667 L 300.333 69.667 300.333 68.083 L 300.333 66.500 299.875 66.520 C 299.623 66.531,299.060 66.614,298.625 66.704 M317.708 66.710 L 317.000 66.881 317.000 68.274 L 317.000 69.667 316.083 69.667 L 315.167 69.667 315.167 70.667 L 315.167 71.667 316.083 71.667 L 317.000 71.667 317.004 75.292 C 317.010 80.904,317.418 81.667,320.411 81.667 C 322.142 81.667,322.167 81.650,322.167 80.460 L 322.167 79.456 321.485 79.548 C 320.502 79.679,319.839 79.404,319.721 78.814 C 319.668 78.550,319.559 78.333,319.479 78.333 C 319.399 78.333,319.333 76.833,319.333 75.000 L 319.333 71.667 320.917 71.667 L 322.500 71.667 322.500 70.667 L 322.500 69.667 320.917 69.667 L 319.333 69.667 319.333 68.083 L 319.333 66.500 318.875 66.520 C 318.623 66.531,318.098 66.617,317.708 66.710 M115.106 69.744 C 114.540 69.946,113.664 70.594,113.297 71.083 C 113.228 71.175,113.171 70.894,113.169 70.458 L 113.167 69.667 112.083 69.667 L 111.000 69.667 111.000 75.583 L 111.000 81.500 112.250 81.500 L 113.500 81.500 113.500 77.500 C 113.500 74.996,113.561 73.500,113.663 73.500 C 113.753 73.500,113.873 73.316,113.930 73.091 C 114.416 71.153,118.333 71.267,118.333 73.219 C 118.333 73.373,118.408 73.500,118.500 73.500 C 118.606 73.500,118.667 74.944,118.667 77.500 L 118.667 81.500 119.931 81.500 L 121.195 81.500 121.124 77.125 C 121.053 72.817,120.932 71.789,120.437 71.294 C 120.317 71.174,120.130 70.909,120.020 70.705 C 119.911 70.501,119.720 70.333,119.595 70.333 C 119.471 70.333,119.328 70.226,119.277 70.094 C 119.059 69.527,116.353 69.300,115.106 69.744 M125.913 69.677 C 124.335 70.136,123.227 72.489,123.836 74.089 C 124.039 74.625,124.992 75.667,125.278 75.667 C 125.391 75.667,125.548 75.782,125.627 75.924 C 125.706 76.065,126.172 76.286,126.662 76.416 C 127.153 76.545,127.607 76.736,127.671 76.840 C 127.736 76.945,127.962 77.117,128.174 77.223 C 128.977 77.625,128.895 79.063,128.047 79.458 C 127.385 79.767,125.952 79.711,124.880 79.335 C 123.905 78.992,123.677 79.054,123.668 79.667 C 123.666 79.804,123.557 80.124,123.425 80.377 C 122.637 81.886,128.589 82.194,130.173 80.726 C 131.755 79.259,131.584 76.186,129.875 75.365 C 129.577 75.222,129.333 75.050,129.333 74.983 C 129.333 74.916,128.838 74.696,128.233 74.494 C 126.282 73.845,125.634 72.927,126.484 72.018 C 127.139 71.316,129.415 71.323,129.851 72.028 C 130.122 72.467,130.833 71.138,130.833 70.192 C 130.833 69.651,127.281 69.279,125.913 69.677 M178.243 69.687 C 176.319 70.121,174.619 72.959,174.611 75.750 C 174.607 77.192,175.166 79.280,175.602 79.447 C 175.729 79.496,175.833 79.627,175.833 79.739 C 175.833 79.949,176.518 80.667,176.719 80.667 C 176.782 80.667,176.973 80.806,177.143 80.977 C 177.828 81.662,181.863 81.878,183.730 81.329 L 184.376 81.139 184.266 80.203 C 184.130 79.043,184.244 79.113,182.982 79.411 C 180.868 79.909,178.637 79.580,178.060 78.684 C 177.907 78.445,177.689 78.195,177.576 78.127 C 177.463 78.060,177.321 77.722,177.260 77.377 C 177.199 77.032,177.110 76.619,177.063 76.458 C 176.983 76.186,177.246 76.167,180.976 76.167 L 184.974 76.167 185.087 75.651 C 185.294 74.707,184.798 72.127,184.309 71.602 C 184.139 71.420,184.000 71.174,184.000 71.056 C 184.000 70.938,183.794 70.709,183.542 70.548 C 183.290 70.387,183.008 70.169,182.917 70.065 C 182.449 69.534,179.854 69.324,178.243 69.687 M201.791 69.738 C 200.795 70.093,199.186 71.447,199.172 71.941 C 199.169 72.045,199.060 72.172,198.930 72.222 C 197.976 72.588,198.061 79.333,199.020 79.333 C 199.105 79.333,199.245 79.517,199.330 79.741 C 199.415 79.966,199.695 80.283,199.951 80.447 C 200.207 80.611,200.492 80.829,200.583 80.930 C 201.219 81.636,205.051 81.870,206.468 81.289 C 207.996 80.663,209.500 78.526,209.500 76.981 C 209.500 76.716,209.575 76.500,209.667 76.500 C 209.759 76.500,209.833 76.056,209.833 75.500 C 209.833 74.950,209.768 74.500,209.688 74.500 C 209.608 74.500,209.492 74.113,209.429 73.641 C 209.307 72.722,208.992 71.989,208.482 71.443 C 208.309 71.256,208.167 71.056,208.167 70.997 C 208.167 69.973,203.639 69.079,201.791 69.738 M215.667 69.722 C 215.438 69.829,215.036 70.134,214.775 70.399 C 214.261 70.922,214.008 70.805,214.003 70.042 C 214.000 69.691,213.929 69.667,212.894 69.667 L 211.788 69.667 211.894 70.440 C 211.952 70.865,212.000 73.528,212.000 76.357 L 212.000 81.500 213.167 81.500 L 214.333 81.500 214.333 78.033 C 214.333 76.127,214.395 74.495,214.471 74.408 C 214.547 74.321,214.710 73.927,214.834 73.532 C 214.976 73.079,215.249 72.680,215.572 72.454 C 215.853 72.257,216.108 72.036,216.139 71.964 C 216.169 71.892,216.601 71.833,217.097 71.833 L 218.000 71.833 218.000 70.667 L 218.000 69.500 217.042 69.514 C 216.515 69.521,215.896 69.615,215.667 69.722 M240.875 69.777 C 240.485 69.915,240.167 70.097,240.167 70.181 C 240.167 70.265,240.055 70.333,239.919 70.333 C 239.620 70.333,238.167 71.794,238.167 72.096 C 238.167 72.213,238.060 72.416,237.930 72.546 C 237.252 73.224,237.149 78.003,237.801 78.496 C 237.865 78.544,238.084 78.940,238.290 79.375 C 238.495 79.810,238.720 80.167,238.791 80.167 C 238.862 80.167,239.113 80.346,239.350 80.565 C 240.502 81.633,244.047 82.041,245.710 81.296 C 248.354 80.112,249.831 75.754,248.532 72.967 C 248.331 72.537,248.167 72.139,248.167 72.083 C 248.167 71.896,246.932 70.500,246.767 70.500 C 246.678 70.500,246.450 70.363,246.261 70.195 C 245.470 69.494,242.357 69.252,240.875 69.777 M255.077 69.668 C 254.799 69.754,254.358 70.047,254.097 70.319 C 253.578 70.861,253.167 70.725,253.167 70.012 C 253.167 69.697,253.068 69.667,252.060 69.667 L 250.953 69.667 251.060 70.691 C 251.118 71.255,251.167 73.917,251.167 76.608 L 251.167 81.500 252.417 81.500 L 253.667 81.500 253.667 77.661 C 253.667 72.947,254.019 71.919,255.748 71.595 C 257.775 71.214,258.333 72.523,258.333 77.656 L 258.333 81.500 259.500 81.500 L 260.667 81.500 260.667 78.106 C 260.667 73.278,260.992 72.192,262.594 71.663 C 263.159 71.477,264.500 71.696,264.500 71.975 C 264.500 72.046,264.644 72.258,264.819 72.447 C 265.382 73.051,265.498 73.961,265.499 77.792 L 265.500 81.500 266.681 81.500 L 267.861 81.500 267.799 76.958 C 267.714 70.675,267.127 69.529,263.979 69.508 C 262.283 69.496,261.882 69.632,260.975 70.524 C 260.022 71.463,260.039 71.457,259.840 70.933 C 259.408 69.797,256.852 69.118,255.077 69.668 M275.048 69.721 C 274.753 69.829,274.210 70.187,273.840 70.518 L 273.167 71.119 273.167 70.393 L 273.167 69.667 271.917 69.667 L 270.667 69.667 270.667 70.250 C 270.667 70.571,270.742 70.833,270.833 70.833 C 270.942 70.833,271.000 73.500,271.000 78.500 L 271.000 86.167 272.167 86.167 L 273.333 86.167 273.333 83.319 L 273.333 80.470 273.814 80.875 C 275.270 82.100,278.837 81.893,280.336 80.496 C 282.017 78.930,282.850 73.314,281.545 72.345 C 281.474 72.293,281.271 71.963,281.092 71.613 C 280.212 69.885,277.190 68.938,275.048 69.721 M306.917 69.656 C 305.424 70.019,305.076 70.431,305.351 71.506 C 305.566 72.346,305.980 72.615,306.283 72.112 C 306.708 71.408,309.614 71.238,310.349 71.875 C 311.618 72.976,311.502 73.833,310.083 73.833 C 309.487 73.833,309.000 73.899,309.000 73.979 C 309.000 74.058,308.612 74.175,308.139 74.238 C 303.017 74.917,302.896 81.667,308.006 81.667 C 309.307 81.667,310.780 81.245,311.015 80.805 C 311.262 80.343,311.500 80.439,311.500 81.000 L 311.500 81.500 312.667 81.500 L 313.833 81.500 313.833 80.250 C 313.833 79.563,313.764 79.000,313.679 79.000 C 313.590 79.000,313.501 77.489,313.470 75.458 C 313.406 71.216,313.099 70.417,311.266 69.721 C 310.700 69.507,307.714 69.462,306.917 69.656 M332.791 69.728 C 332.447 69.856,331.909 70.157,331.594 70.397 C 331.280 70.637,330.942 70.833,330.844 70.833 C 330.747 70.833,330.667 70.913,330.667 71.010 C 330.667 71.107,330.451 71.463,330.187 71.801 C 329.672 72.463,329.333 73.311,329.333 73.942 C 329.333 74.157,329.258 74.333,329.167 74.333 C 328.959 74.333,328.943 76.727,329.149 77.127 C 329.230 77.286,329.423 77.852,329.577 78.385 C 329.731 78.917,329.964 79.394,330.095 79.444 C 330.226 79.494,330.333 79.635,330.333 79.756 C 330.333 79.877,330.540 80.130,330.792 80.318 C 331.044 80.506,331.362 80.760,331.500 80.884 C 332.378 81.671,336.066 81.897,337.499 81.250 C 338.667 80.724,339.833 79.453,340.236 78.267 C 341.294 75.151,340.381 71.711,338.106 70.238 C 336.966 69.500,334.131 69.228,332.791 69.728 M346.867 69.717 C 346.564 69.831,346.264 69.999,346.200 70.091 C 346.136 70.183,345.882 70.386,345.635 70.543 L 345.187 70.827 345.135 70.289 L 345.083 69.750 343.935 69.700 L 342.786 69.650 342.893 70.432 C 342.952 70.862,343.000 73.528,343.000 76.357 L 343.000 81.500 344.158 81.500 L 345.316 81.500 345.367 77.472 C 345.404 74.434,345.468 73.427,345.625 73.375 C 345.740 73.337,345.833 73.208,345.833 73.089 C 345.833 72.719,347.135 71.668,347.625 71.642 C 349.057 71.563,350.061 72.186,350.267 73.281 C 350.324 73.585,350.437 73.833,350.519 73.833 C 350.601 73.833,350.667 75.542,350.667 77.667 L 350.667 81.500 351.833 81.500 L 353.000 81.500 353.000 77.228 C 353.000 73.128,352.870 71.771,352.451 71.481 C 352.370 71.424,352.216 71.209,352.110 71.002 C 351.475 69.767,348.604 69.063,346.867 69.717 M357.505 69.749 C 357.004 69.870,356.566 70.051,356.533 70.151 C 356.500 70.251,356.356 70.333,356.214 70.333 C 355.911 70.333,356.012 71.698,356.323 71.802 C 356.420 71.834,356.500 71.967,356.500 72.097 C 356.500 72.395,356.742 72.400,357.034 72.108 C 357.622 71.521,359.847 71.258,360.820 71.661 C 361.379 71.893,361.718 72.399,361.910 73.292 L 362.026 73.833 360.847 73.833 C 360.171 73.833,359.667 73.905,359.667 74.000 C 359.667 74.092,359.477 74.167,359.246 74.167 C 358.756 74.167,356.983 74.762,356.844 74.973 C 356.792 75.052,356.587 75.203,356.388 75.307 C 356.021 75.500,355.500 76.363,355.500 76.776 C 355.500 76.899,355.425 77.000,355.333 77.000 C 355.237 77.000,355.167 77.528,355.167 78.250 C 355.167 78.972,355.237 79.500,355.333 79.500 C 355.425 79.500,355.500 79.620,355.500 79.766 C 355.500 81.588,360.947 82.490,361.842 80.817 C 362.084 80.366,362.303 80.425,362.364 80.958 C 362.415 81.400,362.455 81.418,363.506 81.465 L 364.594 81.514 364.545 78.215 C 364.517 76.401,364.477 74.354,364.455 73.667 C 364.345 70.260,361.658 68.745,357.505 69.749 M141.333 75.583 L 141.333 81.500 142.583 81.500 L 143.833 81.500 143.833 75.583 L 143.833 69.667 142.583 69.667 L 141.333 69.667 141.333 75.583 M154.667 73.644 C 154.667 80.257,155.230 81.442,158.461 81.629 C 160.130 81.726,161.091 81.487,161.856 80.787 L 162.417 80.273 162.468 80.886 L 162.520 81.500 163.696 81.500 C 164.834 81.500,164.869 81.488,164.772 81.125 C 164.716 80.919,164.670 78.256,164.669 75.208 L 164.667 69.667 163.500 69.667 L 162.333 69.667 162.333 73.500 C 162.333 75.944,162.273 77.333,162.167 77.333 C 162.075 77.333,162.000 77.460,162.000 77.615 C 162.000 79.361,158.723 80.280,157.836 78.783 C 157.662 78.490,157.427 78.145,157.313 78.016 C 157.165 77.850,157.085 76.625,157.031 73.725 L 156.956 69.667 155.811 69.667 L 154.667 69.667 154.667 73.644 M284.192 74.089 C 284.233 77.205,284.307 78.548,284.443 78.632 C 284.549 78.697,284.689 79.035,284.755 79.382 C 285.199 81.753,290.023 82.603,291.693 80.604 L 291.989 80.250 291.994 80.625 C 291.998 80.831,292.075 81.000,292.167 81.000 C 292.258 81.000,292.333 81.112,292.333 81.250 C 292.333 81.447,292.568 81.500,293.441 81.500 L 294.549 81.500 294.441 80.225 C 294.382 79.524,294.333 76.861,294.333 74.308 L 294.333 69.667 293.094 69.667 L 291.854 69.667 291.802 73.848 C 291.751 77.953,291.743 78.035,291.375 78.333 C 291.169 78.500,291.000 78.710,291.000 78.799 C 291.000 78.961,290.247 79.363,289.550 79.573 C 288.991 79.742,287.943 79.391,287.508 78.890 C 286.920 78.214,286.842 77.580,286.837 73.458 L 286.833 69.667 285.484 69.667 L 284.134 69.667 284.192 74.089 M324.500 75.583 L 324.500 81.500 325.667 81.500 L 326.833 81.500 326.833 75.583 L 326.833 69.667 325.667 69.667 L 324.500 69.667 324.500 75.583 M181.147 71.614 C 181.790 71.893,182.502 72.953,182.721 73.958 L 182.802 74.333 179.984 74.333 C 176.915 74.333,176.948 74.346,177.372 73.383 C 177.484 73.126,177.618 72.879,177.669 72.833 C 177.720 72.787,177.934 72.525,178.144 72.250 C 178.811 71.378,180.014 71.124,181.147 71.614 M205.737 72.173 C 206.138 72.543,206.518 73.048,206.580 73.296 C 206.642 73.544,206.781 73.801,206.888 73.867 C 207.169 74.041,207.157 77.198,206.875 77.292 C 206.760 77.330,206.667 77.468,206.667 77.600 C 206.667 78.992,204.003 80.202,202.667 79.417 C 202.438 79.282,202.137 79.129,202.000 79.077 C 201.862 79.025,201.601 78.667,201.419 78.283 C 201.237 77.898,201.012 77.530,200.919 77.464 C 200.669 77.288,200.697 73.795,200.949 73.711 C 201.058 73.675,201.231 73.393,201.333 73.086 C 201.875 71.441,204.380 70.922,205.737 72.173 M244.321 71.660 C 246.933 73.058,246.956 78.343,244.355 79.431 C 243.235 79.900,241.000 79.455,241.000 78.764 C 241.000 78.639,240.897 78.496,240.770 78.447 C 240.479 78.336,240.000 76.950,240.000 76.220 C 240.000 75.896,239.914 75.661,239.792 75.654 C 239.625 75.643,239.625 75.624,239.792 75.556 C 239.906 75.510,240.000 75.267,240.000 75.016 C 240.000 72.597,242.477 70.673,244.321 71.660 M277.419 71.698 C 280.176 72.954,280.270 78.283,277.555 79.418 C 274.711 80.606,272.497 77.601,273.516 73.933 C 273.982 72.254,276.046 71.072,277.419 71.698 M336.737 72.173 C 337.138 72.543,337.518 73.048,337.580 73.296 C 337.642 73.544,337.781 73.801,337.888 73.867 C 338.169 74.041,338.157 77.198,337.875 77.292 C 337.760 77.330,337.667 77.468,337.667 77.600 C 337.667 79.562,333.537 80.406,332.591 78.636 C 331.586 76.758,331.623 76.895,331.698 75.334 C 331.747 74.300,331.849 73.757,332.031 73.549 C 332.176 73.384,332.344 73.085,332.406 72.883 C 332.848 71.431,335.466 71.001,336.737 72.173 M71.746 74.850 C 73.274 75.235,73.439 76.047,72.223 77.198 C 70.170 79.140,62.305 78.753,62.694 76.729 C 62.938 75.462,69.098 74.183,71.746 74.850 M311.167 76.865 C 311.167 78.504,310.309 79.667,309.100 79.667 C 308.953 79.667,308.833 79.742,308.833 79.833 C 308.833 79.925,308.721 80.000,308.583 80.000 C 308.446 80.000,308.333 79.925,308.333 79.833 C 308.333 79.742,308.207 79.667,308.052 79.667 C 307.676 79.667,307.000 79.014,307.000 78.652 C 307.000 78.492,306.923 78.335,306.829 78.304 C 306.503 78.196,307.472 76.502,307.961 76.325 C 308.212 76.234,308.567 76.092,308.750 76.009 C 309.346 75.739,309.571 75.693,310.375 75.680 L 311.167 75.667 311.167 76.865 M362.000 76.757 C 362.000 78.424,361.159 79.667,360.030 79.667 C 359.845 79.667,359.666 79.752,359.631 79.856 C 359.584 79.997,359.486 79.997,359.242 79.856 C 359.063 79.752,358.709 79.593,358.455 79.503 C 357.250 79.075,357.459 77.081,358.779 76.408 C 359.130 76.230,359.454 76.034,359.501 75.973 C 359.602 75.840,360.333 75.725,361.292 75.692 L 362.000 75.667 362.000 76.757 M137.500 91.696 L 137.500 94.891 137.125 94.550 C 135.007 92.621,130.363 93.910,129.499 96.667 C 129.370 97.079,129.186 97.470,129.090 97.535 C 128.768 97.756,128.872 101.818,129.220 102.583 C 129.802 103.864,129.893 104.002,130.609 104.673 C 132.055 106.028,136.159 106.417,136.610 105.241 C 136.661 105.109,136.782 105.000,136.880 105.000 C 136.977 105.000,137.194 104.876,137.362 104.724 C 137.652 104.462,137.667 104.478,137.667 105.058 L 137.667 105.667 138.875 105.667 L 140.083 105.667 140.040 97.292 C 139.990 87.502,140.145 88.500,138.672 88.500 L 137.500 88.500 137.500 91.696 M150.042 89.279 C 149.377 89.317,148.833 89.420,148.833 89.507 C 148.833 89.595,148.683 89.667,148.500 89.667 C 148.171 89.667,148.167 89.778,148.167 97.644 L 148.167 105.621 148.940 105.727 C 151.048 106.016,156.354 105.645,156.661 105.187 C 156.710 105.114,157.006 104.967,157.319 104.860 C 157.877 104.669,159.666 103.394,159.667 103.188 C 159.667 103.130,159.851 102.869,160.077 102.607 C 160.302 102.345,160.615 101.783,160.772 101.357 C 160.929 100.932,161.122 100.498,161.201 100.393 C 161.682 99.754,161.662 94.306,161.177 94.007 C 161.096 93.957,160.900 93.578,160.741 93.166 C 160.582 92.754,160.364 92.342,160.255 92.250 C 160.147 92.158,159.936 91.896,159.787 91.667 C 159.638 91.438,159.233 91.100,158.887 90.917 C 158.541 90.733,158.141 90.468,157.997 90.327 C 157.854 90.186,157.290 89.965,156.743 89.836 C 156.197 89.708,155.710 89.546,155.662 89.476 C 155.553 89.320,151.693 89.185,150.042 89.279 M201.658 89.619 C 200.214 90.343,199.167 91.558,199.167 92.508 C 199.167 92.687,199.092 92.833,199.000 92.833 C 198.908 92.833,198.833 93.171,198.833 93.583 C 198.833 93.996,198.899 94.333,198.979 94.333 C 199.059 94.333,199.173 94.638,199.232 95.011 C 199.426 96.218,201.703 98.167,202.921 98.167 C 203.056 98.167,203.167 98.240,203.167 98.330 C 203.167 98.420,203.373 98.543,203.625 98.603 C 204.251 98.752,205.039 99.191,205.295 99.533 C 205.412 99.689,205.637 99.947,205.795 100.105 C 206.854 101.163,205.725 103.332,203.928 103.693 C 202.847 103.910,200.836 103.646,200.422 103.232 C 200.053 102.862,199.167 102.733,199.167 103.049 C 199.167 103.190,199.093 103.331,199.002 103.361 C 198.698 103.464,198.583 105.000,198.880 105.000 C 199.022 105.000,199.165 105.077,199.196 105.171 C 199.501 106.087,206.208 106.001,206.563 105.076 C 206.614 104.942,206.759 104.833,206.884 104.833 C 207.439 104.833,208.500 103.141,208.500 102.255 C 208.500 102.023,208.575 101.833,208.667 101.833 C 208.758 101.833,208.833 101.533,208.833 101.167 C 208.833 100.800,208.758 100.500,208.667 100.500 C 208.575 100.500,208.500 100.310,208.500 100.078 C 208.500 99.534,208.069 98.500,207.842 98.500 C 207.745 98.500,207.667 98.396,207.667 98.269 C 207.667 98.142,207.462 97.904,207.213 97.741 C 206.963 97.577,206.623 97.317,206.458 97.163 C 206.293 97.009,205.841 96.789,205.454 96.673 C 205.067 96.558,204.713 96.411,204.667 96.348 C 204.621 96.285,204.226 96.099,203.789 95.935 C 203.352 95.771,202.902 95.545,202.789 95.432 C 202.676 95.320,202.379 95.094,202.130 94.931 C 201.127 94.276,201.300 92.654,202.461 91.818 C 203.281 91.228,205.661 90.971,205.970 91.439 C 206.074 91.599,207.055 92.000,207.340 92.000 C 207.407 92.000,207.512 91.737,207.572 91.417 C 207.633 91.096,207.753 90.833,207.841 90.833 C 207.928 90.833,208.000 90.608,208.000 90.333 C 208.000 90.011,207.915 89.833,207.762 89.833 C 207.631 89.833,207.394 89.704,207.236 89.546 C 206.679 88.988,202.813 89.039,201.658 89.619 M222.064 89.559 C 220.714 91.103,222.057 92.955,223.895 92.083 C 224.694 91.703,224.790 90.471,224.076 89.758 C 223.604 89.286,222.406 89.167,222.064 89.559 M176.917 90.780 C 176.733 90.821,176.340 90.931,176.042 91.024 L 175.500 91.193 175.500 92.504 L 175.500 93.816 174.625 93.866 L 173.750 93.917 173.700 94.875 L 173.650 95.833 174.575 95.833 L 175.500 95.833 175.500 99.490 C 175.500 101.748,175.564 103.186,175.667 103.250 C 175.758 103.307,175.833 103.550,175.833 103.791 C 175.833 105.149,177.033 105.873,179.167 105.802 L 180.750 105.750 180.800 104.702 L 180.850 103.653 180.050 103.757 C 178.201 103.998,178.000 103.534,178.000 99.022 L 178.000 95.833 179.500 95.833 L 181.000 95.833 181.000 94.833 L 181.000 93.833 179.500 93.833 L 178.000 93.833 178.000 92.250 C 178.000 90.523,178.009 90.535,176.917 90.780 M154.667 91.515 C 154.667 91.598,154.807 91.667,154.979 91.667 C 155.377 91.667,156.833 92.306,156.833 92.481 C 156.833 92.554,157.022 92.699,157.253 92.805 C 157.484 92.910,157.745 93.184,157.833 93.415 C 157.920 93.645,158.063 93.833,158.149 93.833 C 158.533 93.833,158.914 95.590,158.908 97.333 C 158.903 99.066,158.522 100.833,158.153 100.833 C 158.069 100.833,158.000 100.936,158.000 101.061 C 158.000 101.351,156.528 102.833,156.240 102.833 C 156.121 102.833,155.925 102.930,155.804 103.048 C 155.304 103.534,152.441 103.984,151.260 103.763 L 150.667 103.652 150.667 97.500 L 150.667 91.349 151.708 91.300 C 153.189 91.229,154.667 91.337,154.667 91.515 M106.583 93.938 C 105.363 94.266,105.167 94.413,105.167 94.996 C 105.167 96.109,105.701 96.811,106.144 96.277 C 107.142 95.075,111.000 95.773,111.000 97.156 C 111.000 97.330,111.041 97.580,111.091 97.711 C 111.165 97.902,110.880 97.970,109.643 98.058 C 108.796 98.118,108.061 98.233,108.010 98.313 C 107.958 98.393,107.654 98.514,107.333 98.582 C 106.292 98.804,105.636 99.237,104.786 100.264 C 103.951 101.273,104.097 103.835,105.048 104.858 C 106.326 106.233,109.543 106.290,110.956 104.963 L 111.333 104.609 111.333 105.138 L 111.333 105.667 112.583 105.667 C 113.806 105.667,113.833 105.657,113.833 105.250 C 113.833 105.021,113.765 104.833,113.681 104.833 C 113.596 104.833,113.502 103.002,113.467 100.625 C 113.399 96.051,113.338 95.730,112.333 94.680 C 111.427 93.733,108.673 93.378,106.583 93.938 M120.626 93.919 C 120.282 94.046,119.743 94.346,119.427 94.587 L 118.853 95.025 118.741 94.429 L 118.630 93.833 117.481 93.833 L 116.333 93.833 116.333 94.750 C 116.333 95.254,116.408 95.667,116.500 95.667 C 116.607 95.667,116.667 97.444,116.667 100.667 L 116.667 105.667 117.833 105.667 L 119.000 105.667 119.000 101.942 C 119.000 96.832,119.482 95.833,121.944 95.833 C 123.748 95.833,124.167 97.027,124.167 102.175 L 124.167 105.667 125.417 105.667 L 126.667 105.667 126.667 101.490 C 126.667 97.591,126.511 95.833,126.167 95.833 C 126.097 95.833,125.954 95.626,125.849 95.371 C 125.267 93.966,122.553 93.212,120.626 93.919 M165.482 93.896 C 164.087 94.196,163.617 94.557,163.759 95.219 C 163.822 95.511,163.940 95.775,164.020 95.806 C 164.101 95.836,164.167 96.005,164.167 96.181 C 164.167 96.356,164.279 96.500,164.417 96.500 C 164.554 96.500,164.667 96.441,164.667 96.370 C 164.667 95.845,167.806 95.472,168.630 95.898 C 169.211 96.198,169.667 96.924,169.667 97.550 C 169.667 97.934,169.606 97.955,168.208 98.063 C 167.406 98.124,166.725 98.248,166.694 98.337 C 166.664 98.427,166.514 98.501,166.361 98.503 C 165.498 98.510,163.500 99.743,163.500 100.268 C 163.500 100.382,163.369 100.607,163.208 100.768 C 162.844 101.132,162.773 103.840,163.125 103.958 C 163.240 103.996,163.333 104.118,163.333 104.227 C 163.333 105.679,168.214 106.530,169.250 105.259 C 169.721 104.682,170.167 104.634,170.167 105.161 L 170.167 105.667 171.250 105.667 L 172.333 105.667 172.333 102.095 C 172.333 98.701,172.123 96.018,171.842 95.834 C 171.771 95.788,171.594 95.517,171.448 95.233 C 170.747 93.863,168.244 93.301,165.482 93.896 M184.417 93.936 C 183.027 94.271,182.745 94.582,183.013 95.479 C 183.253 96.280,183.620 96.679,183.819 96.356 C 184.501 95.253,188.209 95.547,188.640 96.738 C 189.051 97.876,188.991 97.939,187.375 98.063 C 186.573 98.124,185.892 98.248,185.861 98.337 C 185.831 98.427,185.668 98.500,185.500 98.500 C 184.706 98.500,182.667 99.731,182.667 100.210 C 182.667 100.291,182.560 100.464,182.429 100.595 C 181.727 101.297,181.935 103.691,182.786 104.709 C 184.007 106.171,187.120 106.359,188.659 105.064 L 189.167 104.637 189.167 105.152 L 189.167 105.667 190.375 105.667 L 191.583 105.667 191.533 101.630 C 191.505 99.409,191.423 97.553,191.350 97.504 C 191.277 97.456,191.166 97.090,191.104 96.691 C 190.703 94.127,188.088 93.050,184.417 93.936 M215.083 93.774 C 214.236 93.947,213.402 94.241,213.250 94.419 C 213.158 94.527,212.840 94.741,212.542 94.895 C 212.244 95.049,212.000 95.249,212.000 95.339 C 212.000 95.429,211.823 95.656,211.607 95.844 C 211.391 96.032,211.112 96.500,210.989 96.885 C 210.865 97.269,210.686 97.637,210.590 97.702 C 210.486 97.773,210.417 98.610,210.417 99.786 C 210.417 102.467,210.903 103.512,212.903 105.133 C 213.749 105.818,216.947 106.069,218.917 105.605 L 219.750 105.408 219.694 104.662 C 219.663 104.252,219.569 103.892,219.486 103.861 C 219.402 103.831,219.333 103.699,219.333 103.569 C 219.333 103.272,219.210 103.274,218.333 103.583 C 216.885 104.094,214.959 103.766,214.045 102.853 C 212.556 101.364,212.543 98.247,214.020 96.876 C 215.389 95.605,216.095 95.490,218.833 96.095 C 219.310 96.200,219.684 95.580,219.726 94.616 C 219.749 94.100,219.721 94.077,218.833 93.891 C 217.943 93.704,215.757 93.636,215.083 93.774 M230.167 93.882 C 229.117 94.244,227.628 95.500,227.401 96.215 C 227.340 96.409,227.195 96.662,227.080 96.778 C 226.964 96.893,226.787 97.465,226.685 98.049 C 225.661 103.930,229.081 106.920,235.333 105.609 L 236.250 105.417 236.200 104.505 C 236.148 103.572,235.943 103.259,235.500 103.438 C 233.262 104.340,229.500 103.580,229.500 102.225 C 229.500 102.114,229.397 101.920,229.270 101.794 C 229.144 101.668,228.988 101.326,228.924 101.035 L 228.808 100.506 232.862 100.461 L 236.917 100.417 236.965 98.958 C 236.995 98.030,236.950 97.500,236.840 97.500 C 236.745 97.500,236.663 97.369,236.659 97.208 C 236.635 96.224,235.480 94.592,234.417 94.040 C 233.773 93.705,230.979 93.602,230.167 93.882 M243.750 93.779 C 242.993 93.945,242.388 94.263,241.917 94.742 L 241.417 95.250 241.365 94.542 L 241.314 93.833 240.240 93.833 L 239.167 93.833 239.167 99.750 L 239.167 105.667 240.500 105.667 L 241.833 105.667 241.833 101.706 C 241.833 98.248,241.870 97.677,242.125 97.210 C 243.109 95.403,245.473 95.324,246.385 97.067 L 246.833 97.922 246.833 101.794 L 246.833 105.667 248.100 105.667 L 249.366 105.667 249.290 101.292 C 249.202 96.269,249.135 95.922,248.023 94.810 C 247.007 93.795,245.420 93.411,243.750 93.779 M255.800 93.899 C 253.695 94.351,251.700 96.551,251.674 98.448 C 251.670 98.741,251.592 99.027,251.500 99.083 C 251.408 99.140,251.333 99.557,251.333 100.010 C 251.333 100.463,251.408 100.833,251.500 100.833 C 251.592 100.833,251.667 101.056,251.667 101.328 C 251.667 102.023,252.144 103.361,252.518 103.715 C 252.692 103.879,252.833 104.081,252.833 104.164 C 252.833 105.322,257.794 106.306,260.083 105.603 L 260.750 105.398 260.700 104.491 C 260.634 103.321,260.549 103.256,259.490 103.571 C 257.947 104.029,256.273 103.855,255.635 103.171 C 255.462 102.985,255.257 102.833,255.179 102.833 C 255.102 102.833,254.906 102.552,254.744 102.208 C 254.583 101.865,254.368 101.530,254.267 101.464 C 253.947 101.257,254.029 98.280,254.364 97.945 C 254.518 97.791,254.689 97.527,254.742 97.358 C 254.918 96.805,256.057 96.046,257.010 95.849 C 257.884 95.667,258.181 95.692,260.031 96.102 C 260.510 96.208,260.926 95.316,260.802 94.445 C 260.706 93.776,257.834 93.462,255.800 93.899 M265.917 93.829 C 264.422 94.214,262.851 95.652,262.489 96.969 C 262.371 97.398,262.196 97.803,262.099 97.867 C 261.867 98.021,261.862 101.808,262.094 101.966 C 262.187 102.031,262.372 102.421,262.503 102.833 C 262.716 103.500,263.428 104.365,264.397 105.133 C 265.262 105.819,268.978 106.095,270.833 105.611 L 271.583 105.415 271.537 104.425 C 271.481 103.208,271.572 103.276,270.405 103.579 C 267.234 104.405,264.963 103.461,264.501 101.125 L 264.378 100.500 268.337 100.500 L 272.296 100.500 272.405 99.922 C 272.583 98.971,272.149 96.167,271.823 96.167 C 271.749 96.167,271.637 96.003,271.574 95.803 C 271.070 94.217,268.244 93.231,265.917 93.829 M276.350 93.939 C 273.692 94.870,273.375 98.808,275.867 99.932 C 276.215 100.089,276.500 100.267,276.500 100.328 C 276.500 100.389,276.898 100.564,277.384 100.718 C 280.577 101.724,279.456 104.606,276.204 103.751 C 274.470 103.296,274.295 103.317,274.102 104.000 C 274.011 104.321,273.865 104.632,273.778 104.692 C 272.629 105.471,277.588 106.258,279.468 105.595 C 282.764 104.432,282.443 99.956,278.978 98.779 C 278.565 98.639,277.957 98.365,277.627 98.171 C 275.365 96.836,277.090 95.022,279.760 95.929 C 280.184 96.073,280.628 96.153,280.746 96.108 C 280.975 96.020,281.436 94.380,281.276 94.221 C 280.774 93.718,277.514 93.532,276.350 93.939 M221.833 99.750 L 221.833 105.667 223.000 105.667 L 224.167 105.667 224.167 99.750 L 224.167 93.833 223.000 93.833 L 221.833 93.833 221.833 99.750 M232.580 95.683 C 233.401 95.890,234.118 96.582,234.350 97.391 C 234.682 98.548,234.794 98.500,231.750 98.500 C 229.111 98.500,229.000 98.487,229.000 98.167 C 229.000 97.983,229.075 97.833,229.167 97.833 C 229.258 97.833,229.333 97.707,229.333 97.552 C 229.333 96.851,230.313 95.882,231.250 95.655 C 231.525 95.589,231.773 95.526,231.801 95.517 C 231.829 95.508,232.180 95.582,232.580 95.683 M268.780 95.971 C 269.220 96.207,270.000 97.570,270.000 98.104 L 270.000 98.500 267.250 98.500 C 264.254 98.500,264.280 98.510,264.707 97.550 C 264.821 97.293,265.046 96.938,265.207 96.760 C 265.368 96.583,265.500 96.374,265.500 96.298 C 265.500 96.141,266.166 95.849,266.917 95.677 C 267.461 95.552,268.220 95.672,268.780 95.971 M135.517 95.863 C 138.189 96.788,138.262 102.461,135.617 103.628 C 134.788 103.994,132.675 103.692,132.664 103.206 C 132.663 103.139,132.439 102.832,132.168 102.524 C 129.857 99.901,132.425 94.792,135.517 95.863 M111.167 100.822 C 111.167 102.409,110.530 103.429,109.291 103.826 C 108.305 104.142,107.000 103.704,107.000 103.058 C 107.000 102.934,106.925 102.833,106.833 102.833 C 106.742 102.833,106.667 102.571,106.667 102.250 C 106.667 101.929,106.742 101.667,106.833 101.667 C 106.925 101.667,107.000 101.578,107.000 101.469 C 107.000 101.201,107.674 100.500,107.932 100.500 C 108.046 100.500,108.164 100.427,108.194 100.338 C 108.252 100.170,109.669 99.887,110.625 99.853 L 111.167 99.833 111.167 100.822 M170.000 100.750 C 170.000 101.254,169.925 101.667,169.833 101.667 C 169.742 101.667,169.667 101.777,169.667 101.911 C 169.667 103.285,167.724 104.366,166.321 103.772 C 165.160 103.281,165.108 101.295,166.240 100.715 C 166.521 100.571,166.789 100.394,166.837 100.320 C 166.949 100.149,168.379 99.876,169.292 99.852 L 170.000 99.833 170.000 100.750 M189.000 100.709 C 189.000 102.908,187.694 104.261,185.897 103.924 C 184.455 103.653,184.175 101.216,185.522 100.658 C 185.785 100.549,186.000 100.399,186.000 100.326 C 186.000 100.172,187.454 99.882,188.375 99.853 L 189.000 99.833 189.000 100.709 " stroke="none" fill="#1c447c" fill-rule="evenodd"></path><path id="path2" d="M59.217 30.458 C 60.208 30.487,61.783 30.487,62.717 30.458 C 63.652 30.428,62.842 30.404,60.917 30.404 C 58.992 30.404,58.227 30.428,59.217 30.458 M55.213 30.623 C 55.652 30.657,56.327 30.657,56.713 30.622 C 57.100 30.587,56.742 30.559,55.917 30.559 C 55.092 30.560,54.775 30.588,55.213 30.623 M65.380 30.623 C 65.818 30.657,66.493 30.657,66.880 30.622 C 67.267 30.587,66.908 30.559,66.083 30.559 C 65.258 30.560,64.942 30.588,65.380 30.623 M52.794 30.785 C 53.001 30.824,53.301 30.823,53.460 30.781 C 53.620 30.739,53.450 30.707,53.083 30.709 C 52.717 30.711,52.586 30.745,52.794 30.785 M68.627 30.785 C 68.834 30.824,69.134 30.823,69.294 30.781 C 69.453 30.739,69.283 30.707,68.917 30.709 C 68.550 30.711,68.420 30.745,68.627 30.785 M50.250 40.167 C 50.608 40.533,50.938 40.833,50.984 40.833 C 51.030 40.833,50.775 40.533,50.417 40.167 C 50.059 39.800,49.728 39.500,49.682 39.500 C 49.637 39.500,49.892 39.800,50.250 40.167 M45.909 40.708 L 45.250 41.417 45.958 40.758 C 46.617 40.145,46.743 40.000,46.617 40.000 C 46.590 40.000,46.271 40.319,45.909 40.708 M74.681 42.217 C 74.719 42.245,74.975 42.399,75.250 42.560 L 75.750 42.853 75.357 42.510 C 75.140 42.321,74.884 42.167,74.787 42.167 C 74.690 42.167,74.642 42.189,74.681 42.217 M53.208 43.282 C 53.369 43.323,53.631 43.323,53.792 43.282 C 53.952 43.240,53.821 43.205,53.500 43.205 C 53.179 43.205,53.048 43.240,53.208 43.282 M58.377 43.286 C 58.631 43.325,59.006 43.324,59.211 43.284 C 59.416 43.244,59.208 43.213,58.750 43.214 C 58.292 43.216,58.124 43.248,58.377 43.286 M44.396 45.083 C 44.396 46.092,44.424 46.483,44.457 45.952 C 44.490 45.422,44.490 44.597,44.456 44.119 C 44.422 43.641,44.395 44.075,44.396 45.083 M60.375 43.448 C 60.535 43.490,60.798 43.490,60.958 43.448 C 61.119 43.406,60.987 43.372,60.667 43.372 C 60.346 43.372,60.215 43.406,60.375 43.448 M45.875 44.417 C 45.877 44.783,45.911 44.914,45.951 44.706 C 45.991 44.499,45.990 44.199,45.948 44.040 C 45.906 43.880,45.874 44.050,45.875 44.417 M46.039 45.667 C 46.039 45.987,46.073 46.119,46.115 45.958 C 46.157 45.798,46.157 45.535,46.115 45.375 C 46.073 45.215,46.039 45.346,46.039 45.667 M59.542 50.956 C 59.977 50.990,60.690 50.990,61.125 50.956 C 61.560 50.922,61.204 50.893,60.333 50.893 C 59.462 50.893,59.106 50.922,59.542 50.956 M64.440 53.000 C 64.512 53.137,64.621 53.550,64.682 53.917 L 64.792 54.583 64.812 53.990 C 64.824 53.664,64.715 53.251,64.571 53.074 C 64.427 52.896,64.368 52.862,64.440 53.000 M76.180 54.282 C 76.173 54.666,76.226 55.017,76.299 55.062 C 76.371 55.107,76.403 54.867,76.370 54.530 C 76.279 53.608,76.195 53.498,76.180 54.282 M77.123 58.168 C 77.267 58.536,77.416 58.807,77.452 58.770 C 77.533 58.690,77.051 57.500,76.939 57.500 C 76.895 57.500,76.978 57.801,77.123 58.168 M30.875 59.417 C 30.877 59.783,30.911 59.914,30.951 59.706 C 30.991 59.499,30.990 59.199,30.948 59.040 C 30.906 58.880,30.874 59.050,30.875 59.417 M90.875 60.917 C 90.877 61.283,90.911 61.414,90.951 61.206 C 90.991 60.999,90.990 60.699,90.948 60.540 C 90.906 60.380,90.874 60.550,90.875 60.917 M77.180 64.443 C 76.962 65.225,76.953 66.002,77.158 66.325 C 77.258 66.483,77.280 66.338,77.221 65.901 C 77.172 65.535,77.213 64.943,77.311 64.585 C 77.410 64.228,77.461 63.905,77.424 63.869 C 77.388 63.832,77.278 64.090,77.180 64.443 M67.765 65.346 C 67.528 65.628,67.340 66.022,67.348 66.221 C 67.359 66.516,67.389 66.494,67.506 66.103 C 67.585 65.839,67.816 65.445,68.020 65.228 C 68.224 65.011,68.348 64.833,68.294 64.833 C 68.240 64.833,68.002 65.064,67.765 65.346 M75.872 65.667 C 75.872 65.987,75.906 66.119,75.948 65.958 C 75.990 65.798,75.990 65.535,75.948 65.375 C 75.906 65.215,75.872 65.346,75.872 65.667 M37.555 66.417 C 37.555 67.058,37.586 67.300,37.622 66.955 C 37.658 66.609,37.657 66.084,37.620 65.788 C 37.583 65.492,37.554 65.775,37.555 66.417 M46.093 67.184 C 46.029 67.835,45.939 68.491,45.892 68.642 C 45.820 68.877,45.832 68.880,45.973 68.665 C 46.148 68.399,46.436 66.000,46.293 66.000 C 46.247 66.000,46.157 66.533,46.093 67.184 M57.214 67.917 C 57.216 68.375,57.248 68.543,57.286 68.289 C 57.325 68.036,57.324 67.661,57.284 67.456 C 57.244 67.251,57.213 67.458,57.214 67.917 M77.553 68.500 C 77.553 69.096,77.584 69.340,77.621 69.042 C 77.658 68.744,77.658 68.256,77.621 67.958 C 77.584 67.660,77.553 67.904,77.553 68.500 M71.189 67.945 C 71.177 68.143,71.124 68.443,71.071 68.611 C 70.980 68.900,70.985 68.901,71.165 68.620 C 71.270 68.457,71.323 68.157,71.284 67.954 C 71.212 67.584,71.212 67.584,71.189 67.945 M36.417 70.333 C 36.274 70.608,36.196 70.833,36.241 70.833 C 36.287 70.833,36.441 70.608,36.583 70.333 C 36.726 70.058,36.804 69.833,36.759 69.833 C 36.713 69.833,36.559 70.058,36.417 70.333 M60.740 74.238 C 60.918 74.382,61.218 74.494,61.407 74.486 C 61.682 74.474,61.662 74.445,61.305 74.337 C 61.060 74.263,60.760 74.151,60.638 74.089 C 60.516 74.026,60.562 74.093,60.740 74.238 M62.211 74.620 C 62.464 74.658,62.839 74.657,63.044 74.617 C 63.249 74.578,63.042 74.546,62.583 74.548 C 62.125 74.549,61.957 74.581,62.211 74.620 M42.108 75.620 C 42.051 75.966,42.016 77.225,42.031 78.417 L 42.058 80.583 42.165 77.833 C 42.280 74.906,42.272 74.624,42.108 75.620 M64.417 75.500 C 64.207 75.590,64.176 75.643,64.333 75.643 C 64.471 75.643,64.733 75.579,64.917 75.500 C 65.127 75.410,65.158 75.357,65.000 75.357 C 64.862 75.357,64.600 75.421,64.417 75.500 M66.713 78.456 C 67.152 78.490,67.827 78.490,68.213 78.455 C 68.600 78.420,68.242 78.392,67.417 78.392 C 66.592 78.393,66.275 78.422,66.713 78.456 M80.742 81.875 L 80.083 82.583 80.792 81.925 C 81.450 81.312,81.577 81.167,81.450 81.167 C 81.423 81.167,81.105 81.485,80.742 81.875 M67.875 84.448 C 68.057 84.496,68.171 84.692,68.178 84.971 C 68.185 85.216,68.258 85.567,68.341 85.750 C 68.448 85.987,68.465 85.890,68.400 85.417 C 68.265 84.446,68.209 84.331,67.880 84.353 C 67.602 84.371,67.602 84.377,67.875 84.448 M77.324 85.292 L 76.750 85.917 77.375 85.342 C 77.719 85.026,78.000 84.745,78.000 84.717 C 78.000 84.590,77.859 84.710,77.324 85.292 M45.833 86.417 C 46.144 86.737,46.436 87.000,46.482 87.000 C 46.528 87.000,46.311 86.737,46.000 86.417 C 45.689 86.096,45.397 85.833,45.351 85.833 C 45.305 85.833,45.522 86.096,45.833 86.417 M64.496 87.458 L 63.083 88.917 64.542 87.504 C 65.896 86.191,66.076 86.000,65.955 86.000 C 65.930 86.000,65.273 86.656,64.496 87.458 M61.527 91.257 C 61.421 91.491,61.336 91.773,61.340 91.883 C 61.343 91.993,61.457 91.828,61.592 91.516 C 61.877 90.860,61.817 90.621,61.527 91.257 " stroke="none" fill="#7e8fb3" fill-rule="evenodd"></path><path id="path3" d="M56.458 30.451 C 56.665 30.491,57.002 30.491,57.208 30.451 C 57.415 30.411,57.246 30.379,56.833 30.379 C 56.421 30.379,56.252 30.411,56.458 30.451 M64.711 30.453 C 64.964 30.491,65.339 30.490,65.544 30.451 C 65.749 30.411,65.542 30.380,65.083 30.381 C 64.625 30.382,64.457 30.415,64.711 30.453 M53.458 30.618 C 53.665 30.657,54.002 30.657,54.208 30.618 C 54.415 30.578,54.246 30.545,53.833 30.545 C 53.421 30.545,53.252 30.578,53.458 30.618 M67.792 30.618 C 67.998 30.657,68.335 30.657,68.542 30.618 C 68.748 30.578,68.579 30.545,68.167 30.545 C 67.754 30.545,67.585 30.578,67.792 30.618 M51.627 30.785 C 51.834 30.824,52.134 30.823,52.294 30.781 C 52.453 30.739,52.283 30.707,51.917 30.709 C 51.550 30.711,51.420 30.745,51.627 30.785 M69.794 30.785 C 70.001 30.824,70.301 30.823,70.460 30.781 C 70.620 30.739,70.450 30.707,70.083 30.709 C 69.717 30.711,69.586 30.745,69.794 30.785 M30.746 47.083 C 30.746 53.500,30.766 56.101,30.792 52.863 C 30.817 49.625,30.817 44.375,30.792 41.196 C 30.766 38.017,30.746 40.667,30.746 47.083 M46.491 40.292 L 45.917 40.917 46.542 40.342 C 46.885 40.026,47.167 39.745,47.167 39.717 C 47.167 39.590,47.026 39.710,46.491 40.292 M50.333 40.385 C 50.333 40.414,50.577 40.658,50.875 40.927 L 51.417 41.417 50.927 40.875 C 50.471 40.370,50.333 40.257,50.333 40.385 M54.958 43.290 C 55.531 43.323,56.469 43.323,57.042 43.290 C 57.615 43.258,57.146 43.231,56.000 43.231 C 54.854 43.231,54.385 43.258,54.958 43.290 M59.294 43.451 C 59.501 43.491,59.801 43.490,59.960 43.448 C 60.120 43.406,59.950 43.374,59.583 43.375 C 59.217 43.377,59.086 43.411,59.294 43.451 M75.709 46.083 C 75.711 46.450,75.745 46.580,75.785 46.373 C 75.824 46.166,75.823 45.866,75.781 45.706 C 75.739 45.547,75.707 45.717,75.709 46.083 M51.853 47.425 C 51.842 47.613,51.759 47.857,51.667 47.967 C 51.576 48.078,51.621 48.064,51.767 47.937 C 51.913 47.810,51.996 47.566,51.952 47.395 C 51.880 47.114,51.870 47.117,51.853 47.425 M62.426 56.323 C 62.100 56.683,62.204 57.010,62.635 56.981 C 62.889 56.963,62.888 56.954,62.625 56.885 C 62.263 56.790,62.260 56.691,62.609 56.305 C 62.761 56.137,62.847 56.000,62.802 56.000 C 62.756 56.000,62.587 56.145,62.426 56.323 M37.045 61.667 C 37.045 62.079,37.078 62.248,37.118 62.042 C 37.157 61.835,37.157 61.498,37.118 61.292 C 37.078 61.085,37.045 61.254,37.045 61.667 M69.240 72.708 L 68.750 73.250 69.292 72.760 C 69.797 72.304,69.910 72.167,69.781 72.167 C 69.752 72.167,69.509 72.410,69.240 72.708 M69.711 74.786 C 69.964 74.825,70.339 74.824,70.544 74.784 C 70.749 74.744,70.542 74.713,70.083 74.714 C 69.625 74.716,69.457 74.748,69.711 74.786 M66.458 78.290 C 67.031 78.323,67.969 78.323,68.542 78.290 C 69.115 78.258,68.646 78.231,67.500 78.231 C 66.354 78.231,65.885 78.258,66.458 78.290 M80.077 82.708 L 79.250 83.583 80.125 82.756 C 80.606 82.301,81.000 81.908,81.000 81.881 C 81.000 81.757,80.846 81.895,80.077 82.708 M77.740 85.042 L 77.250 85.583 77.792 85.094 C 78.090 84.825,78.333 84.581,78.333 84.552 C 78.333 84.423,78.196 84.537,77.740 85.042 M44.917 85.667 C 45.368 86.125,45.775 86.500,45.821 86.500 C 45.867 86.500,45.535 86.125,45.083 85.667 C 44.632 85.208,44.225 84.833,44.179 84.833 C 44.133 84.833,44.465 85.208,44.917 85.667 " stroke="none" fill="#9cacc4" fill-rule="evenodd"></path><path id="path4" d="M64.738 54.059 C 64.724 55.006,64.231 55.949,63.526 56.377 L 63.125 56.620 63.549 56.726 C 64.103 56.866,64.472 57.495,65.416 59.917 C 66.745 63.324,67.034 64.306,66.915 65.008 C 66.851 65.388,66.888 65.791,67.008 66.015 L 67.207 66.387 67.412 65.901 C 67.524 65.634,67.965 65.129,68.392 64.780 C 69.447 63.915,69.425 63.601,68.064 60.185 C 67.030 57.589,65.092 53.408,64.856 53.265 C 64.798 53.230,64.745 53.587,64.738 54.059 M45.080 54.672 C 44.757 55.195,44.726 55.965,44.948 57.932 C 45.467 62.514,45.196 63.731,43.025 66.561 C 40.801 69.459,40.711 70.021,41.525 75.917 L 41.917 78.750 42.020 77.000 C 42.143 74.931,42.528 73.916,43.883 72.089 C 45.778 69.536,45.830 69.413,46.172 66.667 C 46.466 64.314,46.843 63.937,47.412 65.427 C 48.371 67.937,48.503 68.029,53.510 69.651 C 55.696 70.359,55.969 70.187,56.244 67.932 C 56.549 65.432,57.331 66.004,57.335 68.729 C 57.338 71.140,59.416 73.912,61.583 74.398 C 61.858 74.460,62.001 74.452,61.900 74.380 C 61.183 73.872,61.102 71.396,61.750 69.801 C 62.389 68.230,62.050 66.251,60.654 63.399 C 59.982 62.027,59.473 61.870,53.165 61.090 C 48.800 60.550,47.669 59.699,46.779 56.283 C 46.381 54.756,45.528 53.947,45.080 54.672 M76.970 59.168 C 76.798 59.579,76.486 59.947,76.158 60.126 C 74.492 61.035,74.426 61.260,75.360 62.880 C 75.741 63.542,76.251 64.438,76.494 64.871 L 76.936 65.658 77.118 64.871 C 77.218 64.438,77.428 63.633,77.584 63.083 C 77.911 61.933,77.860 59.921,77.483 59.043 L 77.250 58.502 76.970 59.168 M65.358 86.708 C 61.608 90.519,61.191 91.310,61.040 94.900 C 60.964 96.715,60.986 97.029,61.183 96.912 C 62.578 96.086,64.271 95.027,66.391 93.656 L 68.032 92.595 67.927 92.006 C 67.652 90.472,67.640 88.368,67.899 86.917 C 68.457 83.779,68.257 83.762,65.358 86.708 " stroke="none" fill="#86aad2" fill-rule="evenodd"></path></g></svg>