<svg width="320" height="89" viewBox="0 0 320 89" fill="none" xmlns="http://www.w3.org/2000/svg">
<path fill-rule="evenodd" clip-rule="evenodd" d="M16.7 2.76082C16.5352 2.79282 16.4 2.86722 16.4 2.92642C16.4 2.98562 16.2208 3.10882 16.0016 3.19923C15.7824 3.29043 15.3896 3.61283 15.1288 3.91524C14.868 4.21845 14.5128 4.62245 14.3392 4.81286C13.9832 5.20326 13.1512 6.81129 13.0168 7.3665C12.968 7.56811 12.8744 7.73371 12.8096 7.73371C12.744 7.73371 12.528 8.25852 12.3288 8.90013C12.1296 9.54175 11.884 10.3322 11.7832 10.657C11.6824 10.9818 11.6 11.357 11.6 11.4906C11.6 11.6242 11.5464 11.7338 11.4816 11.7338C11.2432 11.7338 10.1336 18.4515 10.1336 19.8947C10.1336 20.1603 10.0776 20.3979 10.0096 20.4227C9.77359 20.5076 9.55999 26.3293 9.64959 30.2341L9.73679 34.0014L9.17519 36.2342C8.86719 37.4623 8.5752 38.4975 8.5272 38.5343C8.48 38.5703 8.1832 39.6207 7.8688 40.8671C7.5544 42.1144 7.2504 43.1944 7.1928 43.2672C7.136 43.3408 6.80799 44.5104 6.46399 45.8672C6.11999 47.2241 5.77999 48.4433 5.70959 48.5769C5.46719 49.0337 5.22239 50.2001 5.29279 50.5641C5.39679 51.1025 6.20559 51.2441 6.56239 50.7865C6.69919 50.6113 6.9896 50.2801 7.208 50.0513C7.4256 49.8225 7.768 49.3921 7.9688 49.0953C8.1696 48.7985 8.49839 48.4265 8.69999 48.2681C8.90159 48.1105 9.06639 47.9185 9.06639 47.8417C9.06639 47.7649 9.6456 47.0104 10.3536 46.1664L11.6408 44.6304L11.9448 45.8016C12.3944 47.5393 11.9136 47.3945 17.3936 47.4409C23.3896 47.4913 23.072 47.6057 23.5528 45.2048C23.5968 44.9824 23.6568 44.8008 23.6864 44.8008C23.8056 44.8008 25.0664 46.2032 25.0664 46.3352C25.0664 46.4144 25.3368 46.7432 25.6664 47.0672C25.9968 47.3913 26.2664 47.7209 26.2664 47.7993C26.2664 47.8785 26.5272 48.2113 26.8464 48.5385C27.1656 48.8665 27.4816 49.2369 27.5488 49.3617C27.82 49.8673 28.9888 51.0673 29.2096 51.0673C29.5808 51.0673 29.8664 50.9209 29.8664 50.7313C29.8664 50.6353 29.9416 50.5313 30.0336 50.5001C30.1664 50.4561 30.1664 50.3801 30.0336 50.1225C29.9424 49.9457 29.6 48.7497 29.2728 47.4649C28.9464 46.18 28.5944 44.92 28.4912 44.6648C28.388 44.4096 28.0728 43.2704 27.7904 42.1344C27.5072 40.9975 27.2376 40.0375 27.1896 40.0007C27.1424 39.9639 26.8152 38.7943 26.4624 37.4007C26.1104 36.007 25.7576 34.8246 25.6784 34.7726C25.5808 34.7078 25.5328 32.8006 25.5256 28.7061C25.516 23.0796 25.456 21.7628 25.056 18.3339C24.8352 16.4411 24.3808 13.6738 24.2792 13.6002C24.228 13.5634 24.0544 12.9338 23.8944 12.2002C23.4624 10.2282 23.1624 9.23854 22.6904 8.22412C22.4576 7.72411 22.2664 7.2569 22.2664 7.1865C22.2664 7.0353 21.604 5.69767 21.4808 5.60007C21.4344 5.56327 21.1656 5.19286 20.8832 4.77686C19.7616 3.12403 18.3488 2.44321 16.7 2.76082ZM18.2664 8.41612C18.7456 8.55933 19.3824 9.06814 19.9272 9.74415C21.1736 11.289 19.1448 13.9898 17.0792 13.5362C15.3888 13.165 14.416 10.5218 15.5664 9.42414C16.1528 8.86493 16.7168 8.48813 17.108 8.39532C17.7136 8.25132 17.7176 8.25132 18.2664 8.41612ZM64.8 13.3338V15.4667H67.5336H70.2664V13.3338V11.2002H67.5336H64.8V13.3338ZM231.258 11.3746C231.222 11.4706 231.208 12.2634 231.229 13.1362L231.266 14.7242L232.134 14.885C232.61 14.9738 233.225 15.0834 233.5 15.1291L234 15.2123V25.2636V35.315L233.3 35.4526C232.915 35.5286 232.375 35.6294 232.1 35.6774L231.6 35.7638V37.4823V39.2007H236.666H241.734V37.4887V35.7766L241.034 35.6294C240.648 35.5494 240.138 35.4446 239.9 35.3982L239.466 35.3126V30.2837V25.2548L239.966 24.7756C240.769 24.0068 241.259 23.8172 242.469 23.8084C245.246 23.7876 245.598 24.6292 245.599 31.2894L245.6 35.3118L244.966 35.4454C244.618 35.5198 244.108 35.6214 243.834 35.6718L243.334 35.7638V37.4823V39.2007H248.466H253.6V37.4831V35.7654L252.334 35.5374L251.066 35.3094V30.9517C251.066 25.2828 250.806 23.2796 249.934 22.2428C249.75 22.0252 249.6 21.7932 249.6 21.7284C249.6 21.534 248.786 20.6668 248.604 20.6668C248.512 20.6668 248.283 20.514 248.096 20.3267C247.302 19.5331 243.502 19.1531 242.2 19.7379C241.532 20.0379 239.905 21.2404 239.682 21.598C239.491 21.906 239.474 21.4924 239.47 16.5667L239.466 11.2002H235.396C232.166 11.2002 231.311 11.2362 231.258 11.3746ZM306.266 12.9714V14.7418L307.666 14.9906L309.066 15.2395V18.2979V21.3564L308.5 20.922C308.188 20.6828 307.872 20.4156 307.798 20.3275C306.91 19.2811 301.767 19.2371 300.934 20.2691C300.897 20.3139 300.582 20.5452 300.234 20.7812C298.977 21.6372 297.334 24.6308 297.334 26.0661C297.334 26.2413 297.277 26.4197 297.209 26.4621C297.037 26.5677 297.033 26.6493 297.027 29.6669C297.023 32.2062 297.047 32.6046 297.232 33.067C297.277 33.1774 297.384 33.5974 297.472 34.0006C297.642 34.7862 298.338 36.3806 298.606 36.6007C298.696 36.6743 298.955 36.9967 299.182 37.3183C299.594 37.8999 300.73 38.7407 301.3 38.8863C301.465 38.9287 301.6 39.0087 301.6 39.0647C301.6 39.6247 306.375 39.7119 306.965 39.1623C307.059 39.0735 307.371 38.8815 307.656 38.7351C307.942 38.5887 308.442 38.2103 308.768 37.8935C309.094 37.5767 309.376 37.3359 309.394 37.3591C309.414 37.3823 309.482 37.7903 309.547 38.2671L309.666 39.1343L313.3 39.1695L316.934 39.2047V37.4847V35.7638L316.434 35.6766C316.158 35.6294 315.618 35.523 315.234 35.4406L314.534 35.2918V23.246V11.2002H310.4H306.266V12.9714ZM40.9336 14.8666C40.9336 15.7835 40.948 16.5371 40.9664 16.5419C40.9848 16.5467 41.6 16.6515 42.3336 16.7755L43.6664 17.0003L43.7008 26.1501L43.7352 35.2998L42.5488 35.5166C41.896 35.6366 41.2656 35.7342 41.1472 35.7342C40.9616 35.7342 40.9336 35.9646 40.9336 37.4671V39.2007H50.8H60.6664V35.4006V31.6006H58.5336H56.4L56.3992 32.167C56.3984 32.479 56.36 33.2286 56.3128 33.8342L56.2272 34.9342H52.7128H49.1984L49.232 25.9765L49.2664 17.0187L50.3336 16.8435C52.1984 16.5371 52 16.7731 52 14.8642V13.2002H46.4664H40.9336V14.8666ZM126.266 14.8666C126.266 15.7835 126.282 16.5371 126.3 16.5419C126.318 16.5467 126.934 16.6531 127.666 16.7787L129 17.0075L129.034 26.1525L129.069 35.2966L127.667 35.5366L126.266 35.7774V37.4887V39.2007H136.134H146V35.3974V31.5942L143.9 31.6302L141.8 31.667L141.685 33.3006L141.57 34.9342H138.051H134.531L134.566 25.9701L134.6 17.0067L135.266 16.9003C135.634 16.8419 136.248 16.7315 136.634 16.6547L137.334 16.5147V14.8578V13.2002H131.8H126.266V14.8666ZM81.2 19.5539C80.464 19.6971 79.0664 20.1515 79.0664 20.2467C79.0664 20.3027 78.8272 20.4548 78.5336 20.5844C77.8776 20.8732 76.7152 21.9196 76.1912 22.6916C75.9768 23.0084 75.7584 23.2988 75.7064 23.338C75.3264 23.6236 74.4 26.5133 74.4 27.4141C74.4 27.6549 74.34 27.8885 74.2664 27.9341C74.1904 27.9813 74.1336 28.6661 74.1336 29.5341C74.1336 30.4021 74.1904 31.0869 74.2664 31.1341C74.34 31.179 74.4 31.4134 74.4 31.6542C74.4 32.859 75.1984 34.9862 76.1304 36.2662C76.616 36.9319 78.1872 38.4007 78.4152 38.4007C78.4672 38.4007 78.9528 38.6079 79.4944 38.8623C81.3144 39.7143 86.9336 39.8519 86.9336 39.0447C86.9336 38.9839 87.0032 38.9343 87.0896 38.9343C87.92 38.9343 90.3496 37.0119 90.9112 35.9102C91.0656 35.6086 91.2816 35.271 91.392 35.1606C92.316 34.2366 92.8592 29.3285 92.3392 26.6077C92.132 25.526 91.6248 24.0004 91.4728 24.0004C91.4216 24.0004 91.2392 23.7172 91.0664 23.3716C90.6344 22.506 89.1728 21.0292 88.3816 20.658C88.0248 20.4916 87.7336 20.3075 87.7336 20.2499C87.7336 19.7739 82.776 19.2459 81.2 19.5539ZM105.458 19.6491C104.416 19.9299 102.765 21.0404 102.273 21.7916L102.03 22.1604L101.934 20.9468L101.838 19.7339H97.8528H93.8664V21.378C93.8664 23.2812 93.8216 23.2172 95.3336 23.4692C95.8104 23.5492 96.3048 23.6452 96.4336 23.6828C96.6512 23.7468 96.6664 24.142 96.6664 29.5365V35.3222L96.1664 35.4086C95.892 35.4566 95.3368 35.5654 94.9336 35.651L94.2 35.807V37.4703V39.1343L99.1664 39.1687L104.134 39.2039V37.4783V35.7518L103.134 35.5294L102.134 35.307V30.2973V25.2884L102.731 24.7156C104.249 23.2604 106.921 23.438 107.761 25.0492L108.134 25.7645V30.5429V35.3206L107.066 35.5502L106 35.779V37.4903V39.2007H111.134H116.266V37.4887V35.7766L115.3 35.6102C114.768 35.5182 114.198 35.4118 114.034 35.3742L113.734 35.3054L113.733 30.6861C113.731 24.986 113.508 23.0892 112.733 22.1868C112.55 21.974 112.4 21.7324 112.4 21.6492C112.4 21.5156 112.011 21.1452 110.944 20.2635C110.081 19.5515 107.071 19.2139 105.458 19.6491ZM154.134 19.5603C153.31 19.7003 151.734 20.1739 151.734 20.2819C151.734 20.3467 151.666 20.4003 151.583 20.4003C151.362 20.4003 149.858 21.0772 149.434 21.3676L149.066 21.6188V23.9428V26.2669H151.127H153.188L153.268 25.8341C153.312 25.5956 153.39 25.1004 153.441 24.734C153.636 23.334 156.879 23.0492 158.408 24.2972C158.821 24.6348 159.066 25.562 159.066 26.7853V27.9645L156.3 28.0357C153.19 28.1157 151.949 28.3477 150.782 29.0661C150.422 29.2869 150.078 29.4669 150.014 29.4669C149.908 29.4669 149.552 29.8461 148.684 30.8821C147.826 31.9062 147.694 36.0598 148.501 36.6599C148.556 36.7007 148.778 36.9959 148.995 37.3159C149.698 38.3511 151.161 39.2263 152.61 39.4791C154.038 39.7271 156.718 39.4871 157.066 39.0791C157.103 39.0359 157.463 38.8271 157.866 38.6159C158.27 38.4039 158.764 38.0783 158.966 37.8919C159.389 37.4999 159.367 37.4871 159.59 38.2671C159.869 39.2447 159.7 39.2007 163.15 39.2007H166.266V37.4671V35.7342H165.883C165.673 35.7342 165.313 35.6966 165.083 35.651L164.666 35.567L164.666 30.6837C164.665 26.1621 164.558 24.2988 164.278 23.938C164.219 23.8628 164.059 23.5028 163.923 23.1388C163.618 22.3244 162.308 20.95 161.5 20.5964C161.188 20.4604 160.934 20.3091 160.934 20.2595C160.934 20.1443 159.739 19.7731 158.815 19.6011C158.124 19.4723 154.82 19.4435 154.134 19.5603ZM200.397 19.7707C199.918 19.9339 199.382 20.2019 199.205 20.3667C199.028 20.5324 198.839 20.6668 198.785 20.6668C198.6 20.6668 197.829 21.3892 197.582 21.7948L197.334 22.2004L197.334 21.5668C197.334 21.2188 197.274 20.934 197.2 20.934C197.126 20.934 197.066 20.6636 197.066 20.3339V19.7339H193.134H189.2V21.3436C189.2 23.2468 189.185 23.222 190.534 23.4508C191.083 23.5444 191.638 23.65 191.766 23.686C191.984 23.7476 192 24.1404 192 29.5285V35.3054L191.7 35.3742C191.535 35.4118 190.965 35.5182 190.434 35.6102L189.466 35.7766V37.4887V39.2007H194.466H199.466V37.4807V35.7606L198.466 35.5382L197.466 35.3158V30.3461V25.3764L197.834 24.8956C198.847 23.5644 201.654 23.3716 202.76 24.5564C203.44 25.2836 203.466 25.514 203.466 30.5813V35.3038L202.366 35.5534L201.266 35.803V37.4687V39.1343H206.4H211.534V37.4703V35.807L210.8 35.651C210.397 35.5654 209.842 35.4566 209.566 35.4086L209.066 35.3222V30.7493C209.066 26.1661 208.946 24.3532 208.579 23.4668C208.074 22.2436 207.5 21.2892 207.074 20.9644C206.818 20.7692 206.494 20.494 206.352 20.3523C205.479 19.4795 202.192 19.1587 200.397 19.7707ZM219.652 19.5971C218.595 19.8219 218.01 20.0091 217.839 20.1771C217.744 20.2707 217.368 20.4916 217.003 20.6668C216.246 21.0316 214.794 22.4388 214.538 23.054C214.445 23.2812 214.317 23.4668 214.254 23.4668C213.994 23.4668 213.401 25.0692 213.078 26.6405C212.546 29.2365 213.373 35.6006 214.243 35.6006C214.311 35.6006 214.447 35.7958 214.546 36.0342C215.017 37.1839 217.27 38.8039 219.134 39.3311C220.705 39.7759 224.722 39.5647 225.279 39.0079C225.393 38.8935 225.578 38.8007 225.692 38.8007C226.029 38.8007 227.489 37.8519 227.927 37.3479C228.15 37.0911 228.441 36.7879 228.572 36.6743C229.166 36.1598 229.725 34.4678 229.73 33.167L229.734 32.4006H227.279H224.825L224.732 33.0758C224.549 34.4094 223.085 35.4462 221.588 35.303C220.112 35.1606 219.278 34.4342 218.796 32.867C218.706 32.5742 218.565 32.2494 218.482 32.147C218.273 31.8838 218.276 27.0933 218.486 26.9621C218.57 26.9101 218.71 26.5973 218.795 26.2669C219.527 23.4532 223.978 22.6124 224.51 25.1884C224.597 25.6108 224.76 26.2669 224.873 26.6453L225.077 27.3341H227.358H229.638L229.542 24.7004C229.443 22.0108 229.239 21.2004 228.662 21.2004C228.594 21.2004 228.245 21.0204 227.887 20.8004C227.53 20.5804 227.144 20.4003 227.03 20.4003C226.915 20.4003 226.801 20.3363 226.774 20.2571C226.596 19.7219 221.35 19.2355 219.652 19.5971ZM265.534 19.5907C264.842 19.7579 264.226 20.1131 263.402 20.8188C262.504 21.5876 262.442 21.5548 262.414 20.3003L262.4 19.7339H258.466H254.534V21.3436C254.534 23.1452 254.574 23.2412 255.403 23.3852C255.695 23.4356 256.248 23.5388 256.634 23.6148L257.334 23.7524V33.1958V42.6392L256.066 42.8776L254.8 43.116V44.892V46.6672H260H265.2V44.8848V43.1024L263.934 42.864L262.666 42.6256V40.1767V37.7279L263.346 38.2639C263.718 38.5591 264.104 38.8007 264.202 38.8007C264.301 38.8007 264.47 38.8903 264.581 38.9999C265.527 39.9471 269.133 39.7679 270.991 38.6823C272.564 37.7631 273.154 36.9983 274.321 34.3734C275.074 32.6774 275.05 25.4452 274.29 24.9428C274.226 24.9012 274.134 24.702 274.085 24.4996C273.932 23.8756 273.047 22.118 272.846 22.0412C272.742 22.0012 272.573 21.8068 272.471 21.6092C272.369 21.4116 272.026 21.0764 271.71 20.8652C271.393 20.6532 271.008 20.3707 270.854 20.2371C270.144 19.6163 267.004 19.2355 265.534 19.5907ZM283.4 19.5579C281.68 19.9435 281.08 20.1651 279.277 21.0788L278.334 21.5572L278.297 23.9124L278.261 26.2669H280.316C282.66 26.2669 282.437 26.4005 282.614 24.898L282.702 24.1396L283.451 23.8516C286.266 22.7676 288.14 23.8492 288.241 26.6157L288.29 27.9645L285.512 28.0397C282.542 28.1197 280.998 28.3869 280.291 28.9429C280.111 29.0845 279.896 29.2005 279.813 29.2005C279.574 29.2005 278.373 30.2445 278.028 30.7525C276.357 33.2126 277.635 38.2455 280.088 38.8607C280.294 38.9127 280.502 39.0159 280.548 39.0911C281.012 39.8415 285.249 39.7207 286.569 38.9199C286.918 38.7079 287.263 38.5343 287.335 38.5343C287.407 38.5343 287.698 38.3239 287.982 38.0671C288.661 37.4543 288.694 37.4655 288.968 38.4007L289.203 39.2007H292.335H295.466V37.4847V35.7686L294.677 35.679L293.887 35.5894L293.842 30.0949L293.795 24.6004L293.434 23.6028C293.234 23.0548 292.962 22.5148 292.829 22.4028C292.695 22.2916 292.425 21.9804 292.227 21.7108C292.03 21.4412 291.703 21.1332 291.501 21.0252C291.299 20.918 290.738 20.6148 290.255 20.3515C288.878 19.6003 285.14 19.1675 283.4 19.5579ZM62 21.3436C62 23.2468 61.9848 23.222 63.3336 23.4508C63.8832 23.5444 64.4384 23.65 64.5664 23.686C64.784 23.7476 64.8 24.1404 64.8 29.5285V35.3054L64.5 35.3742C64.3352 35.4118 63.7648 35.5182 63.2336 35.6102L62.2664 35.7766V37.4887V39.2007H67.4664H72.6664V37.4823V35.7638L72.1664 35.6766C71.892 35.6294 71.352 35.523 70.9664 35.4406L70.2664 35.2918V27.5125V19.7339H66.1336H62V21.3436ZM166.534 21.3436C166.534 23.186 166.538 23.1948 167.6 23.4484C168.003 23.5444 168.438 23.6524 168.566 23.6876C168.783 23.7468 168.8 24.094 168.805 28.5093C168.81 34.2694 169.054 35.9694 170.037 37.1151C170.2 37.3047 170.474 37.6439 170.648 37.8687C170.821 38.0935 171.27 38.4327 171.648 38.6231C172.025 38.8135 172.363 39.0143 172.4 39.0687C172.874 39.7791 177.511 39.7055 178.243 38.9767C178.34 38.8799 178.496 38.8007 178.59 38.8007C178.8 38.8007 179.962 37.9255 180.348 37.4775L180.63 37.1503L180.722 37.9423C180.886 39.3367 180.48 39.2007 184.476 39.2007H188V37.4903V35.779L186.934 35.5502L185.866 35.3206V27.5277V19.7339H181.934H178L178.002 21.3668C178.005 23.33 177.958 23.2468 179.2 23.4828L180.2 23.6732L180.235 28.7533L180.27 33.8334L179.768 34.2102C179.492 34.4174 179.237 34.6254 179.2 34.6734C178.837 35.1478 177.039 35.4222 176.095 35.1478C175.162 34.8766 174.4 33.8478 174.4 32.8582C174.4 32.6798 174.34 32.5342 174.266 32.5342C174.18 32.5342 174.134 30.3117 174.134 26.1341V19.7339H170.334H166.534V21.3436ZM84.5848 23.898C86.84 24.5716 87.8808 29.5029 86.5296 33.1134C85.4112 36.1022 81.316 36.0478 80.3232 33.0318C80.1976 32.6478 80.044 32.3006 79.9824 32.2606C79.5736 31.9926 79.5608 27.0949 79.9672 26.8117C80.0288 26.7693 80.1504 26.4909 80.2368 26.1941C80.804 24.25 82.596 23.3036 84.5848 23.898ZM266.977 23.9468C267.44 24.1044 267.711 24.3116 268.023 24.7468C268.255 25.0692 268.488 25.334 268.54 25.334C268.946 25.334 269.385 27.7133 269.376 29.8669C269.366 32.2222 269.096 33.327 268.34 34.1054C268.08 34.3734 267.866 34.6382 267.866 34.6934C267.866 34.8806 267.111 35.1854 266.418 35.2774C265.17 35.443 264.182 35.1318 263.366 34.3174L262.666 33.6182V29.6093C262.666 25.9693 262.688 25.5788 262.9 25.366C263.028 25.2364 263.29 24.93 263.481 24.6852C264.123 23.8612 265.731 23.522 266.977 23.9468ZM307.442 24.054C307.659 24.1668 308.114 24.5356 308.452 24.8732L309.066 25.4884V29.5549V33.6214L308.692 33.9774C307.26 35.339 306.154 35.6022 304.462 34.9838C303.653 34.687 302.807 33.3254 302.535 31.8822C302.27 30.4709 302.433 27.0861 302.79 26.6005C302.843 26.5269 302.99 26.1901 303.114 25.8525C303.796 24.0052 305.765 23.1868 307.442 24.054ZM159.066 32.431V33.795L158.5 34.3174C156.485 36.1742 153.466 35.7094 153.466 33.5406C153.466 31.7942 154.594 31.1061 157.5 31.0805L159.066 31.0669V32.431ZM288.263 32.4342L288.259 33.8006L287.803 34.2918C286.642 35.5398 283.974 35.8534 283.209 34.831C283.058 34.631 282.875 34.395 282.802 34.3062C282.646 34.1206 282.617 32.8446 282.766 32.7782C282.822 32.7542 283.034 32.4878 283.238 32.1878C283.844 31.2934 284.459 31.0965 286.7 31.0789L288.266 31.0669L288.263 32.4342Z" fill="#1464AC"/>
<path fill-rule="evenodd" clip-rule="evenodd" d="M16.1327 49.649C14.8623 50.0178 13.6575 51.0738 13.1887 52.2298C13.0311 52.617 12.8567 52.9346 12.8007 52.9346C12.6647 52.9346 12.3231 54.341 12.1247 55.7227C11.7847 58.0835 12.3023 70.0549 12.7903 71.135C12.8567 71.2814 13.0375 72.331 13.1919 73.4678C13.5055 75.779 14.1175 79.0991 14.2479 79.2015C14.2951 79.2383 14.4383 79.6799 14.5663 80.1823C14.9735 81.7752 15.4759 83.3248 15.6423 83.4992C15.7303 83.592 15.8743 83.8304 15.9623 84.028C16.0495 84.2256 16.3407 84.6304 16.6095 84.928C18.0199 86.4888 19.6887 84.5664 20.7695 80.1351C20.9935 79.2183 21.2167 78.2287 21.2671 77.9351C21.3167 77.6423 21.4031 77.3719 21.4591 77.3351C21.6415 77.2151 22.6575 70.3253 22.6639 69.1677C22.6655 68.8933 22.7159 68.6677 22.7767 68.6677C23.4335 68.6677 23.4623 54.4098 22.8055 54.0042C22.7407 53.9642 22.6439 53.7522 22.5903 53.533C21.8679 50.569 18.9679 48.8249 16.1327 49.649ZM105.629 50.3426C104.761 50.9506 104.645 52.6418 105.421 53.3946C106.987 54.9163 109.299 53.0954 108.336 51.0986C107.868 50.129 106.486 49.7426 105.629 50.3426ZM156.986 50.2882C156.13 50.7034 155.985 52.6474 156.754 53.3946C158.351 54.9459 160.561 53.0754 159.609 50.9786C159.242 50.1698 157.938 49.8274 156.986 50.2882ZM177.686 50.3674C176.688 51.3914 176.601 52.4994 177.451 53.3498C178.838 54.737 180.976 53.4898 180.604 51.5106C180.385 50.3418 178.45 49.5842 177.686 50.3674ZM274.753 50.3674C273.754 51.3914 273.667 52.4994 274.518 53.3498C275.898 54.7306 278.041 53.481 277.671 51.5106C277.452 50.3418 275.516 49.5842 274.753 50.3674ZM127.734 60.0011V69.6013H129.266H130.8V60.0011V50.401H129.266H127.734V60.0011ZM46.0663 51.481C45.3023 51.653 44.3999 52.005 44.3999 52.1306C44.3999 52.1906 44.2647 52.2746 44.0999 52.3178C41.7719 52.9306 41.0599 57.7315 43.0071 59.6811C43.3071 59.9819 43.8031 60.338 44.1095 60.4732C44.4159 60.6084 44.6663 60.7628 44.6663 60.8156C44.6663 60.9324 46.2991 61.4684 47.8999 61.8772C48.5415 62.0412 49.0663 62.2212 49.0663 62.2772C49.0663 62.334 49.3559 62.4756 49.7103 62.5932C51.8903 63.318 51.8055 66.4013 49.6055 66.4013C49.4559 66.4013 49.3335 66.4613 49.3335 66.5349C49.3335 66.7029 47.5455 66.7117 47.2311 66.5445C47.1039 66.4773 46.6095 66.3205 46.1335 66.1957C45.1863 65.9493 43.7247 65.2676 43.5687 64.9996C43.5143 64.9068 43.1639 64.6348 42.7895 64.3948C42.0447 63.9164 42.0183 63.9252 41.7071 64.7676C41.6183 65.006 41.5063 65.2012 41.4583 65.2012C41.4095 65.2012 41.2055 65.5661 41.0055 66.0125L40.6415 66.8237L40.9439 67.1461C41.1103 67.3229 41.3119 67.4677 41.3911 67.4677C41.4711 67.4677 41.7063 67.6261 41.9151 67.8197C42.4103 68.2789 43.5927 68.8453 44.6711 69.1405C45.1455 69.2701 45.6175 69.4421 45.7207 69.5221C45.9855 69.7285 50.6431 69.7221 50.7711 69.5149C50.8239 69.4309 51.1359 69.2901 51.4655 69.2013C53.7447 68.5885 55.0663 66.8205 55.0663 64.3836C55.0663 62.0588 54.0247 60.6252 51.6759 59.7171C51.3039 59.5731 50.8199 59.3739 50.5999 59.2747C50.3799 59.1755 49.7199 58.9611 49.1335 58.7987C47.8527 58.4435 46.8367 58.0547 46.6063 57.8315C46.5135 57.7411 46.2191 57.4715 45.9519 57.2315C44.2391 55.6907 46.5247 53.977 49.5511 54.533C50.4351 54.6963 50.6847 54.7875 52.5031 55.6187C53.5759 56.1091 53.5503 56.1131 53.9015 55.3675C54.0655 55.0195 54.2367 54.7042 54.2815 54.6674C54.4191 54.5546 54.7575 53.821 54.8503 53.4354C55.1463 52.1986 48.9783 50.8266 46.0663 51.481ZM231.734 51.4266C229.931 51.729 226.134 54.0626 226.134 54.8683C226.134 54.9579 225.989 55.1763 225.811 55.3531C223.918 57.2467 223.966 63.7428 225.89 65.7869C226.034 65.9413 226.254 66.2373 226.377 66.4437C226.896 67.3189 229.034 68.7429 230.457 69.1621C230.829 69.2725 231.218 69.4309 231.321 69.5149C231.582 69.7285 236.372 69.7285 236.505 69.5149C236.558 69.4309 236.85 69.2949 237.154 69.2133C240.03 68.4405 242.727 65.59 243.322 62.6948C243.687 60.914 243.375 57.4643 242.786 56.7859C242.647 56.6251 242.534 56.4291 242.534 56.3499C242.534 55.4291 239.262 52.2674 238.309 52.2674C238.212 52.2674 238.134 52.2146 238.134 52.1506C238.134 51.601 233.69 51.0986 231.734 51.4266ZM143.066 60.6012V69.7349H148.534H154V68.2013V66.6677H150.134H146.266V59.0675V51.4674H144.666H143.066V60.6012ZM264.4 54.401V56.2675H263.334H262.266V57.4675V58.6675H263.334H264.4V62.7964C264.4 67.9973 264.499 68.3589 266.194 69.3237C267.27 69.9365 269.249 69.9421 270.502 69.3357C270.814 69.1837 271.227 69.0005 271.418 68.9277C271.769 68.7941 271.81 67.8165 271.475 67.6053C271.414 67.5661 271.286 67.2645 271.192 66.9349C270.953 66.0925 270.926 66.0805 270.094 66.4605C269.247 66.8485 268.388 66.9037 268.075 66.5909C267.564 66.0797 267.534 65.8589 267.489 62.2348L267.444 58.6675H269.527H271.61L271.572 57.5011L271.534 56.3347L269.5 56.2979L267.466 56.2611V54.3978V52.5346H265.934H264.4V54.401ZM235.966 54.6098C236.352 54.7371 236.666 54.8923 236.666 54.9547C236.666 55.0171 236.737 55.0675 236.822 55.0675C237.562 55.0675 239.282 57.0595 239.7 58.4011C239.826 58.8043 239.975 59.1547 240.031 59.1787C240.187 59.2467 240.156 61.7348 240 61.7348C239.926 61.7348 239.866 61.8468 239.866 61.9836C239.866 63.5356 237.138 66.4013 235.659 66.4013C235.566 66.4013 235.464 66.4765 235.434 66.5677C235.361 66.7853 232.567 66.8021 232.427 66.5861C232.376 66.5061 232.034 66.3413 231.666 66.2205C228.123 65.0508 226.385 59.6443 228.74 57.1171C228.936 56.9067 229.146 56.6067 229.206 56.4507C229.43 55.8675 231.478 54.6906 232.866 54.3474C233.382 54.2202 235.274 54.3802 235.966 54.6098ZM205.466 55.6123C204.308 55.7403 203.066 56.1595 203.066 56.4227C203.066 56.4843 202.98 56.5347 202.874 56.5347C202.581 56.5347 201.343 57.8563 201.003 58.5339C199.571 61.3836 200.259 66.0773 202.325 67.5533C202.516 67.6901 202.835 67.9373 203.036 68.1037C204.358 69.2029 209.866 69.1181 209.866 67.9989C209.866 67.9269 209.951 67.8677 210.055 67.8677C210.158 67.8677 210.398 67.6837 210.588 67.4581L210.934 67.0477V67.5669C210.934 69.4109 210.207 70.8846 208.996 71.4982C207.394 72.3102 204.673 72.0486 203.162 70.9381C202.587 70.5149 202.134 70.4141 202.134 70.7085C202.134 70.8046 201.941 71.179 201.706 71.5422C201.058 72.5414 200.915 72.8366 201.03 72.951C201.178 73.0998 202.23 73.6846 202.93 74.0086C204.968 74.9502 209.689 74.8702 210.926 73.8734C211.114 73.7222 211.388 73.5462 211.537 73.4814C211.817 73.3598 212.343 72.871 212.952 72.1678C213.146 71.9446 213.446 71.4102 213.618 70.9814L213.934 70.2013L213.971 62.9676L214.009 55.7347H212.471H210.934V56.5603V57.3867L210.494 56.9603C210.252 56.7259 209.982 56.5347 209.894 56.5347C209.806 56.5347 209.734 56.4763 209.734 56.4043C209.734 55.8915 207.198 55.4203 205.466 55.6123ZM64.3335 55.7283C63.6727 55.8931 62.9335 56.2451 62.9335 56.3939C62.9335 56.4715 62.8607 56.5347 62.7719 56.5347C62.6839 56.5347 62.3839 56.7563 62.1055 57.0283L61.5999 57.5219V56.6283V55.7347H59.9999H58.3999V65.1348V74.535H59.9999H61.5999V71.1046V67.6741L61.9943 68.1525C62.2287 68.4365 62.8095 68.8405 63.4279 69.1493L64.4663 69.6677H66.3887C67.8079 69.6677 68.3255 69.6245 68.3663 69.5013C68.3975 69.4093 68.5135 69.3349 68.6247 69.3349C69.0263 69.3349 70.6807 68.3557 70.9663 67.9493C71.1263 67.7213 71.4095 67.3781 71.5951 67.1877C72.0095 66.7613 72.5239 65.3444 72.6271 64.3436C72.6695 63.9356 72.7551 63.6012 72.8183 63.6012C72.9799 63.6012 72.9623 61.9012 72.7999 61.8012C72.7263 61.7556 72.6663 61.5188 72.6663 61.274C72.6663 59.8059 70.9039 56.6675 70.0791 56.6675C69.9951 56.6675 69.8263 56.5515 69.7039 56.4091C69.1487 55.7603 65.8695 55.3451 64.3335 55.7283ZM78.9999 55.8107C78.0023 56.1139 77.5999 56.2875 77.5999 56.4147C77.5999 56.4779 77.3607 56.6515 77.0679 56.8003C74.6143 58.0523 73.5735 62.9468 75.0527 66.2757C75.5839 67.4701 77.3647 68.9701 78.5983 69.2613C78.8175 69.3133 79.0407 69.4261 79.0935 69.5117C79.2359 69.7413 83.7567 69.7317 83.8335 69.5013C83.8639 69.4093 83.9887 69.3349 84.1111 69.3349C84.5279 69.3341 86.0655 68.5189 86.5663 68.0325C87.1319 67.4845 87.1855 67.2165 86.7999 66.8677C86.6535 66.7349 86.5335 66.5525 86.5335 66.4613C86.5335 65.8685 85.3655 65.33 84.9879 65.7485C84.8479 65.9021 84.5567 66.1205 84.3399 66.2325C84.1231 66.3445 83.8695 66.5133 83.7751 66.6069C83.3439 67.0381 81.2199 67.2045 80.2975 66.8789C79.3359 66.5397 78.3239 65.5917 77.9311 64.6628L77.6231 63.9348L82.7623 63.8996L87.9015 63.8644L87.8359 62.0996C87.7703 60.3076 87.4903 58.9387 87.1119 58.5603C87.0087 58.4571 86.8087 58.1467 86.6679 57.8707C86.5271 57.5939 86.2143 57.2123 85.9727 57.0227C85.7311 56.8331 85.4159 56.5731 85.2735 56.4459C84.4511 55.7139 80.5999 55.3243 78.9999 55.8107ZM94.1335 55.8075C92.6527 56.2179 91.0143 57.5027 90.3991 58.7347C90.2159 59.1011 90.0239 59.4331 89.9727 59.4723C89.3311 59.9555 89.3495 65.8677 89.9927 65.8677C90.0439 65.8677 90.2159 66.1565 90.3751 66.5085C90.7383 67.3125 92.0599 68.5893 92.9023 68.9501C93.2487 69.0989 93.7431 69.3213 93.9999 69.4437C94.5639 69.7149 98.7375 69.7805 98.9047 69.5213C98.9575 69.4405 99.3087 69.2725 99.6863 69.1477C100.788 68.7853 102.4 67.5477 102.4 67.0637C102.4 66.9117 100.806 65.3348 100.652 65.3348C100.593 65.3348 100.202 65.5749 99.7839 65.8677C99.3647 66.1613 98.9423 66.4013 98.8447 66.4013C98.7463 66.4013 98.6663 66.4573 98.6663 66.5253C98.6663 66.7397 97.2815 66.9693 96.3151 66.9149C94.8383 66.8309 93.5927 65.9013 93.0999 64.5148C92.9743 64.1588 92.8247 63.8676 92.7687 63.8676C92.7127 63.8676 92.6663 63.3276 92.6663 62.6676C92.6663 62.0076 92.7127 61.4676 92.7687 61.4676C92.8247 61.4676 92.9735 61.1772 93.0999 60.822C93.9895 58.3171 97.6071 57.5787 99.7335 59.4675C100.445 60.0996 100.562 60.1172 100.872 59.6347C101.002 59.4331 101.354 59.0115 101.654 58.6987C101.954 58.3859 102.194 58.0715 102.186 57.9987C102.179 57.9267 102.164 57.7843 102.154 57.6827C102.142 57.5803 101.774 57.2659 101.334 56.9827C100.895 56.6995 100.535 56.4251 100.534 56.3731C100.527 55.8083 95.6775 55.3795 94.1335 55.8075ZM115.8 55.6835C114.834 55.9179 113.734 56.2931 113.734 56.3875C113.734 56.4491 113.374 56.6555 112.934 56.8467C112.494 57.0371 112.134 57.2579 112.134 57.3363C112.134 57.5427 112.664 58.5507 112.894 58.7803C113.001 58.8875 113.142 59.1163 113.208 59.2883C113.336 59.6259 113.782 59.7123 113.96 59.4347C114.018 59.3427 114.366 59.1251 114.734 58.9499C117.789 57.4931 120.666 58.4251 120.666 60.8724V61.1788L117.7 61.2332C114.034 61.3004 113.65 61.3972 112.511 62.5356C112.083 62.9636 111.733 63.4228 111.733 63.5572C111.732 63.6916 111.642 63.9732 111.533 64.1828C111.306 64.6172 111.253 66.4013 111.466 66.4013C111.54 66.4013 111.6 66.5229 111.6 66.6725C111.6 68.3853 113.681 69.6685 116.456 69.6669L118.334 69.6661L119.5 69.0557L120.666 68.4461V69.0237V69.6013H122.274H123.88L123.802 64.6348C123.758 61.9028 123.696 59.4523 123.663 59.1891C123.504 57.9131 122.364 56.5251 121.018 55.9691C120.347 55.6915 116.609 55.4875 115.8 55.6835ZM190.734 55.6635C190.66 55.6947 190.35 55.7843 190.045 55.8627C189.489 56.0051 189.053 56.3107 188.105 57.2187L187.6 57.7027V56.7187V55.7347H186.066H184.534V62.6676V69.6013H186.055H187.576L187.627 65.6349C187.686 61.0724 187.742 60.7996 188.842 59.7003C190.308 58.2339 192.944 58.1883 193.786 59.6147C193.909 59.8219 194.102 60.0836 194.215 60.1972C194.554 60.5364 194.661 61.8748 194.664 65.8349L194.666 69.6013H196.207H197.747L197.707 64.2348C197.667 58.8947 197.624 58.3747 197.196 58.0011C197.154 57.9643 196.99 57.7219 196.832 57.4611C196.49 56.8995 195.658 56.2043 194.966 55.9027C194.495 55.6987 191.104 55.5067 190.734 55.6635ZM251.934 55.8931C251.494 56.0483 250.954 56.3507 250.734 56.5659C250.514 56.7819 250.168 57.0763 249.966 57.2219L249.6 57.4859V56.6099V55.7347H248.066H246.534V65.1348V74.535H248.066H249.6V71.107V67.6789L250.166 68.2285C251.307 69.3349 252.311 69.6677 254.505 69.6677C255.671 69.6677 256.446 69.6141 256.505 69.5293C256.558 69.4533 256.864 69.2901 257.186 69.1661C259.836 68.1477 261.299 65.0556 260.823 61.4804C260.67 60.3308 260.236 58.8179 260.018 58.6747C259.957 58.6339 259.75 58.3499 259.557 58.0435C259.365 57.7363 258.989 57.3163 258.722 57.1099C258.454 56.9035 258.088 56.6035 257.908 56.4443C256.965 55.6051 253.629 55.2979 251.934 55.8931ZM285.066 55.8115C284.153 56.0523 283.6 56.2715 283.6 56.3939C283.6 56.4451 283.334 56.6195 283.01 56.7819C282.686 56.9443 282.25 57.2779 282.043 57.5243C281.836 57.7707 281.503 58.1691 281.304 58.4107C279.7 60.3508 279.96 65.5309 281.755 67.3997C282.037 67.6925 282.266 67.9749 282.266 68.0269C282.266 68.1741 283.936 69.0717 284.498 69.2261C284.774 69.3021 285.042 69.4325 285.095 69.5165C285.236 69.7413 289.625 69.7277 289.7 69.5013C289.73 69.4093 289.862 69.3349 289.993 69.3349C291.226 69.3349 293.186 67.6749 294.017 65.9261C294.765 64.3524 294.954 59.8675 294.272 59.8675C294.211 59.8675 294.122 59.7043 294.071 59.5051C293.813 58.4755 292.057 56.5347 291.383 56.5347C291.282 56.5347 291.2 56.4843 291.2 56.4227C291.2 55.7699 286.864 55.3387 285.066 55.8115ZM303.171 55.8515C302.45 56.0891 302.154 56.2955 301.109 57.2875L300.666 57.7075V56.7211V55.7347H299.134H297.6V62.6676V69.6013H299.122H300.643L300.694 65.6349C300.753 61.0796 300.802 60.8396 301.919 59.6931C303.147 58.4323 305.582 58.2155 306.554 59.2795C306.726 59.4675 306.968 59.7227 307.091 59.8467C307.604 60.3596 307.65 60.7612 307.704 65.2348L307.758 69.6013H309.286H310.814L310.773 64.2348C310.726 58.0795 310.748 58.2027 309.468 56.9235C308.203 55.6579 305.272 55.1595 303.171 55.8515ZM105.2 62.6676V69.6013H106.734H108.266V62.6676V55.7347H106.734H105.2V62.6676ZM156.534 62.6676V69.6013H158.066H159.6V62.6676V55.7347H158.066H156.534V62.6676ZM161.6 55.9379C161.6 56.0499 161.722 56.4843 161.873 56.9043C162.022 57.3243 162.265 58.0195 162.412 58.4483C162.559 58.8779 162.758 59.3579 162.854 59.5155C162.95 59.6723 163.29 60.5516 163.608 61.4676C163.926 62.3844 164.265 63.214 164.36 63.3108C164.455 63.4076 164.534 63.5508 164.534 63.6292C164.534 63.8364 165.615 66.8205 165.804 67.1349C165.893 67.2813 166.137 67.8981 166.348 68.5053L166.731 69.6085L168.454 69.5717L170.176 69.5349L170.779 67.8013C171.11 66.8477 171.424 66.0381 171.476 66.0013C171.528 65.9645 171.793 65.2748 172.065 64.4676C172.338 63.6612 172.635 62.8812 172.726 62.7348C172.891 62.47 173.764 60.098 174.026 59.2011C174.102 58.9443 174.212 58.7035 174.271 58.6659C174.358 58.6123 175.334 55.9595 175.334 55.7803C175.334 55.7547 174.59 55.7347 173.682 55.7347H172.032L171.875 56.3675C171.789 56.7163 171.604 57.2235 171.464 57.4955C171.324 57.7683 171.002 58.6779 170.747 59.5171C170.492 60.3572 170.167 61.3044 170.025 61.6228C169.882 61.9412 169.505 63.0268 169.187 64.0356C168.496 66.2285 168.498 66.2285 167.824 64.1276C167.531 63.2148 167.256 62.438 167.212 62.4012C167.13 62.3316 166.982 61.9012 166.266 59.6675C166.032 58.9347 165.8 58.3043 165.75 58.2675C165.701 58.2307 165.486 57.6459 165.272 56.9675L164.883 55.7347H163.242C161.859 55.7347 161.6 55.7667 161.6 55.9379ZM177.334 62.6676V69.6013H178.866H180.4V62.6676V55.7347H178.866H177.334V62.6676ZM274.4 62.6676V69.6013H275.934H277.466V62.6676V55.7347H275.934H274.4V62.6676ZM66.9879 58.5403C69.6343 59.3099 70.3815 64.122 68.1335 65.9229C67.8031 66.1869 67.4719 66.4517 67.3975 66.5117C66.7215 67.0533 64.4607 67.0725 63.8391 66.5429C63.7447 66.4613 63.3871 66.1829 63.0463 65.9237C62.1927 65.2756 61.8263 64.4228 61.7599 62.93C61.6095 59.5627 63.8959 57.6419 66.9879 58.5403ZM83.3519 58.6995C84.2055 59.1995 84.9335 60.3244 84.9335 61.1436V61.4676H81.2559H77.5791L77.6719 61.0348C78.1703 58.7187 81.2359 57.4587 83.3519 58.6995ZM208.384 58.4755C211.332 59.3507 211.72 64.446 208.946 65.8613C206.131 67.2973 203.4 65.5277 203.4 62.2676C203.4 59.2675 205.548 57.6331 208.384 58.4755ZM255.356 58.6899C257.82 59.7499 258.392 63.73 256.382 65.8181C254.619 67.6477 251.312 67.1421 250.319 64.8916C250.185 64.5852 250.012 64.2916 249.937 64.2396C249.862 64.1876 249.779 63.5804 249.754 62.8908C249.631 59.5035 252.407 57.4219 255.356 58.6899ZM289.4 58.8595C291.578 60.0971 292.098 64.218 290.271 65.7533C290.012 65.9709 289.653 66.2717 289.474 66.4221C288.549 67.1949 286.158 67.2045 285.361 66.4381C285.225 66.3077 284.868 65.9789 284.569 65.7069C282.562 63.8868 283.378 59.5419 285.9 58.6147C286.844 58.2683 288.571 58.3883 289.4 58.8595ZM120.666 64.0348C120.665 65.0132 120.44 65.5477 119.83 66.0245C119.52 66.2661 119.189 66.5381 119.094 66.6293C118.234 67.4517 115.536 67.2333 114.881 66.2885C113.609 64.4532 114.892 63.5284 118.766 63.4876L120.666 63.4676L120.666 64.0348Z" fill="#FCB434"/>
</svg>
