<svg width="300" height="150" viewBox="0 0 300 150" fill="none" xmlns="http://www.w3.org/2000/svg">
<path d="M20.82 118.734H9.714L4.23 129.144H0L17.886 96.4141H21.78L25.902 129.144H22.092L20.82 118.734ZM20.4 115.242L19.614 108.546C19.2598 105.947 19.0435 103.332 18.966 100.71C18.414 102.024 17.808 103.332 17.166 104.628C16.524 105.924 14.652 109.464 11.58 115.242H20.4Z" fill="#1E407C"/>
<path d="M32.19 129.144H28.428L35.862 94.308H39.6L32.19 129.144Z" fill="#1E407C"/>
<path d="M42.912 129.144H39.156L46.584 94.308H50.346L42.912 129.144Z" fill="#1E407C"/>
<path d="M53.6819 129.144H49.9199L55.1579 104.61H58.9199L53.6819 129.144ZM56.2139 98.3399C56.1809 97.5916 56.4365 96.8592 56.9279 96.294C57.1611 96.0335 57.4484 95.8271 57.7697 95.6893C58.091 95.5515 58.4385 95.4855 58.7879 95.496C60.0959 95.496 60.7559 96.168 60.7559 97.512C60.7754 98.2783 60.5055 99.0238 59.9999 99.6C59.7923 99.8618 59.529 100.074 59.229 100.222C58.9291 100.369 58.6001 100.448 58.2659 100.452C57.9957 100.462 57.7261 100.418 57.4728 100.323C57.2195 100.229 56.9874 100.085 56.7899 99.9C56.5888 99.6956 56.4334 99.4509 56.3341 99.1819C56.2348 98.9129 56.1938 98.6259 56.2139 98.3399Z" fill="#1E407C"/>
<path d="M73.6321 104.16C74.9396 104.141 76.2206 104.529 77.2981 105.27C78.4244 106.067 79.2956 107.174 79.8061 108.456H80.0521L81.5521 104.61H84.3961L79.2001 129.144H76.2001L76.8001 124.464H76.6201C73.9401 127.888 71.1221 129.6 68.1661 129.6C67.236 129.642 66.3091 129.464 65.4613 129.079C64.6134 128.694 63.8687 128.114 63.2881 127.386C62.1121 125.91 61.5121 123.888 61.4881 121.32C61.4598 118.365 61.9996 115.432 63.0781 112.68C63.9742 110.253 65.4856 108.101 67.4641 106.434C69.1868 104.971 71.372 104.165 73.6321 104.16ZM69.3781 126.48C70.8261 126.48 72.2661 125.79 73.6981 124.41C75.2317 122.878 76.422 121.037 77.1901 119.01C78.0641 116.9 78.5205 114.64 78.5341 112.356C78.6041 111.016 78.155 109.701 77.2801 108.684C76.8625 108.232 76.3518 107.875 75.7832 107.639C75.2145 107.403 74.6014 107.292 73.9861 107.316C73.1727 107.336 72.3713 107.516 71.6279 107.847C70.8844 108.177 70.2137 108.651 69.6541 109.242C68.21 110.708 67.1328 112.495 66.5101 114.456C65.743 116.69 65.3576 119.036 65.3701 121.398C65.3701 123.096 65.7181 124.398 66.4201 125.214C66.7812 125.64 67.2364 125.976 67.7498 126.196C68.2632 126.416 68.8207 126.513 69.3781 126.48V126.48Z" fill="#1E407C"/>
<path d="M99.7081 129.144L103.026 113.652C103.258 112.591 103.406 111.514 103.47 110.43C103.511 109.602 103.227 108.79 102.678 108.168C102.336 107.858 101.933 107.622 101.496 107.475C101.058 107.328 100.594 107.274 100.134 107.316C98.7306 107.343 97.3716 107.813 96.2521 108.66C94.8798 109.683 93.7423 110.989 92.9161 112.488C91.8747 114.36 91.1375 116.385 90.7321 118.488L88.4761 129.12H84.7141L89.9521 104.586H93.0601L92.5681 109.128H92.7961C93.9208 107.587 95.3302 106.275 96.9481 105.264C98.21 104.532 99.6414 104.143 101.1 104.136C102.742 104.047 104.353 104.605 105.588 105.69C106.153 106.26 106.591 106.942 106.875 107.693C107.158 108.443 107.28 109.245 107.232 110.046C107.212 111.405 107.039 112.758 106.716 114.078L103.518 129.12L99.7081 129.144Z" fill="#1E407C"/>
<path d="M119.346 129.6C116.45 129.6 114.204 128.8 112.608 127.2C111.012 125.6 110.212 123.346 110.208 120.438C110.18 117.606 110.746 114.8 111.87 112.2C112.833 109.855 114.415 107.816 116.448 106.302C118.343 104.899 120.642 104.148 123 104.16C125.054 104.161 127.089 104.547 129 105.3L127.944 108.456C126.402 107.754 124.736 107.366 123.042 107.316C121.361 107.32 119.736 107.927 118.464 109.026C116.989 110.31 115.871 111.953 115.218 113.796C114.411 115.915 114.004 118.165 114.018 120.432C114.018 122.346 114.516 123.828 115.512 124.89C116.044 125.432 116.685 125.854 117.392 126.128C118.1 126.402 118.858 126.522 119.616 126.48C120.647 126.486 121.673 126.335 122.658 126.03C123.617 125.729 124.561 125.379 125.484 124.98V128.178C123.58 129.132 121.476 129.619 119.346 129.6V129.6Z" fill="#1E407C"/>
<path d="M137.838 129.6C135.09 129.6 132.932 128.788 131.364 127.164C129.796 125.54 129.008 123.282 129 120.39C128.992 117.614 129.56 114.866 130.668 112.32C131.609 109.979 133.128 107.914 135.084 106.32C136.799 104.927 138.941 104.169 141.15 104.172C143.438 104.172 145.156 104.668 146.304 105.66C146.883 106.18 147.338 106.822 147.636 107.541C147.934 108.259 148.067 109.035 148.026 109.812C148.026 112.5 146.786 114.608 144.306 116.136C141.826 117.664 138.282 118.43 133.674 118.434H132.936L132.846 120.234C132.846 122.19 133.306 123.716 134.226 124.812C135.146 125.908 136.566 126.456 138.486 126.456C139.466 126.452 140.44 126.317 141.384 126.054C142.662 125.674 143.903 125.18 145.092 124.578V127.8C143.902 128.378 142.658 128.838 141.378 129.174C140.219 129.454 139.031 129.597 137.838 129.6ZM140.946 107.4C139.41 107.4 137.966 108.1 136.614 109.5C135.122 111.168 134.057 113.173 133.512 115.344H133.8C137.2 115.344 139.8 114.9 141.6 114.012C143.4 113.124 144.318 111.84 144.318 110.148C144.328 109.781 144.261 109.416 144.12 109.077C143.979 108.738 143.769 108.432 143.502 108.18C142.787 107.589 141.871 107.296 140.946 107.364V107.4Z" fill="#1E407C"/>
<path d="M40.11 83.058H28.2L8.93401 49.584H8.66401C9.06401 55.492 9.26401 59.71 9.26401 62.238V83.058H0.864014V38.808H12.69L31.89 71.952H32.1C31.8 66.196 31.648 62.13 31.644 59.754V38.808H40.11V83.058Z" fill="#1E407C"/>
<path d="M48.8879 40.476C48.8879 37.472 50.5619 35.968 53.9099 35.964C57.2579 35.96 58.9319 37.464 58.9319 40.476C58.9667 41.0869 58.8731 41.6983 58.6571 42.2708C58.4411 42.8434 58.1075 43.3643 57.6779 43.8C56.8379 44.6 55.5819 45 53.9099 45C50.5619 45 48.8879 43.492 48.8879 40.476ZM58.4879 83.076H49.2779V49.2H58.5119L58.4879 83.076Z" fill="#1E407C"/>
<path d="M81.2099 76.308C83.1893 76.2434 85.1483 75.8876 87.0239 75.252V82.122C84.3365 83.2219 81.4486 83.7472 78.5459 83.664C74.8579 83.664 72.1699 82.73 70.4819 80.862C68.7939 78.994 67.9519 76.194 67.9559 72.462V56.154H63.5339V52.248L68.6219 49.158L71.2859 42H77.1839V49.2H86.6579V56.154H77.1839V72.462C77.1385 72.9987 77.2141 73.5388 77.4052 74.0425C77.5963 74.5461 77.8979 75.0004 78.2879 75.372C79.1172 76.0261 80.1549 76.3585 81.2099 76.308V76.308Z" fill="#1E407C"/>
<path d="M106.872 76.308C108.852 76.2439 110.811 75.8881 112.686 75.252V82.122C110.001 83.2227 107.115 83.748 104.214 83.664C100.518 83.664 97.8281 82.73 96.1441 80.862C94.4601 78.994 93.6181 76.194 93.6181 72.462V56.154H89.2021V52.248L94.2841 49.158L96.9481 42H102.846V49.2H112.32V56.154H102.846V72.462C102.801 72.9992 102.878 73.5396 103.07 74.0433C103.262 74.5469 103.565 75.001 103.956 75.372C104.783 76.0272 105.819 76.3598 106.872 76.308V76.308Z" fill="#1E407C"/>
<path d="M139.8 83.0581L138 78.4561H137.76C136.499 80.1691 134.855 81.5641 132.96 82.5301C130.921 83.3605 128.728 83.7471 126.528 83.6641C123.28 83.6641 120.724 82.7361 118.86 80.8801C116.996 79.0241 116.062 76.3801 116.058 72.9481C116.058 69.3481 117.314 66.7001 119.826 65.0041C122.338 63.3081 126.126 62.3641 131.19 62.1721L137.064 61.9921V60.5101C137.064 57.0781 135.308 55.3641 131.796 55.3681C129.092 55.3681 125.914 56.1841 122.262 57.8161L119.196 51.6001C123.198 49.5337 127.647 48.4828 132.15 48.5401C136.686 48.5401 140.166 49.5301 142.59 51.5101C145.014 53.4901 146.214 56.4901 146.19 60.5101V83.0581H139.8ZM137.076 67.3801L133.476 67.5001C130.792 67.5841 128.792 68.0681 127.476 68.9521C126.825 69.4 126.302 70.0093 125.957 70.7202C125.612 71.4312 125.457 72.2195 125.508 73.0081C125.508 75.6121 127 76.9141 129.984 76.9141C130.919 76.9601 131.853 76.8205 132.734 76.5033C133.614 76.1861 134.423 75.6976 135.114 75.0661C135.761 74.4298 136.267 73.6645 136.599 72.82C136.93 71.9754 137.081 71.0705 137.04 70.1641L137.076 67.3801Z" fill="#1E407C"/>
<path d="M185.718 83.058H176.49V63.294C176.49 60.852 176.052 59.022 175.188 57.804C174.324 56.586 172.938 55.968 171.042 55.968C168.458 55.968 166.59 56.832 165.438 58.56C164.286 60.288 163.712 63.148 163.716 67.14V83.058H154.488V49.2H161.538L162.78 53.526H163.29C164.312 51.8984 165.792 50.6086 167.544 49.818C169.482 48.9655 171.584 48.5497 173.7 48.6C177.636 48.6 180.624 49.664 182.664 51.792C184.704 53.92 185.722 56.992 185.718 61.008V83.058Z" fill="#1E407C"/>
<path d="M189.138 49.2H199.248L205.632 68.232C206.227 70.1413 206.603 72.1119 206.754 74.106H206.934C207.142 72.1045 207.578 70.1336 208.236 68.232L214.506 49.2H224.4L210.084 87.36C208.772 90.896 206.9 93.54 204.468 95.292C201.986 97.0659 198.998 97.9898 195.948 97.926C194.37 97.9264 192.796 97.7533 191.256 97.41V90.1079C192.448 90.3811 193.669 90.514 194.892 90.504C196.453 90.5298 197.972 89.9979 199.176 89.004C200.533 87.7932 201.522 86.2257 202.032 84.48L202.578 82.818L189.138 49.2Z" fill="#1E407C"/>
<path d="M299.736 83.064H292.14L288.78 73.668V41.178H299.736V83.064Z" fill="#376AD3"/>
<path d="M260.058 56.946H247.458L253.092 40.68C254.456 36.9286 255.582 33.095 256.464 29.202C256.752 30.342 257.268 32.13 258.024 34.602C258.186 35.136 258.342 35.628 258.492 36.096L274.8 83.064H286.464L263.124 20.4H249.924L226.596 83.064H238.374L244.482 65.736H262.884L260.058 56.946Z" fill="#376AD3"/>
<path d="M294.258 35.6639C297.429 35.6639 300 33.0931 300 29.9219C300 26.7507 297.429 24.1799 294.258 24.1799C291.087 24.1799 288.516 26.7507 288.516 29.9219C288.516 33.0931 291.087 35.6639 294.258 35.6639Z" fill="#376AD3"/>
</svg>
