<svg xmlns="http://www.w3.org/2000/svg" viewBox="0 0 3507.99 959.86"><path d="M2686.79,210.91c43.11-28,108.7-19.92,144.29,16.81l627.14,656.69c35.6,37.35,22.48,67.85-29.36,67.85H1625.54c-51.22,0-58.09-23-15-50.42Z" transform="translate(0)" style="fill:#18394b"/><path d="M2781.11,252.62c-8.11-50.42,14.36-61.63,50-24.9L3465,886c35.6,37.35,67.66,66.86,15.82,66.86H2986c-51.22,0-101.18-41.71-108.68-92.13Z" transform="translate(0)" style="fill:#3e434a"/><path d="M2766.74,159.87S2981,382.71,3008.48,411.35C2806.1,478.57,2769.24,247,2533.76,309.26,2500.65,330.43,2766.74,159.87,2766.74,159.87Z" transform="translate(0)" style="fill:#eee"/><path d="M1865.9,278.12c40.94-40.09,107.53-40.09,149.15,0l619.46,607.63c40.93,40.09,27,72.58-29.83,72.58H1277c-56.88,0-70.75-32.49-29.83-72.58Z" transform="translate(0)" style="fill:#215266"/><path d="M1956.09,307.85c-9-56.69,17.34-69.82,58.27-29.73l619.46,607.63c40.92,40.09,27,72.58-29.83,72.58H2162.11c-56.88,0-111.68-46.32-120.7-102.31Z" transform="translate(0)" style="fill:#4f5961"/><path d="M1940.38,206.63s120.76,115.79,158.67,152.78c-241.51-26-210.62,132.22-416.32,94.54C1632.18,502.6,1940.38,206.63,1940.38,206.63Z" transform="translate(0)" style="fill:#d9d9da"/><path d="M1488.28.51l538.34,894.75c17.13,28.06-3.74,64.06-36.91,64.06H986.31c-33.18,0-53.52-36-36.93-64.06Z" transform="translate(0)" style="fill:#05334b"/><path d="M0,905.86,528.73,0h959.52L910.83,959.34" transform="translate(0)" style="fill:#05334b"/><path d="M1488.25,0l538.89,895.27c17.13,28.06-3.74,64.07-36.93,64.07H1679.3Z" transform="translate(0)" style="fill:#236577"/><path d="M1488.25,0l277.21,834.92L1679.3,959.34Z" transform="translate(0)" style="fill:#074a66"/><path d="M1096.52,651.21,986.28,959.86H42.82c-33.18,0-53.51-35.47-36.92-63.53L148.78,651.21Z" transform="translate(0)" style="fill:#074a66"/><path d="M1488.78,0,949.36,895.8c-17.13,28.06,3.74,64.06,36.92,64.06H1297.2Z" transform="translate(0)" style="fill:#236577"/><path d="M1488.25,0,1211,834.92l86.16,124.42Z" transform="translate(0)" style="fill:#074a66"/></svg>