<svg xmlns="http://www.w3.org/2000/svg" xmlns:xlink="http://www.w3.org/1999/xlink" viewBox="0 0 2038.93 557.89"><defs><clipPath id="a" transform="translate(-1469.91 -2220.72)"><rect x="1705.3" y="2220.72" width="1831" height="557" style="fill:none"/></clipPath></defs><g style="clip-path:url(#a)"><path d="M3031.54,2343.31c25.05-16.28,63.18-11.58,83.86,9.77l364.51,381.68c20.69,21.71,13.07,39.44-17.06,39.44H2414.71c-29.77,0-33.76-13.37-8.72-29.31Z" transform="translate(-1469.91 -2220.72)" style="fill:#18394b"/><path d="M3086.36,2367.55c-4.72-29.31,8.34-35.82,29.06-14.47l368.43,382.6c20.69,21.71,39.33,38.87,9.2,38.87H3205.44c-29.77,0-58.81-24.25-63.17-53.55Z" transform="translate(-1469.91 -2220.72)" style="fill:#3e434a"/><path d="M3078,2313.64s124.53,129.52,140.5,146.17c-117.63,39.07-139.06-95.53-275.92-59.34C2923.35,2412.77,3078,2313.64,3078,2313.64Z" transform="translate(-1469.91 -2220.72)" style="fill:#eee"/><path d="M2554.42,2382.37c23.8-23.3,62.5-23.3,86.68,0l360.05,353.17c23.79,23.3,15.69,42.19-17.34,42.19H2212.13c-33.06,0-41.12-18.89-17.34-42.19Z" transform="translate(-1469.91 -2220.72)" style="fill:#215266"/><path d="M2606.84,2399.65c-5.23-33,10.08-40.58,33.86-17.28l360.05,353.17c23.78,23.3,15.69,42.18-17.34,42.18H2726.59c-33.06,0-64.92-26.92-70.16-59.46Z" transform="translate(-1469.91 -2220.72)" style="fill:#4f5961"/><path d="M2597.71,2340.82s70.18,67.3,92.22,88.8c-140.37-15.11-122.42,76.85-242,55C2418.57,2512.84,2597.71,2340.82,2597.71,2340.82Z" transform="translate(-1469.91 -2220.72)" style="fill:#d9d9da"/><path d="M2334.93,2221l312.9,520.05c10,16.31-2.17,37.23-21.45,37.23h-583.2c-19.28,0-31.11-20.92-21.46-37.23Z" transform="translate(-1469.91 -2220.72)" style="fill:#05334b"/><path d="M1469.91,2747.23l307.31-526.51h557.7l-335.61,557.59" transform="translate(-1469.91 -2220.72)" style="fill:#05334b"/><path d="M2334.92,2220.72l313.21,520.35c10,16.31-2.17,37.24-21.46,37.24H2446Z" transform="translate(-1469.91 -2220.72)" style="fill:#236577"/><path d="M2334.92,2220.72,2496,2706,2446,2778.31Z" transform="translate(-1469.91 -2220.72)" style="fill:#074a66"/><path d="M2107.23,2599.22l-64.07,179.39H1494.8c-19.29,0-31.1-20.61-21.46-36.92l83-142.47Z" transform="translate(-1469.91 -2220.72)" style="fill:#074a66"/><path d="M2335.22,2220.72,2021.7,2741.38c-10,16.31,2.17,37.23,21.46,37.23h180.71Z" transform="translate(-1469.91 -2220.72)" style="fill:#236577"/><path d="M2334.92,2220.72,2173.77,2706l50.08,72.31Z" transform="translate(-1469.91 -2220.72)" style="fill:#074a66"/></g></svg>