<svg width="360" height="478" viewBox="0 0 360 478" fill="none" xmlns="http://www.w3.org/2000/svg">
<g clip-path="url(#clip0_5_21883)">
<path d="M106.015 103.154C108.976 99.2588 113.773 99.2588 116.734 103.154C116.734 103.154 131.302 122.451 141.191 135.61C195.14 207.133 297.647 343.039 297.647 343.039C300.608 346.934 299.009 350.12 294.094 350.12H-71.3449C-76.2009 350.12 -77.7997 346.934 -74.898 343.039L106.015 103.154Z" fill="#4A7984"/>
<path d="M112.766 104.806C111.996 99.967 113.832 99.2588 116.734 103.154C116.734 103.154 131.302 122.451 141.191 135.61C195.14 207.133 297.647 343.039 297.647 343.039C300.608 346.934 299.009 350.238 294.094 350.356L160.023 350.533C155.167 350.651 150.489 346.875 149.719 342.036L112.766 104.806Z" fill="#6B777B"/>
<path d="M251.516 191.082L343.719 350.12H117.089L251.516 191.082Z" fill="#416B77"/>
<path d="M102.048 223.952C104.713 219.88 109.45 219.585 112.589 223.362L212.609 343.806C215.748 347.583 214.267 350.651 209.411 350.651H28.5572C23.7013 350.651 21.8655 347.288 24.5303 343.216L102.048 223.952Z" fill="#215266"/>
<path d="M108.266 225.309C107.496 220.47 109.45 219.644 112.589 223.362L212.55 343.806C215.689 347.583 214.208 350.651 209.352 350.592H136.691C131.835 350.592 127.156 346.639 126.387 341.859L108.266 225.309Z" fill="#4F5961"/>
<path d="M225.46 292.524C228.953 289.102 234.638 289.102 238.192 292.524L291.074 344.396C294.568 347.819 293.383 350.592 288.528 350.592H175.183C170.327 350.592 169.143 347.819 172.636 344.396L225.46 292.524Z" fill="#215266"/>
<path d="M233.158 295.062C232.388 290.223 234.638 289.102 238.132 292.524L291.015 344.396C294.509 347.819 293.324 350.592 288.468 350.592H250.746C245.89 350.592 241.212 346.639 240.442 341.859L233.158 295.062Z" fill="#4F5961"/>
<path d="M252.878 199.816C252.108 194.977 253.529 194.505 255.957 198.754L339.219 342.508C341.647 346.698 339.693 350.179 334.777 350.179L285.211 350.12C280.355 350.12 275.677 346.166 274.907 341.386L252.878 199.816Z" fill="#616B70"/>
<path d="M331.106 280.368C335.192 277.712 341.41 278.479 344.785 281.961L404.241 344.219C407.616 347.76 406.373 350.651 401.458 350.651H230.493C225.637 350.651 224.986 348.468 229.072 345.871L331.106 280.368Z" fill="#18394B"/>
<path d="M111.404 95.6C112.826 97.4884 114.247 99.3768 115.668 101.265C123.426 111.592 146.166 142.161 153.923 152.488C117.089 167.772 102.166 132.188 83.8083 132.188L111.404 95.6Z" fill="#EEEEEE"/>
<path d="M251.516 191.082L280.296 240.652C253.707 247.085 256.845 213.33 230.079 216.575L251.516 191.082Z" fill="#EEEEEE"/>
<path d="M107.022 216.457C107.022 216.457 127.275 241.006 127.571 241.36C112.293 251.334 103.291 237.82 90.6184 241.36" fill="#EEEEEE"/>
<path d="M231.796 286.328C231.796 286.328 241.982 296.301 245.179 299.488C224.808 297.245 227.414 310.877 210.063 307.631C205.799 311.821 231.796 286.328 231.796 286.328Z" fill="#EEEEEE"/>
<path d="M340.048 284.321C339.278 279.541 341.41 278.479 344.785 281.961L417.861 357.851C421.237 361.392 404.655 355.431 399.74 355.431L359.472 350.71C354.616 350.71 349.878 346.757 349.167 341.977L340.048 284.321Z" fill="#3E434A"/>
<path d="M338.686 275.529C338.686 275.529 358.998 296.655 361.604 299.37C342.417 305.743 338.923 283.79 316.597 289.692C313.459 291.698 338.686 275.529 338.686 275.529Z" fill="#EEEEEE"/>
<path d="M-99 478H1038V392.904C1038 392.904 650.117 384.583 469.5 359.444C97.3693 307.69 -99 359.444 -99 359.444V478Z" fill="#49945B"/>
<path d="M417.032 478H1038V392.904C1038 392.904 650.117 384.583 469.5 359.444C97.3694 307.69 417.032 478 417.032 478Z" fill="#4FA163"/>
<path d="M149.306 322.973L208.88 422.704C210.775 425.832 208.465 429.845 204.794 429.845H93.7586C90.087 429.845 87.8367 425.832 89.6725 422.704L149.306 322.973Z" fill="#05334B"/>
<path d="M-15.383 423.886L43.1251 322.916H149.304L85.4072 429.846" fill="#05334B"/>
<path d="M149.304 322.916L208.937 422.705C210.832 425.833 208.523 429.846 204.851 429.846H170.445L149.304 322.916Z" fill="#236577"/>
<path d="M149.304 322.916L179.979 415.978L170.445 429.846L149.304 322.916Z" fill="#074A66"/>
<path d="M105.956 395.501L93.7571 429.905H-10.6457C-14.3172 429.905 -16.5675 425.951 -14.7317 422.824L1.07969 395.501H105.956Z" fill="#074A66"/>
<path d="M149.363 322.916L89.6709 422.765C87.7759 425.892 90.0855 429.905 93.757 429.905H128.163L149.363 322.916Z" fill="#236577"/>
<path d="M149.304 322.916L118.629 415.978L128.163 429.846L149.304 322.916Z" fill="#074A66"/>
<path d="M275.381 398.982C274.197 395.088 271.65 392.432 269.755 393.022C269.696 393.022 269.696 393.022 269.637 393.081L230.908 404.884L235.231 418.929L273.96 407.126C274.019 407.126 274.019 407.126 274.078 407.126C275.973 406.477 276.565 402.818 275.381 398.982Z" fill="#183440"/>
<path d="M229.655 412.814C228.462 408.918 229.042 405.288 230.951 404.708C232.859 404.128 235.373 406.817 236.566 410.714C237.759 414.61 237.179 418.24 235.271 418.82C233.362 419.4 230.848 416.711 229.655 412.814Z" fill="#236577"/>
<path d="M237.718 398.982C238.902 395.088 241.449 392.432 243.344 393.022C243.403 393.022 243.403 393.022 243.462 393.081L282.191 404.884L277.868 418.929L239.139 407.126C239.08 407.126 239.08 407.126 239.021 407.126C237.126 406.477 236.533 402.818 237.718 398.982Z" fill="#183440"/>
<path d="M277.774 418.838C275.866 418.257 275.285 414.626 276.475 410.729C277.666 406.831 280.178 404.143 282.086 404.724C283.994 405.305 284.575 408.936 283.385 412.833C282.194 416.731 279.682 419.419 277.774 418.838Z" fill="#236577"/>
<path d="M256.609 421.938C252.52 421.938 249.206 418.636 249.206 414.562C249.206 410.488 252.52 407.185 256.609 407.185C260.697 407.185 264.011 410.488 264.011 414.562C264.011 418.636 260.697 421.938 256.609 421.938Z" fill="#236577"/>
<path d="M245.061 383.462C247.667 389.777 254.95 392.786 261.287 390.131C267.623 387.534 270.643 380.276 267.979 373.961L258.385 350.947C257.674 349.294 255.306 349.294 254.595 350.947L245.239 373.489C243.877 376.558 243.699 380.158 245.061 383.462Z" fill="#E54F61"/>
<path d="M250.391 380.394C251.812 383.757 255.661 385.351 259.036 383.993C262.412 382.577 264.011 378.741 262.649 375.377L257.556 363.044C257.201 362.159 255.898 362.159 255.543 363.044L250.509 375.082C249.739 376.676 249.68 378.564 250.391 380.394Z" fill="#FD9024"/>
<path d="M253.825 378.328C254.417 379.803 256.135 380.512 257.615 379.921C259.096 379.331 259.806 377.62 259.214 376.145L256.964 370.716C256.786 370.302 256.253 370.302 256.076 370.716L253.884 376.027C253.588 376.676 253.529 377.561 253.825 378.328Z" fill="#FFDF3E"/>
<path d="M293.265 263.372L296.226 340.029H290.245L293.265 263.372Z" fill="#183440"/>
</g>
<defs>
<clipPath id="clip0_5_21883">
<rect width="1137" height="478" fill="white" transform="matrix(-1 0 0 1 1038 0)"/>
</clipPath>
</defs>
</svg>
