<svg width="1920" height="810" viewBox="0 0 1920 810" fill="none" xmlns="http://www.w3.org/2000/svg">
<g clip-path="url(#clip0)">
<path d="M845.5 811.7H0V599C0 599 116.3 548.5 236 548C383 547.3 837.9 623.2 837.9 623.2L845.5 811.7Z" fill="#77A181"/>
<path d="M1573.8 174.8C1568.8 168.2 1560.7 168.2 1555.7 174.8C1555.7 174.8 1531.1 207.5 1514.4 229.8C1423.3 351 1250.2 581.3 1250.2 581.3C1245.2 587.9 1247.9 593.3 1256.2 593.3H1873.3C1881.5 593.3 1884.2 587.9 1879.3 581.3L1573.8 174.8Z" fill="#4A7984"/>
<path d="M1562.4 177.6C1563.7 169.4 1560.6 168.2 1555.7 174.8C1555.7 174.8 1531.1 207.5 1514.4 229.8C1423.3 351 1250.2 581.3 1250.2 581.3C1245.2 587.9 1247.9 593.5 1256.2 593.7L1482.6 594C1490.8 594.2 1498.7 587.8 1500 579.6L1562.4 177.6Z" fill="#6B777B"/>
<path d="M1328.1 323.8L1172.4 593.3H1555.1L1328.1 323.8Z" fill="#416B77"/>
<path d="M1580.5 379.5C1576 372.6 1568 372.1 1562.7 378.5L1393.8 582.6C1388.5 589 1391 594.2 1399.2 594.2H1704.6C1712.8 594.2 1715.9 588.5 1711.4 581.6L1580.5 379.5Z" fill="#215266"/>
<path d="M1570 381.8C1571.3 373.6 1568 372.2 1562.7 378.5L1393.9 582.6C1388.6 589 1391.1 594.2 1399.3 594.1H1522C1530.2 594.1 1538.1 587.4 1539.4 579.3L1570 381.8Z" fill="#4F5961"/>
<path d="M1372.1 495.7C1366.2 489.9 1356.6 489.9 1350.6 495.7L1261.3 583.6C1255.4 589.4 1257.4 594.1 1265.6 594.1H1457C1465.2 594.1 1467.2 589.4 1461.3 583.6L1372.1 495.7Z" fill="#215266"/>
<path d="M1359.1 500C1360.4 491.8 1356.6 489.9 1350.7 495.7L1261.4 583.6C1255.5 589.4 1257.5 594.1 1265.7 594.1H1329.4C1337.6 594.1 1345.5 587.4 1346.8 579.3L1359.1 500Z" fill="#4F5961"/>
<path d="M1325.8 338.6C1327.1 330.4 1324.7 329.6 1320.6 336.8L1180 580.4C1175.9 587.5 1179.2 593.4 1187.5 593.4L1271.2 593.3C1279.4 593.3 1287.3 586.6 1288.6 578.5L1325.8 338.6Z" fill="#616B70"/>
<path d="M1193.7 475.1C1186.8 470.6 1176.3 471.9 1170.6 477.8L1070.2 583.3C1064.5 589.3 1066.6 594.2 1074.9 594.2H1363.6C1371.8 594.2 1372.9 590.5 1366 586.1L1193.7 475.1Z" fill="#18394B"/>
<path d="M1564.7 162C1562.3 165.2 1559.9 168.4 1557.5 171.6C1544.4 189.1 1506 240.9 1492.9 258.4C1555.1 284.3 1580.3 224 1611.3 224L1564.7 162Z" fill="#EEEEEE"/>
<path d="M1328.1 323.8L1279.5 407.8C1324.4 418.7 1319.1 361.5 1364.3 367L1328.1 323.8Z" fill="#EEEEEE"/>
<path d="M1572.1 366.8C1572.1 366.8 1537.9 408.4 1537.4 409C1563.2 425.9 1578.4 403 1599.8 409" fill="#EEEEEE"/>
<path d="M1361.4 485.2C1361.4 485.2 1344.2 502.1 1338.8 507.5C1373.2 503.7 1368.8 526.8 1398.1 521.3C1405.3 528.4 1361.4 485.2 1361.4 485.2Z" fill="#EEEEEE"/>
<path d="M1178.6 481.8C1179.9 473.7 1176.3 471.9 1170.6 477.8L1047.2 606.4C1041.5 612.4 1069.5 602.3 1077.8 602.3L1145.8 594.3C1154 594.3 1162 587.6 1163.2 579.5L1178.6 481.8Z" fill="#3E434A"/>
<path d="M1180.9 466.9C1180.9 466.9 1146.6 502.7 1142.2 507.3C1174.6 518.1 1180.5 480.9 1218.2 490.9C1223.5 494.3 1180.9 466.9 1180.9 466.9Z" fill="#EEEEEE"/>
<path d="M1920 810H0V665.8C0 665.8 655 651.7 960 609.1C1588.4 521.4 1920 609.1 1920 609.1V810Z" fill="#49945B"/>
<path d="M1048.6 810H0V665.8C0 665.8 655 651.7 960 609.1C1588.4 521.4 1048.6 810 1048.6 810Z" fill="#4FA163"/>
<path d="M1500.7 547.3L1400.1 716.3C1396.9 721.6 1400.8 728.4 1407 728.4H1594.5C1600.7 728.4 1604.5 721.6 1601.4 716.3L1500.7 547.3Z" fill="#05334B"/>
<path d="M1778.8 718.3L1680 547.2H1500.7L1608.6 728.4" fill="#05334B"/>
<path d="M1500.7 547.2L1400 716.3C1396.8 721.6 1400.7 728.4 1406.9 728.4H1465L1500.7 547.2Z" fill="#236577"/>
<path d="M1500.7 547.2L1448.9 704.9L1465 728.4L1500.7 547.2Z" fill="#074A66"/>
<path d="M1573.9 670.2L1594.5 728.5H1770.8C1777 728.5 1780.8 721.8 1777.7 716.5L1751 670.2H1573.9Z" fill="#074A66"/>
<path d="M1500.6 547.2L1601.4 716.4C1604.6 721.7 1600.7 728.5 1594.5 728.5H1536.4L1500.6 547.2Z" fill="#236577"/>
<path d="M1500.7 547.2L1552.5 704.9L1536.4 728.4L1500.7 547.2Z" fill="#074A66"/>
<path d="M1287.8 676.1C1289.8 669.5 1294.1 665 1297.3 666C1297.4 666 1297.4 666 1297.5 666.1L1362.9 686.1L1355.6 709.9L1290.2 689.9C1290.1 689.9 1290.1 689.9 1290 689.9C1286.8 688.8 1285.8 682.6 1287.8 676.1Z" fill="#183440"/>
<path d="M1365.01 699.539C1367.03 692.936 1366.05 686.786 1362.83 685.803C1359.61 684.82 1355.36 689.376 1353.35 695.979C1351.33 702.582 1352.31 708.732 1355.53 709.715C1358.75 710.698 1363 706.142 1365.01 699.539Z" fill="#236577"/>
<path d="M1351.4 676.1C1349.4 669.5 1345.1 665 1341.9 666C1341.8 666 1341.8 666 1341.7 666.1L1276.3 686.1L1283.6 709.9L1349 689.9C1349.1 689.9 1349.1 689.9 1349.2 689.9C1352.4 688.8 1353.4 682.6 1351.4 676.1Z" fill="#183440"/>
<path d="M1283.77 709.746C1287 708.763 1287.98 702.613 1285.96 696.01C1283.95 689.406 1279.7 684.85 1276.48 685.833C1273.26 686.816 1272.28 692.966 1274.29 699.569C1276.31 706.173 1280.55 710.729 1283.77 709.746Z" fill="#236577"/>
<path d="M1319.5 715C1326.4 715 1332 709.404 1332 702.5C1332 695.596 1326.4 690 1319.5 690C1312.6 690 1307 695.596 1307 702.5C1307 709.404 1312.6 715 1319.5 715Z" fill="#236577"/>
<path d="M1339 649.8C1334.6 660.5 1322.3 665.6 1311.6 661.1C1300.9 656.7 1295.8 644.4 1300.3 633.7L1316.5 594.7C1317.7 591.9 1321.7 591.9 1322.9 594.7L1338.7 632.9C1341 638.1 1341.3 644.2 1339 649.8Z" fill="#E54F61"/>
<path d="M1330 644.6C1327.6 650.3 1321.1 653 1315.4 650.7C1309.7 648.3 1307 641.8 1309.3 636.1L1317.9 615.2C1318.5 613.7 1320.7 613.7 1321.3 615.2L1329.8 635.6C1331.1 638.3 1331.2 641.5 1330 644.6Z" fill="#FD9024"/>
<path d="M1324.2 641.1C1323.2 643.6 1320.3 644.8 1317.8 643.8C1315.3 642.8 1314.1 639.9 1315.1 637.4L1318.9 628.2C1319.2 627.5 1320.1 627.5 1320.4 628.2L1324.1 637.2C1324.6 638.3 1324.7 639.8 1324.2 641.1Z" fill="#FFDF3E"/>
<path d="M1847.3 690.1H1840.7C1836.6 690.1 1833.2 686.7 1833.2 682.6V634.3C1833.2 630.2 1836.6 626.8 1840.7 626.8H1847.3C1851.4 626.8 1854.8 630.2 1854.8 634.3V682.6C1854.8 686.7 1851.4 690.1 1847.3 690.1Z" fill="#183440"/>
<path d="M1919.5 630.6L1890.9 553.9H1901.2C1906.7 553.9 1910.6 548.4 1908.6 543.2L1851.3 389C1848.7 382.1 1839 382.1 1836.4 389L1779 543.2C1777.1 548.4 1780.9 553.9 1786.4 553.9H1796.9L1768.3 630.6C1766.4 635.8 1770.2 641.3 1775.7 641.3H1911.8C1917.6 641.3 1921.4 635.8 1919.5 630.6Z" fill="#3D6647"/>
<path d="M1844 641.3H1912.1C1917.6 641.3 1921.5 635.8 1919.5 630.6L1890.9 553.9H1901.2C1906.7 553.9 1910.6 548.4 1908.6 543.2L1851.3 389C1850 385.6 1847 383.9 1844 383.8" fill="#457350"/>
<path d="M1844 383.8L1833.2 643.1H1854.8L1844 383.8Z" fill="#183440"/>
<path d="M1257.6 446.3L1252.6 576.2H1262.7L1257.6 446.3Z" fill="#183440"/>
<path d="M0 811.7V699.9C0 699.9 512.3 645.6 460 699.9C403 759.2 251.7 811.7 251.7 811.7" fill="#49945B"/>
<path d="M54.7 739.9H41.6C37.7 739.9 34.5 736.7 34.5 732.8V666.9C34.5 663 37.7 659.8 41.6 659.8H54.7C58.6 659.8 61.8 663 61.8 666.9V732.8C61.8 736.7 58.6 739.9 54.7 739.9Z" fill="#183440"/>
<path d="M40.9 365.6L-49.7001 668.5C-51.1001 673.3 -47.5 678.2 -42.5 678.2H138.7C143.7 678.2 147.4 673.3 145.9 668.5L55.4 365.6C53.2 358.5 43.1 358.5 40.9 365.6Z" fill="#3D6647"/>
<path d="M48 678.2H138.6C143.6 678.2 147.3 673.3 145.8 668.5L55.2 365.6C54.1 362 51.1 360.2 48 360.2" fill="#457350"/>
<path d="M48.1 360.3L34.5 679.8H61.8L48.1 360.3Z" fill="#183440"/>
<path d="M335.8 703.2H323.4C319.7 703.2 316.7 700.2 316.7 696.5V634.1C316.7 630.4 319.7 627.4 323.4 627.4H335.8C339.5 627.4 342.5 630.4 342.5 634.1V696.5C342.5 700.2 339.5 703.2 335.8 703.2Z" fill="#183440"/>
<path d="M289.2 644.8H370.1C374.1 644.8 377.8 642.7 379.9 639.2L406.1 593.8C407.6 591.1 408 587.9 407.1 584.9L347.2 385C342 367.5 317.2 367.5 312 385L252.2 584.9C251.3 587.9 251.7 591.1 253.2 593.8L279.4 639.2C281.4 642.6 285.2 644.8 289.2 644.8Z" fill="#3D6647"/>
<path d="M329.6 644.8H370C374 644.8 377.7 642.7 379.8 639.2L406 593.8C407.5 591.1 407.9 587.9 407 584.9L347.2 385C344.6 376.3 337.1 371.9 329.6 371.9" fill="#457350"/>
<path d="M329.6 371.9L316.7 646.2H342.5L329.6 371.9Z" fill="#183440"/>
<path d="M215.6 783.4H210.6C207.4 783.4 204.8 780.8 204.8 777.6V740.5C204.8 737.3 207.4 734.7 210.6 734.7H215.6C218.8 734.7 221.4 737.3 221.4 740.5V777.6C221.4 780.8 218.8 783.4 215.6 783.4Z" fill="#183440"/>
<path d="M271.2 737.7L249.2 678.7H257.2C261.4 678.7 264.4 674.5 262.9 670.5L218.8 551.9C216.8 546.6 209.3 546.6 207.4 551.9L163.3 670.5C161.8 674.5 164.8 678.7 169 678.7H177.1L155.1 737.7C153.6 741.7 156.6 745.9 160.8 745.9H265.5C269.7 746 272.7 741.7 271.2 737.7Z" fill="#3D6647"/>
<path d="M213.1 746H265.4C269.6 746 272.6 741.8 271.1 737.8L249.1 678.8H257.1C261.3 678.8 264.3 674.6 262.8 670.6L218.7 552C217.7 549.4 215.4 548.1 213 548" fill="#457350"/>
<path d="M213.1 549.2L204.8 746.6H221.4L213.1 549.2Z" fill="#183440"/>
</g>
<defs>
<clipPath id="clip0">
<rect width="1920" height="810" fill="white"/>
</clipPath>
</defs>
</svg>
