<?xml version="1.0" encoding="utf-8"?>
<!-- Generator: Adobe Illustrator 26.0.3, SVG Export Plug-In . SVG Version: 6.00 Build 0)  -->
<svg version="1.1" id="Layer_1" xmlns="http://www.w3.org/2000/svg" xmlns:xlink="http://www.w3.org/1999/xlink" x="0px" y="0px"
	 viewBox="0 0 3840 2160" enable-background="new 0 0 3840 2160" xml:space="preserve">
<path fill="#183440" d="M974.05,2152.78h-31.77c-19.73,0-36.1-16.36-36.1-36.1v-232.46c0-19.73,16.36-36.1,36.1-36.1h31.77
	c19.73,0,36.1,16.36,36.1,36.1v232.46C1010.14,2136.42,993.78,2152.78,974.05,2152.78z"/>
<path fill="#3E6748" d="M1321.54,1866.41l-137.65-369.15h49.57c26.47,0,45.24-26.47,35.62-51.5L993.3,703.61
	c-12.51-33.21-59.2-33.21-71.71,0l-276.26,742.15c-9.14,25.03,9.14,51.5,35.62,51.5h50.54l-137.65,369.15
	c-9.14,25.03,9.14,51.5,35.62,51.5h655.04C1312.39,1917.91,1330.68,1891.44,1321.54,1866.41z"/>
<path fill="#183440" d="M958.16,678.58l-51.98,1247.99h103.96L958.16,678.58z"/>
<path fill="#3E6748" d="M2390.97,1784.59l-137.65-369.15h49.57c26.47,0,45.24-26.47,35.62-51.5l-275.78-742.15
	c-12.51-33.21-59.2-33.21-71.71,0l-276.26,742.15c-9.14,25.03,9.14,51.5,35.62,51.5h50.54l-137.65,369.15
	c-9.14,25.03,9.14,51.5,35.62,51.5h655.04C2381.83,1836.09,2400.12,1809.62,2390.97,1784.59z"/>
<path fill="#04334B" d="M1416.35,1287.9l-484.18,813.39c-15.4,25.51,3.37,58.24,33.21,58.24h902.43c29.84,0,48.13-32.73,33.21-58.24
	L1416.35,1287.9z"/>
<path fill="#246678" d="M1416.35,1287.41l-484.66,813.87c-15.4,25.51,3.37,58.24,33.21,58.24h279.63L1416.35,1287.41z"/>
<path fill="#0A4B66" d="M1416.35,1287.41l-249.31,759l77.49,113.1L1416.35,1287.41z"/>
<path fill="#246678" d="M1415.87,1287.41l485.14,814.35c15.4,25.51-3.37,58.24-33.21,58.24h-279.63L1415.87,1287.41z"/>
<path fill="#183440" d="M2718.25,2109.95h-31.77c-19.73,0-36.1-16.36-36.1-36.1v-232.46c0-19.73,16.36-36.1,36.1-36.1h31.77
	c19.73,0,36.1,16.36,36.1,36.1v232.46C2754.35,2093.58,2737.99,2109.95,2718.25,2109.95z"/>
<path fill="#3E6748" d="M3065.75,1823.58l-137.65-369.15h49.57c26.47,0,45.24-26.47,35.62-51.5L2737.5,660.77
	c-12.51-33.21-59.2-33.21-71.71,0l-276.26,742.15c-9.14,25.03,9.14,51.5,35.62,51.5h50.54l-137.65,369.15
	c-9.14,25.03,9.14,51.5,35.62,51.5h655.04C3056.6,1875.07,3074.89,1848.6,3065.75,1823.58z"/>
<path fill="#457451" d="M2702.37,1875.07h327.76c26.47,0,45.24-26.47,35.62-51.5l-137.65-369.15h49.57
	c26.47,0,45.24-26.47,35.62-51.5L2737.5,660.77c-6.26-16.36-20.7-24.55-35.13-25.03"/>
<path fill="#183440" d="M2702.37,635.74l-51.98,1247.99h103.96L2702.37,635.74z"/>
<path fill="#183440" d="M2043.48,2070.96h-31.77c-19.73,0-36.1-16.36-36.1-36.1V1802.4c0-19.73,16.36-36.1,36.1-36.1h31.77
	c19.73,0,36.1,16.36,36.1,36.1v232.46C2079.58,2054.6,2063.21,2070.96,2043.48,2070.96z"/>
<path fill="#183440" d="M2027.6,596.76l-51.98,1247.99h103.96L2027.6,596.76z"/>
<path fill="#04334B" d="M2754.83,2110.91l-475.52-823.49h-862.96l519.32,872.1"/>
<path fill="#0A4B66" d="M1768.66,1879.41l99.15,280.59h848.52c29.84,0,48.13-32.25,33.21-57.76l-128.51-222.84H1768.66z"/>
<path fill="#0A4B66" d="M1416.35,1287.41l249.31,759l-77.49,113.1L1416.35,1287.41z"/>
</svg>
