<svg width="16" height="20" viewBox="0 0 16 20" fill="none" xmlns="http://www.w3.org/2000/svg">
    <path d="M2 0C0.906937 0 0 0.906937 0 2V18C0 19.0931 0.906937 20 2 20H14C15.0931 20 16 19.0931 16 18V2C16 0.906937 15.0931 0 14 0H2ZM4 4C4 4 6.99617 4.72547 7.57617 5.73047C8.15617 6.73547 7.76036 8.05002 6.69336 8.66602C5.62536 9.28202 4.58 9.005 4 8C3.42 6.995 4 4 4 4ZM9.08008 9.09961C10.9701 11.8596 12.949 15.458 12 16C10.66 16.766 8.86992 13.46 6.91992 10.75C7.17992 10.66 7.43945 10.5404 7.68945 10.4004C8.26945 10.0604 8.74008 9.61961 9.08008 9.09961Z" fill="black"/>
</svg>
